<mxfile modified="2022-02-23T16:51:33.684Z" host="app.diagrams.net" agent="5.0 (X11)" etag="GISBg07vr20gl6XPbQ6A" version="16.6.2" type="github">
  <diagram id="Ht1M8jgEwFfnCIfOTk4-" name="Page-1">
    <mxGraphModel dx="2840" dy="893" grid="1" gridSize="10" guides="1" tooltips="1" connect="1" arrows="1" fold="1" page="1" pageScale="1" pageWidth="1169" pageHeight="827" math="0" shadow="0">
      <root>
        <mxCell id="0" />
        <mxCell id="1" parent="0" />
        <mxCell id="E5yIIu5KzH-er2fL6q-M-44" value="ПАРСІНГ СЕРВЕР" style="rounded=1;whiteSpace=wrap;html=1;shadow=0;glass=0;labelBackgroundColor=none;sketch=1;fontSize=30;strokeWidth=2;labelBorderColor=none;fillColor=#bac8d3;strokeColor=#23445d;" parent="1" vertex="1">
          <mxGeometry x="30" y="132.75" width="519.37" height="77.25" as="geometry" />
        </mxCell>
        <mxCell id="E5yIIu5KzH-er2fL6q-M-90" style="rounded=0;orthogonalLoop=1;jettySize=auto;html=1;fontSize=14;fontColor=default;startArrow=openThin;startFill=0;strokeColor=#808080;strokeWidth=2;fillColor=#000000;shape=link;" parent="1" source="UEzPUAAOIrF-is8g5C7q-112" target="E5yIIu5KzH-er2fL6q-M-82" edge="1">
          <mxGeometry relative="1" as="geometry" />
        </mxCell>
        <mxCell id="UoxV15uRkX_Niu28RtxY-37" value="&lt;span style=&quot;background-color: rgb(179 , 179 , 179)&quot;&gt;MREO API&lt;br&gt;&lt;/span&gt;" style="edgeLabel;html=1;align=center;verticalAlign=middle;resizable=0;points=[];fontSize=13;fontColor=#FFFFFF;rotation=0;" vertex="1" connectable="0" parent="E5yIIu5KzH-er2fL6q-M-90">
          <mxGeometry x="0.0936" y="-3" relative="1" as="geometry">
            <mxPoint as="offset" />
          </mxGeometry>
        </mxCell>
        <mxCell id="UEzPUAAOIrF-is8g5C7q-112" value="БД &lt;font style=&quot;font-size: 14px&quot;&gt;&lt;b&gt;МРЕО&lt;/b&gt;&lt;/font&gt;" style="outlineConnect=0;fontColor=#232F3E;gradientColor=#F54749;gradientDirection=north;fillColor=#C7131F;strokeColor=#ffffff;dashed=0;verticalLabelPosition=bottom;verticalAlign=top;align=center;html=1;fontSize=12;fontStyle=0;aspect=fixed;shape=mxgraph.aws4.resourceIcon;resIcon=mxgraph.aws4.cloud_directory;labelBackgroundColor=#ffffff;direction=east;" parent="1" vertex="1">
          <mxGeometry x="471.37" y="640" width="78" height="78" as="geometry" />
        </mxCell>
        <mxCell id="E5yIIu5KzH-er2fL6q-M-65" style="edgeStyle=orthogonalEdgeStyle;rounded=0;orthogonalLoop=1;jettySize=auto;html=1;fontSize=7;fontColor=default;startArrow=classic;startFill=1;strokeColor=#808080;strokeWidth=2;fillColor=#000000;" parent="1" source="UEzPUAAOIrF-is8g5C7q-114" target="E5yIIu5KzH-er2fL6q-M-60" edge="1">
          <mxGeometry relative="1" as="geometry">
            <Array as="points">
              <mxPoint x="215" y="440" />
              <mxPoint x="77" y="440" />
            </Array>
          </mxGeometry>
        </mxCell>
        <mxCell id="E5yIIu5KzH-er2fL6q-M-83" value="" style="edgeStyle=orthogonalEdgeStyle;rounded=0;orthogonalLoop=1;jettySize=auto;html=1;fontSize=7;fontColor=default;startArrow=oval;startFill=1;strokeColor=#808080;strokeWidth=2;fillColor=#000000;" parent="1" source="UEzPUAAOIrF-is8g5C7q-114" target="E5yIIu5KzH-er2fL6q-M-82" edge="1">
          <mxGeometry relative="1" as="geometry">
            <Array as="points">
              <mxPoint x="355" y="310" />
            </Array>
          </mxGeometry>
        </mxCell>
        <mxCell id="UoxV15uRkX_Niu28RtxY-38" style="edgeStyle=orthogonalEdgeStyle;rounded=0;orthogonalLoop=1;jettySize=auto;html=1;fontSize=13;fontColor=#FFFFFF;strokeColor=#999999;strokeWidth=2;startArrow=classic;startFill=1;" edge="1" parent="1" source="UEzPUAAOIrF-is8g5C7q-114" target="UEzPUAAOIrF-is8g5C7q-119">
          <mxGeometry relative="1" as="geometry">
            <Array as="points">
              <mxPoint x="-101" y="310" />
            </Array>
          </mxGeometry>
        </mxCell>
        <mxCell id="UEzPUAAOIrF-is8g5C7q-114" value="&lt;div&gt;API для парсерів&lt;/div&gt;&lt;div&gt;&lt;br&gt;&lt;/div&gt;" style="outlineConnect=0;fontColor=#232F3E;gradientColor=#945DF2;gradientDirection=north;fillColor=#5A30B5;strokeColor=#ffffff;dashed=0;verticalLabelPosition=bottom;verticalAlign=top;align=center;html=1;fontSize=12;fontStyle=0;aspect=fixed;shape=mxgraph.aws4.resourceIcon;resIcon=mxgraph.aws4.api_gateway;labelBackgroundColor=#ffffff;" parent="1" vertex="1">
          <mxGeometry x="178" y="284.75" width="70.5" height="70.5" as="geometry" />
        </mxCell>
        <mxCell id="UoxV15uRkX_Niu28RtxY-35" style="edgeStyle=orthogonalEdgeStyle;rounded=0;orthogonalLoop=1;jettySize=auto;html=1;fontSize=11;fontColor=#FFFFFF;strokeColor=#A50040;strokeWidth=2;fillColor=#d80073;startArrow=classic;startFill=1;" edge="1" parent="1" source="UEzPUAAOIrF-is8g5C7q-119" target="E5yIIu5KzH-er2fL6q-M-80">
          <mxGeometry relative="1" as="geometry">
            <Array as="points">
              <mxPoint x="280" y="510" />
            </Array>
          </mxGeometry>
        </mxCell>
        <mxCell id="UoxV15uRkX_Niu28RtxY-36" value="&lt;span style=&quot;background-color: rgb(153, 153, 153); font-size: 13px;&quot;&gt;carID&lt;/span&gt;" style="edgeLabel;html=1;align=center;verticalAlign=middle;resizable=0;points=[];fontSize=13;fontColor=#FFFFFF;" vertex="1" connectable="0" parent="UoxV15uRkX_Niu28RtxY-35">
          <mxGeometry x="-0.6914" y="-1" relative="1" as="geometry">
            <mxPoint x="180" y="-1" as="offset" />
          </mxGeometry>
        </mxCell>
        <mxCell id="UEzPUAAOIrF-is8g5C7q-119" value="&lt;div&gt;Загальна БД&lt;/div&gt;&lt;div&gt;(тренди та інша аналітика)&lt;/div&gt;" style="outlineConnect=0;fontColor=#232F3E;gradientColor=#4D72F3;gradientDirection=north;fillColor=#3334B9;strokeColor=#ffffff;dashed=0;verticalLabelPosition=bottom;verticalAlign=top;align=center;html=1;fontSize=12;fontStyle=0;aspect=fixed;shape=mxgraph.aws4.resourceIcon;resIcon=mxgraph.aws4.dynamodb;labelBackgroundColor=#ffffff;spacingTop=5;" parent="1" vertex="1">
          <mxGeometry x="-139.99999999999977" y="491.5" width="78" height="78" as="geometry" />
        </mxCell>
        <mxCell id="E5yIIu5KzH-er2fL6q-M-7" value="&lt;font color=&quot;#FFFFFF&quot;&gt;AUTORIA&lt;/font&gt;" style="rounded=0;whiteSpace=wrap;html=1;fillColor=#647687;strokeColor=#314354;fontStyle=1;fontColor=#ffffff;image=data:image/png,iVBORw0KGgoAAAANSUhEUgAAAgAAAAIACAYAAAD0eNT6AAAAGXRFWHRTb2Z0d2FyZQBBZG9iZSBJbWFnZVJlYWR5ccllPAAAL6BJREFUeNrs3QuwZHV9J/Ce4SXjKONSwugaZ0DFWmFALC1nETKTkGA5ENYHibJsASmxImO2IOWD+EgIUWTxUQ7ZYjSlRJiKARODyMJkg5LMqBBSpOQl2RIfMNEoj0IGRB6iYfvXtw/2XG7f2933/P/n0Z9P1c0MQe69fbrP+X3/7907DfGt3zl6RfePl/e/VvX/DOs7AJDftv6fN3e/dvT/vPmlf33tzib88ktqXPBX94v7uv6fq33WAGiAm/tf27tfV9Q1ENQqAPSL/uu7X6cMtPABoOmB4JJ+GLhLAPhl0V/RL/pnKPoAtNy2CAPdIHDx1AaAfms/iv6p3a8VPhMATJEYFrig+7WpqiGC7AGgX/jP7hd+AJj2IHBF9+sPcgeBbAGg39Ufhf9M7zcAVNsjsDRT8Y+if6fiDwBzKhrJd3Zr5usb3wPQfRExqe8THWv1AWAc27pfv5ty1UCyHoB+q/8mxR8Axha186ZuLT21MT0A/bH+Lyr8AFCKizsJJgmW2gPQ7/LX6geA8kQvwD/2a2z9AkC/m+IfO7bsBYCyvbwfAkprYJcSAPrF/7MdG/oAQCor+iHg1FoEgO4v8tl+8QcA0vtsGSFgUQGgX/xP9V4AQLNCwMQBQPEHgOaGgIkCQP8HKv4A0NAQMHYAGJjwBwDUIwSsTxoABrb2BQDq44vj7hMwcgDo7/AX6/wt9QOAelnR7wkYuUaP0wPwRcUfAGprrF76kQJA/2Cf9a4tANTaqaNOClwwABj3B4BG+US3dq8uowfAjH8AaI4Vo9TupQu0/qPr/+WuJQA0yvpuDX/9RAGgP5PwbNcQABrpE/OtCpivByCKv1n/ANBMq7tfZw77l0uGtP7jP7rTtQOARtvZ/TrgpX997c5RewB0/QNA860Y1guwROsfAKavF2Cp1j8ATF8vwNJZrf/4H73etQKAVjll3gDQL/5m/gNAu6yevS/A7ABwhmsEAO3vBXgqAPQn/9n1DwDa6fWDGwMt1foHgOkJAXMFgPWuCwC02n/bJQDo/geA6egBKIYBlmr9A8BUWT8YANa5HgAwFdbpAQCAae0B6I8FrHY9AGAqvLzoATD5DwCmSLfxv35pR/c/AEyb1REAVrkOADB9AWC16wAAU+UwAQAAps8KAQAAps/qpa4BAAgAAMAUEAAAQAAAAAQAAEAAAAAEAABAAAAABAAAQAAAAAQAAEAAAAAEAABAAAAABAAAQAAAAAQAAEAAAAAEAABAAAAAAQAAEAAAAAEAABAAAAABAAAQAAAAAQAAEAAAAAEAABAAAAABAAAQAACAxdvdJQBy2OO5K7tf+5f6PZ+4757u190uLggAQF09e/0xnX1POLnU73n/F7Z07v+bLS4uTMAQAAAIAACAAAAACAAAgAAAAAgAAIAAAAAIAACAAAAACAAAgAAAAAgAAIAAAAAIAACAAAAACAAAgAAAAAgAACAAAAACAADQVru7BA1Ob89c3nnGqhf1/r7X6hf1/rmwV/f/v9vAP4df/PThzuM7vvvUPz9x7z2dn993d+eJ++7pft3tgkLLxHNht2XLd3k+7PHcld2v/Z/2v33kX2952rPhse7z4j+6zw0EACou9HsffNhThX3vlx020fda/qrXDP13j3YfABEGHrn9lm5Q+E7n8bu+6+JDQ0Rhj+fCsv5zIor+OOZ7psSz4bHu8yD+jKAgFLTDkm/9ztFPugz1vZHjz7nSeg4RBuKGf/jG63pfTbDvb59c+ve8/2+21OZz8ez1x5T7Hndbeg9t//ssP3/Zyw6bOLjOV5gGW64p1OX9H9bCf/a61/aCfc7nRDQO4nPz8I3X6z0UAFisuIHj4Zj7Rh4nDEQI2Ln18lrf8Ad9/iulf8873vwbtXhtUUBfcPbHSy+g3z/nnZX9/Caoy/tfiB7B52x4Y6/w1+FZEZ+hB7ddM3KQpD4MAVSc3p+z4U2d5a88Ypfx+3r2Suzfe+jE10Pbr+m1iiR/yHkPruz1cD173TG1+r327vfs7HfK6Z0H/u7yzgPdRoIhAgGAIel9n+4NvKJb+OvY0h9FPIDiSxCAPM+M/U7ZWLvCP9fvue8JJ3ee87o39oJAnYdOEAAq8eK/uKI1ryUeSNF74WaHNKLHLYpq3XsI5woCMURxz+aPJJ+jwSLeK5eAMm72Vef/ea+LEli8uJfinnput+XfpOK/62vYvzdn5PnvOqexr0EAgBHEfIZV539q3mWGwMKi5Rz30rjL+OoqngkRZtryegQAGNIbEGk/HmDA+FZufE/3692tazFHb0CEAM8GAYDWP8Te7UaHicLzMa1+nfFsiGEN6sEkQJLd6MHaYFi4+P/KH398arrIY2Jj7GZ69+aPePP1ANDmEGDcDxT/2aKnI4Y7EABosXi4mQEMQ0Ly6dMbkiMERG8AAgAtbuHEQw7YVYyFT/uqGddAAKDl4gZfVvIhMNDs1u9rtX77ooFgDxEBgJYnfWBmk5/YN59+EeqvgCA/qwAaJo7hjL33H9/x3d6BG/HP4bH+Pw974MQ63N27f8Z4Y7TGc487xs+LnoCmHCsMqVS5M97g82OXIrxseecZ3Xt0r1UvquR3i+dDHHRkS3EBgL4o6LGPdhy3GTfupHtqxw0/c2BP97/f/svUnftQoujyFACYZnEP5Azf8Qx5+F+u7913o9570WBY/qojesMUOX/X2FI8fseiUYMAMJUt/Fg7/0i/6Kd8MMSxnfEVN3qk79RBII4MjYeL0wOb6RePPNwLoxM/bPo9UWV64r57Oj9vyOepd5xvt8jlKvz3XvLJbvG/buyjeeP+LJ4NxZHluTYoilMPv3/OO91sAsD0mEnn1090s5YhAkf87N5RnoknJkXLIh4sNDOcLubhHCGz7AIYn92mdBvH68/RvR731/1f2FLKsyTe89iw56Ftf9+bx5O6RyAaCTFE6QRBAUDRzyh+h/su2dy74Ytd/FKI3gYBgGkTrf/Urei4h3/4sbOTFM/4njvO+r3e5j2pX8f+3Z9x5++f5EMjALRPFNko/HXtBi+27k0VAqIFEa2gOoQeyNn6T138v/+n70w+fh69AY/cfkvSRkIME0VDwTbi6VkGmFm0fus+Bh433kPbr0n2/Z+xyvbAaP03rfgPPh+iIZPSPuuP8cERAKjKvd0bPFUrfe+DbQrE9FiReF5NdPvnnjkfDZmUjYS9K1iqLADAQKsiJhKlahHBtNgnYes/7tGqJszd258zlEqsPkAAoCIPJkr4ufYdgKrF5lepZv5H8a1yBUQxcTjZtXvlET5AAgBV3uA27oHFBYBUUo/DjyJ6H1INBURwclCQAECFHk3Qvbi7IQCmJQAkasXGfVmXtfIpeyEEAAGACqUY4zMEwLS0/lN1/9dp86NY1ZSqF8AwgABAhR7bYV9umMTeiY7AXsy5IKk8sPVv0xSoboCyGkAAoCI27IHJLEsUAOq4QU6EklQrAlJdRwQAgEa1XB9MuP6+jsFkbwEgGVsBN1Cso4+HS3ztMXDC2kJneUdC/49HZlr0j/X//sS9M6epOXwDypNqt8vePVzTXrlUz5C9Vr/YB0oAmO6CH6foFSdlTTqxaLBFMleqjqNVH7/rO53Hd3y38+jtt/TG/w0BwASt1kS7XcbhYXUV4SSeIWVP8o3v5/wQAWAqi/6KDW/KNms+fk589ZbenPDLmxoY//5NIYJ5ncXyxD0S7HwYPSp6KQWA1osWfuwdXpf1r2bgwmRhOoW6r8qJHsROggAws3eIACAAtFQU2v1O2WjCC7Thfk4wByC61+veDZ6qx3CP/ewdIgC0UIxt7XvCyZ3nJD4xDMh7X5ft5zU/RrwIKUkCgN1DBYA2tvqf/64/tTMeKP4LeqwB83GeSBRSPCMFgFZ59rrXdlZufLcLAS2TaglgsYS37mKYIlUIouSw6hLkt+9vn6z4A630uO3D9QAwt5Ub39Nt/R/jQgBjiU27ptVeq6xG0gPQcNHtr/gDk2jCJMBkhcqQggDQZLG+X7c/AALAlKXX57/rHBcCAAFgmqw8/d26sAAQAKZJdP3XZVtfoLmmeVvuVBsMCQAktf/G97gIwOIf1lPcizjNEyBTsgwwoZj1n3sHq9iEI9bhxq5hxcYhg2eIRyti8EGyrH/2gDMIgDJ4lggAdOXa3z+6x3Zu/dvecZkLHcYx+0jN+2e1MGIXswgJe61+cW/trdMAYTypjq21Fh4BoCFmimjaGzaK/X2XbC7tgRO9BPG9Br9fhIIX/8UV3lCo2G4NGAJI9cxrwjkIAgBPie7/lO7/wpbO/X+zJfnrqPvxo1BH0StX9vBfE3oAUp3a15RzEJrGJMBEUs78v3vzR7MUf2AyKSatRW9c3Y/FTdUD8LgeAAGgKeImTTX5L4r/Q9v/3kWGGkvVZV33OTnLEk0AfMIqAAGgKVLNgn30X29R/GFKewBSPltKCyir9AAIANPeA7Bfmta/bv+KHmo1aXXtfbDlVU2RqmDVeVOx+N1S7FWg+AsAjZKiGyxuglTLi9okxaTF3Za1dwMWn6lmXdcYWqzrMECq3gmfUQHAA8VNMFpQ2lF+a6EuD1zrwJvl0UT3bOoVRpPaJ9FR53oABIBGSZGEbYVZnd1rMvM6NmdCaE9VaBcbSlJtVfyoxo8AMPUtWyl4JCkODVlWg4lXM0vA9ve5apCHb7wu2Wehbr0A+6xP1/q3AkAAgBEDQPkPixgCqHr99fJXppn8ZaOntKE91fXd97dPrs3rjICcavz/4X+5zgdJAIBqW7TLX3VEtQEg0c83tyRxL8C/XJ/k+0ZvUK6zRhby3FM2JvveD227xodIAMChPNX1AIQVG95U2WuK3ocUy7/acMb6spqvi39g698m+977nnBy5T1TEUJS7v6n+18AoFPdBLCVG9+jB6Df4qpq3DVVd28bJlctrfkSzZkiliZoxVyAlRvfXWmjJEJIuvB0uQe/ANDEVmj5N/zyV+bvgo7i/+wazjiuqrBFIV6a+US2aOGmeg8euT1vAHg0wc+LIrS05qfk7UzYCxBj71WE9F74OP09ya59zJ0w/i8ANFKqg0BytUDjZz3/Xec0sviHVLOvoxdgv4TjnXO9D/snfLi3ZXlVqgmSZXlw+zVJJ1vGfZqzdyo+l7/yxx9POiwZcydMUBUA9ABkboHGTR03d523HF04AFyf7HvnetgWD9lUh0q1aXy1TjPih7VmH/i7tN3ZMRTw3AzhNEfxD7Y9FwAa6/G7vtPIFmhM6Mlxc6cPYHcnXd8eD9uURSfHQ7ZNh0rFfVH3uSoxnp26RRv3b/TcpWokxOdx1fl/nvz58ND2a0z+EwCaK+XSqmiBlv2wi3HmuLGjBVH38dS6FLiY/PQrZ3+89FnYxXuR+iGbspekyvsixec33uPFft8cvQAheu4O/N9/WWovVbz2CLzxuUzVIzV4nbT+81nyrd85+kmXoXwv/osrkhbTGL+9e/NHF5WU42ERrYYqjhi9482/kTbZdq99PAhzBJposcRDqynvRfy+d2/+SCvvixh+i/ciJpBN2uKOEBYBLFbexPsRRe8H57xz0QEm52dy8FpMGobj94zP5HNe98Zsv/P9X9giAAgAzZdrBn08zGOt8ahd3vFgi9ZBFJzUab7KANBrpXdbLSmXKc0W70EUnpjt/tiO+XeBi1ZlvBfxPhRFJpcyitmkotckV+CMkByvM96Hue6PKGpFT0sU/VhSOKznpaxrFu93dNPnNDOj/vreqo/Hd3xn3mdFEX7iPco9DygCy52/f5LikdHuLkEaMRM9RwCYmZR2TO/mibkHj/cLT9zksx9wcZpcW7r4RxHjrjlbLzOtxu71PmHXUPAfj/wyCMTBQlUGr/hcVrn7X/zsXAFg74Rb1C7m+sdXzuI6s4LomF2eR/G8GFytVIdnwz0V9UoJACS50eMmy/Wwj58TX02evZ+i5RPjrjl7AeYKBXVy3yWfrPTnO3yo07n7kx/tHBg9DhUW3OJ5URfR9W9b6vxMAkwo5QYgjPhg6Y3N3+NC9B+yVc+ujmA87eu74/X/8GNn+0D2xVCNcX8BoHVSbwDCaH74sT+e+msQLe+6PGRTHZDTJNHave+SzT6X3c/lvwtDAkBbk/69FXe5MvOQmeaHbd1anA/oGetfh8t7k3in+XN59yc/opEkALRXLMF51NjW0+Q+xWyaH7ZR/Ou0sUoEMvfEjFiOOY2fyyj63//Td5oTIgBMw03+0can3LIfUlVMQIqH7bQVnvjs1XFyVfxeTGcIUPwFgKkSra+mDgXEzRproB/a1o6tY2O8cVpCQBTZum75G/dETEpkukJATMhV/AWAqRMP4qadb10k9WhBtmUmfe81RaBp8cO2N7Za4+Jf6O3Yd6MjXwdDQJt7RiJ47zjr9xR/AWA6xUS0phSeuEl3nPX2p27Wth3OEQ/bNrZAixZWUw77iTXxCsKuDYUokm1buhr3WgRvE/4EgKlP+XXvCYiQEkWk7SdyRQs0hjfa8rCN1nTTWljGg4eF799rXI/hsEAa95h1/vW02/88+MA/cRnyeuSWG3s3RmzPu2TPPWv1MP7Rn53b+fGXLus8+cTPnvbvlx18WGmz92eO/Ky+8MbvEL/Lkj327Oz9kv/S2IfsPd2WdLSy5nrf6i5+55/807bO7iv+U22Pos79eY1rEs+J6DaPQ4ni2jRJPEt+fOVlvR6en/3w+x76AgC7pPwd3+38tHuD7/2Sl9Xi5o4H3A/Oe++8LbF91r+2dQFg8GEbB/ns9Z9fmH2JYhkP2aa3oOM9iB6MuC+eedirahWMq/y8xs988CtX9f6MILBbA87yiGv1owvO7b2fTQykAgBZ/GLnA72bOw6LidZnFQ+9aGHEOvEHv3zVgjdrnDOwZ7dAlhWAHvv2/6vd+xEPr7gme+y3srZBIIrBzr+7vNdb88jNN7bqIRutxZ3de6JuvQFVB9a4X3Zuvbx/vsjK2vUIRBiNXpx4lsQ8hsEDsKgvxwHXRHH2dhzVm2ONfKTzeKCMs0a8zON1m3DudzxoV3Tfk33WHVOLUxRnTpK7vjET/Mq4/vGZW/7KIyq//lUeoTyXCEfP2fCmyq9N9DzFXIXoPTPBTwCgBNHSjqM7l5V8YlhxXv1D266ZaILfHiUeZRstmSZNMoz34pnd96U4Lz1Xq6o4x32aH7BxDyx/5Wu698URpd8TC90vUfSjR6jOyxXjeRHHHsefORoPxfWIMNr2icICAJUXnr0PPmym8Ix5ZncU2cfv+k7/hnWzllmQntF9L+J9ifckxmUXe+58cT57b8+Fe7vv247vmBk/zz0RISzGxKPgLfbaFxtDFde+eB+a2msyc21eNBOWli1fVGB9tL8HSDxHikCEAEDFD8DZBWmwdfiLRx5WPCoSD9vdlj09pO3efTD/fI4A9tiO7+o6TXRfzHfdm9YDVVZoHeX6eH4IAABAm4OhSwAAAgAAIAAAAAIAACAAAAACAAAgAAAAAgAAIAAAAAIAACAAAAACAAAgAAAAAgAAIAAAAAIAACAAAAACAAAIAACAAAAACAAAgAAAAAgAAIAAAAAIAACAAAAACAAAgAAAAAgAAIAAAAAIAACAAAAACAAAgAAAAAgAACAAAAACAAAgAAAAAgAAIAAAAAIAACAAAAACAAAgAAAAAgAAIAAAAAIAACAAAAACAAAgAAAAAgAAIAAAgAAAAAgAAIAAAAAIAACAAAAACAAAgAAAAAgAAIAAAAAIAACAAAAACAAAgAAAAAgAAIAAAAAIAADAgN2XvewwVwEApsySJ7tcBgCYLoYAAEAAAAAEAABAAAAABAAAQAAAAAQAAEAAAAAEAABAAAAABAAAQAAAAAQAAEAAAAAEAABAAAAABAAAQAAAAAEAAJgSS1638X1PugwAMF12/9o3vukqAMCUMQQAAAIAACAAAAACAAAgAAAAAgAAIAAAAAIAACAAAAACAAAgAAAAAgAAIAAAAAIAACAAAAACAAAgAAAAAgAACAAAgAAAAAgAAIAAAAAIAACAAAAACAAAgAAAAAgAAIAAAAAIAACAAAAACAAAgAAAAAgAAIAAAAAIAAAgAAAAAgAAIAAAAAIAACAAAAACAAAgAAAAAgAAIAAA5dln+TM7123Z1Dn0JQe4GIAAANPiuHWv7hX/rZvPFQIAAQCmxVGHr3mqJyBCwEnH/rqLAggA0PoA8IpDnvp7hIBPfeCMqQ8B0ROy8c2/1Xnh8/bzAYEBu7sE0J5CN1eRixAQPQNv/9AFrb8GEXoiBB160IGdIw8/pPf3r33jm50/3PSZzr/96F4fEhAAoH2OHGj9z1b0ApzVLYQPPvzTVoWeeN2HvuTAXrEfDEBR8De84/29AAAIANBax/3q2nn/fYSANQcd0Nmw8f2NDAFzte7nEoX/wxdd2vnc1f/gQwHzWLJ87fFPugzQfD/5py+N9L+79dt3dk7/4AW9P5vaup9LhJrNn/8/nQsvu7JVvRygBwCYp/X/6rEKa6wQiJ6AuoSAKO7xex31ijWdNb0/Dxnrv4/WftuGN0AAABYUhXMcxTLBKJpVdJVHgV/TL/jDJi+O4qqv/nPvNZjgBwIA6AEYIwTECoGiBV3X1v1cYmLfeRddaoIfCAAwvaLALmaNe9nLBMtq3c/FBD8QAICBgrtYky4TTNG6n0v8Th/+zKW9SX6AAAB0Fl7+N04IWGiZYMrW/TDnXXSZmf0gAAApegAKxQqBWCa4s1twc7Tuh4lu/ujuN8EPBABgjoIdk/nK/p5xpHBVTPADAQBYwHHr1rbmtURLPyYiKvwgAAALOHaC5X91E2P7Ve1HAAIA0DjR9R/d9U0u/LbuBQEAGFPuSXllsnUvCADAmK3+KPwxM/+4Bnb/x/h+jPOb2Q8CADBiwZ85Ga+ZXf5x6NAfdlv8JviBAAAMURT8mODX5DH+YOteEACABQr+kYcf0uhx/UHFBL/YvhcQAICWFvxBReE3wQ8EAFDwW1zwC7buBQEAFPwpKPiDYpKfZX3QLEuWrz3+SZcBFidm68dpeu877cTS9+ZvUgiY7yRBQACA1oeBQw86oP/ngZ0Xrtyvd2xu8f9rs+j+P/GsD/fCACAAAAOKYYEYJohAEEftrnreTEhog+gBiJ6ANoSAWIb53tNO7Lz9gxfo2UAAANIWnH2eNRMKVjxreW8eQfxzE/cDiB3/mrz+PwLZ9Vs29UJabGC04R3v9wFFAACqKUgRBC49/31CQGJR9LduPneX4BWvI14PtMVSlwCaIcbXozegST71gTN6X00v/iEmeW5882/5ICIAAPkd96trG/c7R+GMENCECZDDin8hVnm0Za4GCADQoJZpihMAY3Jb6kN6IgREYa1zCFio+Bf/m6b1aMAwNgKCprT+15Vf/Gcfz1ssYYxW7qrn7d+bjFicSLhYUVijwJ7+wQtqt0JglOJfiGsRQeyqr/6zDyWNZhIgNERM/iurByBa/bG0bZwiVlY4qNsywSKYjNM7Ea/hiJPPtO0xAgCQvoX6gy//VSnfK8VhPeOGg0kCSArF/IRJRIB5TTcEQFMZAoAGKKP7PwpWqu73+eYRDAsH0aNR1TLB+Pnnn3laLwAspucgvkecgQACAJAmACxi9n8U52jxR8u/CjkmGY4jeiWi1V/GbP5YFnjrt7/X6A2PmF6GAKDmFtP9H13s0UI1Vj1zHWMZX9lr+SPgHPyGt9kqGD0AQMmt/wm6/6PgR/d6nVreVeqd1PjWNGv4i+EEuwQiAADlBoAxu//Pu+iyzoWXXalFmrjwz/45V331BksDaRRDAFBj43T/R2v/Dzd9ZuqP4o3JeScde3RvyWTOXfssDUQPAFBe63+E7v+qJ/nVQRT6aOnHBL+qtuotdgl0aiACALBoJ204et5/H7PPY5LfNHf3R0u/LickRgCJSYbTHMYQAIASWrXDNtKp+yS/6IY/srdl7tqnft+UQSW+b13OGYgJgV/vvi/TPhRD/ZkDADUVLckoJrPFJL/o8q9bWImW+FGvWNMLLXMV44Pf+Lak4+Pxc+PnhyMPP6S3+VBVoSBeZ8wHMBETPQDA2GIi26DZB/fUoXfiqMPXLDjuHkUwx14EcX1m94hEKPnUH+U/ijiuR/zcE8/6sA8yegCA8QrI7Zd/+qkCWvW++cW+/tHCHnV2fRTjzZ+/svdnlS3hSQ77KUsEH/MB0AMAjKw49S/FwT3j/A5R8GMsf5RjcgdVtcf/XKocizcfAAEAGMuKZy3vLSfLOcmvaOHH+Pm4R/wOisJft73xq5wgGCsUzAdAAABGkmOSXzFTf76Je5OIHfH4JfMBEACAygvRUf2leWUW/Nnq1tKdPV8hJiPm3iwohlPsD4AAAGQt+KPM1G+zVbNe9+e2/sOihzkmYT4AAgCQTNHCn2TiXlnWdH9u3U8hjO7427/46exzA8wHoE6WugTQnuK/9cJze13NVRX/cOhLDqzVdZmryBdLK3Mr5gOAAAAkLXRVtMTrNtRw6EG7BpJb7/he78/YV6GKMfliPgBUzRAAtEQUtNhuN8a8b73jzl26mYdtK5ym4B5Q6+s0eF1itUUVwyXmA6AHAChVzHCfa+e9aOnGGQI5RE9EnXoB1sxT3OM6nV7BUECI+QB1OcAIAQBosQsvuzLb5LMq5yDMFUjmE63w2LI3N/MBEACALKL45xrzLk7lq6MYHpktrksV8yXMB0AAALL4y6uvzfJz1tSpB+BZz3xaEJpLLA2sYnlezAeoU48JAgBQsnjIz+y3P/NVxUM/5gjkmHiWe5Odha77KKpaGhjMB6AKVgFAGa3M7sM7Zr9HyzcO8ok/iyN0F9I7PGfrtdm6oD939bWdQzOsCIjXXvcNgWYrlgbm7pZ3XgACADRAPKyjVRnry2NL2Sj8i2m9nXTsr/e+ovDkmIwWRS7HksA67Ag4+32JHpCFVLU00HkBCABQw4KfY0/9ePhHwXr7h9J2Q0cRzHEgTkwErLqYzd6TYMcIAaBYGnjdlk3Zf1/7AyAAQMWtxsFT83KuaY+egChAqXsCohcgdTd3neYBjKtYGphr86RBzgsgF5MAUfC7BT+6X+NhH62+H3z5r3oP4SjGVWxoE4U5dfH82jduy3Jdq57dvpihmaqWBtofAD0AkLh1Gl3UVRwLO4r3vvXEbvF5f9IegGhhpp55HmPpVXZnzz4HYJxWdVybmJxZxefDfAAEACirEHRbokf2i348XOdTLJWLVvJtvT+/2WuVRa9ArhZtsVQwZQv0qu3/3OvlSPs61tSqiN22QBgpPifF8E+VzAdAAIAJRMGOQh8FKB7kC7V0o2UYBXHz56+c84EboWDDxvd3tm4+N1sIOGnD0UkDwNduui1DAKi2iI6yIVHxOYk/63aS4Sf/6IzOa04+0w2NAADzFfxJZ+pHcR9l0lXu2eHHrXt1p/OhdN8/Ak/nA2lfQzEPoKpW7FzBr/isRCt/vt6g+J2jBR49QfH367vve+7NeuLaRU9AFWcVIABALRUz9Xvj+Itcs12Mh48iCkFs3JO65Tz4GlP1AsRrjteTukej6nkAg2Jc/b1vfcvQIBifhSj4c52oWPQA5Q4B8Ttf9dUbGrepEgIAlKZotZW9SUs8XMcRwwQ5AsDMa16T9MF/dbfgpQ4AVc4DmD0EMVi8i6OTYygk/lxok6AIMRECqtgfIOafHPyGt1kaiADAdIjCdNy6tbWbqR+FIEfLObxwZdox6au23zC0RZyqCOcyV0s9WvhFa3qUXQHneu9jo6ZPfeCM7K8leh/MB0AAoLUFv5ipP8rEvSrlaDn3AkDiSWlR0FIvB0w9lDH083TQ09+f6L1Z7O/RGwLacHT2YBOftwgeqXeKZHrYCIhKRXGIh1psvhNdqzHhKSZm5Sz+kxxdGy3ntshRmCPU5ZbySOKqjg6Ooaf3nXaiBwcCAM0Xrah4qFXZ2o/T+yZtOVfRii0/AKTfFTCGcXJb9bz9k33veO+rOrkvhmxyn1aIAABJHqRFIb21v+lO7q7iSYtTbxldYrfekX72/Nez9ADkH9I5Mvl2yt+sbHJj9JTlnodA+5gDQKXiIfqC3/zvT2/5vuSAbEuuJm1l3/rt73VO6qRdDTDJRLXxX8edmU4HPKQ3CS+HYecQlP0aY31+FUcHh+KsipgTkONzgh4AyKI4ja3KYlGHlnOEjFxBLH0vQL55AMMm6KUYFoiJhVWJ13n75Z/u/OSfvrTLV/QO1HkSLQIAzCtmW+caDlgzQS9A6nkA8b3jGmQJADdlmAeQcdZ8zrAR71HdWuCxi+Q+zxIAEABosHE36Zm4YBw+WcFIOUb/4c9cmm2meY6gFb0suVqlw7b4TbUy4HNb/6HyeyUCacxJ2PCO9/eG1QwLIADQ+F6AXC2mSXz9pjSFM/cEsygWOQpGjrXzMS4+bKw/1c//y6uvzX5vxPsVn5FYjRAFPzYJimEzWwYzKpMAqbVc+9VPemjNjh/dk6QlV8USs5igl3p5WXTNp54ION8BP/E+x2ssO1wVASrlRMpxty4GAYDGi8l2OWZZT3JoTdkP4WK/+So2mYn9AFIHgCjOqSd3nnTs0fP++9hIJz5TdTmgaL7w+7X+aYRN+H0RAKB0n7v62iwbn0xyaE2Z3a3xs3OO+6d8LcMU3fOpWq/xvRcKi8W++hG0yiqq4x5BPd97EPNeFHwEAOjk2a++eIhXVXjPu+jSysducw23xHVONbfjfyzQ+k8RAuJ7/a8zT5v4s331wBHEIADAHEVyvrHdMkw6D2BS0Qr+cLfw55roOIocwy1xpHOq13zShl8f6/2OEHDEyWdO3CMRrf44qnfUaxafra/3u/XjM+14XwQAWEB0i6YOAGGSeQCTtLSju//Cy66sXQHIMQ8gVU/LJN3wEQKu37KpN+lynBZ4/Jz3vfXE3m58C4U8E/cQAGAxASD23f9A+p8z7jyAcUJJFPsY44/Wb11bfjm6oVMdD7zxzcdP/PtsvfDc3vsSu/otFACj6A/bh39w4l6sdlDwEQCghFZzrvHpcVqB5y8w9lsUhJjIOMryt/ieESqqKh7F75t6PkQErTIDQHHdFiMKe3zF5+y2O+7s/Nvd9/aWeUb4HAxsMYSxSzjtj+GbuIcAAInEZKm67AcQhSKK/1wTE6NYRNGIYYtR17xH8Yrla0URi6VqB7/hbZX0FNzWfe2pA8Cx3dcZvSFlie74ssT7P/g5e/DMn+5yYNV53d/7tt7JlSbuIQBAFvHAjbPQUxs2DyCKYrT+okjPHmuepOgXQSKK1+zvF8EidiesYoJgjgOIosCWtRwwvs9CY/GL6RGZ/R7EZ0NLHwEAsgaAb2ZaDjgzDyAKfvz9yMMPmbNFXMzojqI/Tkswfv93vOX43mS7+V7LSRuOriQA3HZHnuJW1nLAYePxkyom7hXvq5n6CABQA9HKTtXaK0QLP45UXciqbsvztm4B36f/tVChKHoQ4vcfJcQUs9pzzwXIte9CGcsB41oudrjCTH2m1ZLla49/0mWgKeabgZ3S4OS4YYWxVzh/8tPe+HBRQOP0uTiWddK5C/Ez43S33GJWfI6NkWJsfdIWdlzTWMc/blAxUx/0ANBAuSZdDduHPbrth838L4p8mYVzptfg1ckP0JktTjnMEQBiKGSSyYBxTT71R2eMVPztqQ8CAC2Q49S1Xmv+jrlP5JuZG7Amy6ZEhQgcuceiU5xyOJeY1BlH6Y7aCh91A564XhFizNSH4QwB0DhREHMcDjSsezpanbd/8dPJx8gHRQ9AziOCo9Defvmns/ysUU9AnK/Lf9IJmaAHABokx3a1IbrA5+p6j0IVxTjGyXOJHocU59gPk3NcPAp7bMfbm4B398zPjZUXq/q9PHF8cLwPx61b+1Txt6c+CABMZQDI08KLWerDxt7jd4hinCOIFKLnI+cYdo6dFwd7HIZ16xfDPTFXIAp+DM8o+LB4S10CmqbYFjhHD8B8omWae0LZJ0ec+FaGXPsBDOuBiCWC0dMy2OuhtQ96AJhyOY6tjZbnQuvwT//gBRMtRZtUvOaY/Z5jPkDRHZ8r1MUeD9biQz677fmCl/6Jy0DTPGPPPTon/OZRWVqiN95+x9B/f8+Pd3Ye+9nPOr+59hXZXvtBq17QWfW8/bMsDYzzCVIV/K/ccFPnoi/+386fbN7SOWvTRb3XU+yhAOgBgDnlmgcwyvHAVSwNLMbL3/6hCxr1nsXSvKu232AtPggAMHkLMs+xtaN9/7d/8ILsSwNTh4A1ixxiiSJ/df+oXEvzQACA0uTYrW7U44GrWBpYhIDYajgCSJld5/G6x+3+tzQPmsUcABot1Rj1oHt/vHOkFmzMF1jxrOWdVx3y0qzXIOYE/MZ/fUXnKzd8o5SiG6Hqsx9894KTLOP1xrj95r++shtA/qw3FBK/wx07/r3z+M+e8OGEmrMTII02yql9izXugTzXbdmUbf387F6I6AmYZHJgscVucQLhsO8/eEyumfogAEBlLj3/fVkm341zal0U0NjZLud8gEGxfj72KBinN+AHX/6rp/2+DtGBdjMHgEaL4pQjABy37tUjn10fLeMowFUcWxxiXkDx+0Zrfdfr9c15exBilz2H6IAeAKi96GqPLvccrepxZ9vn6p0YRwSTXOcJAPVmK2AaLVe3dLSoxxXj8XUbJzczHxAAaI0cO+IVywHHLbZVb9RT7Kkfv0fMYxh1GANoP3MAaLzYPjbPPIC1Y/c4xDj6eRdd1nnvW9+SrYVvT31AAGAqxIS1HAU2zqifRBxje2w3oKRYGmimPiAAMLVuzXRsbayRj6GAScbRY5fAspYG2lMfEACg3wqOQphj851xlgMOWszSQHvqAwIADBHd3zkCQOyWN+lEuvjvjvvVtQvOV7CnPiAAwMit5O9l+Tm9LXNPO7E3rj+J6AUohhIGewd64/g33dabwKfgAwIAjChn13hMONzxo3smHgqI+QBHvWJN73uYqQ9UxU6AtEbuQ3gGQ8eq5+3X6x2IXfailQ9QdzYCojW+nnmCXHTlF1/FCXqxDz9AExgCoDVyzQOY+2fPTNy78PNXeiMAAQByyjmWbqY+IADAlISLYqa+iXuAAAAKPoAAAFWKpXWTGtxTP04XVPABAQAaIJb/bXzzb01U8B2iAwgA0DCxo9473nJ8r/gvdNCOQ3QABABa4PwzT5u31V8UfIfoAAgAtERsvDO7+BdL86766g0KPoAAQBvFJL3zLrpspvDf8T1r8QHG5CwAAJg+d8VZAHe5DgAgAAAA7bZTAACA6XNLBIAdrgMATJXeEMA21wEApi8A3Ow6AMD0ePiGK7ct7f6fnR3zAABgWmyL/7N08B8AgNa7eTAAbHc9AGAqbNcDAADTZ9tTAeDhG668q2MyIAC03RX9uX9P9QCES1wXAGi1LxV/GQwAV7guANDuHoCnBQDDAADQ7uJfdP/P7gEIF7g+ANBKuwz1L52ja2CnawQArXJXt/V/xdAA0O8auNh1AoD2tv7n6gEIhgEAoD2icb9pwQDQnwyoFwAA2uGCwcl/8/UAhHNcLwBoZ+t/aADo9wJsct0AoH2t//l6AIpeACsCAKCZ5m3MDw0A/cRgKAAAmukPhrX+F+oBiBAQyWGbawgAjXLF7HX/YwWAIkG4jgDQGDtHqd0LBoBugrhZCACAxvjd/mT+xQWAfggwFAAA9XfxQl3/YwWAvjd0ZmYUAgD1M1aP/cgBoD+TMEKApYEAUC9Rm393vln/i+kBMB8AAOrpDf0aPbKl4/6E7g+4OFKGaw0AtRAt/23j/ke7TfKTfvaDb9285wteuqL717WuOwBUWvwvnuQ/XDrpT+z+wBgKuNi1B4BmFf9FBYB+CIihAIcGAUCDiv+iA8BAT4A5AQDQkOIfdivjN+nPCdjR/ev67tczvDcAULpY4ve6UTf6Sd4DMNATEGnk1zo2CwKAssUSv1+bZLZ/8gDQDwHxCx7e/brCewUApbi4X/xvLvObLkn12y5fe/yZ3T/O7n6t8N4BwNh6p/qVMd6fvAdgVm/Apn5vwDbvIQCMJWrn4amKf9IegFm9Aad2//iE3gAAmNdd/VZ/8qH0pTleTT/BHND9Osd7CwBPs7NfIw/PUfyz9QDM6g1Y3ZmZG3Cq9xsAhb9zQfdr0zgn+TUyAMwKAhECzugYGgBA4c9qSR2uQn+OwCmdmY2EAKCtonv/Sykn9zUqAMzqFXh9Pwy83OcEgBbYFkU/in+38N9Vl19qSV2vVjcMrOiHgXX9MCAQANAEN/eL/vb4s6ou/sYGgCGBoAgCK/rBIKz3WQMgs539Qt/pF/reP5e5VW9q/1+AAQAcbn/2C8MdFAAAAABJRU5ErkJggg==;" parent="1" vertex="1">
          <mxGeometry x="48.5" y="46" width="120" height="46.5" as="geometry" />
        </mxCell>
        <mxCell id="E5yIIu5KzH-er2fL6q-M-9" value="RST" style="rounded=0;whiteSpace=wrap;html=1;fillColor=#647687;strokeColor=#314354;fontColor=#ffffff;fontStyle=1;image=data:image/png,iVBORw0KGgoAAAANSUhEUgAAA8gAAAH4CAIAAAAZ1VPRAAAACXBIWXMAAAsTAAALEwEAmpwYAAAgAElEQVR4nOydB3gUVduGQbBT0pNN2U12QxJ6BymCdAELVhDsvYMolg8V628XURR7V4rls3cQsSKWz0oRRIoI7Oxs77sz/zlzZiZLJomU3ezuzHNf7xVD3Gz2tJl7zrxzTisRAAAAAAAAsM+0SvcHAAAAAAAAQA9ArAEAAAAAAEgCEGsAAAAAAACSAMQaAAAAAACAJACxBgAAAAAAIAlArAEAAAAAAEgCEGsAAAAAAACSAMQaAAAAAACAJACxBgAAAAAAIAlArAEAAAAAAEgCEGsAAAAAAACSAMQaAAAAAACAJACxBgAAAAAAIAlArAEAAAAAAEgCEGsAAAAAAACSAMQaAAAAAACAJACxBgAAAAAAIAlArAEAAAAAAEgCEGsAAAAAAACSAMQaAAAAAACAJACxBgAAAAAAIAlArAEAAAAAAEgCEGsAAAAAAACSAMQaAAAAAACAJACxBgAAAAAAIAlArAEAAAAAAEgCEGsAAAAAAACSAMQaAAAAAACAJACxBgAAAAAAIAlArAEAAAAAAEgCEGsAAAAAAACSAMQaAAAAAACAJACxBgAAAAAAIAlArAEAAAAAAEgCEGsAAAAAAACSAMQaAAAAAACAJACxBgAAAAAAIAlArAEAAAAAAEgCEGsAAAAAAACSAMQaAAAAAACAJACxBgAAAAAAIAlArAEAAAAAAEgCEGsAAAAAAACSAMQaAAAAAACAJACxBgAAAAAAIAlArAEAAAAAAEgCEGsAAAAAAACSAMQaAAAAAACAJACxBgAAAAAAIAlArAEAAAAAAEgCEGsAAAAAAACSAMQaAAAAAACAJACxBgAAAAAAIAlArAEAAAAAAEgCEGsAAAAAAACSAMQaAAAAAACAJACxBgAAAAAAIAlArAEAAAAAAEgCEGsAAAAAAACSAMQaAAAAAACAJACxBgAAAAAAIAlArAEAAAAAAEgCEGsAAAAAAACSAMQaAAAAAACAJACxBgAAAAAAIAlArAEAAAAA9E88Ho+RiMWiCZB/kp+n+6PpB4g1AAAAAEB6iEQiYQXyvSAI//orxIZDoZD6W//6K+QFzKGbf8/mXwB2E4g1AAAAAIA+SdRul8v1++rVny5fvnTZMiWW/vzzLxznEBp7PdgLINYAAAAAAGkgGo3eeOOcqaeeetY550yZOnXOTTd5vV6xabtlk8oPL1hw3Iknkl+ZdtppF1x00bZ//mn0V+LxOPuhz+d77vnnzzj77EGDh1ht1e06dDjk0HZqmCur+vYfMHXatJdffpm9fywWS2mp9Q3EGgAAAACgRWHKGwqFunTt1qpVq7Zt25KvvXr12rFjhyg5caO/FQ6HydcpU6aQF++///7ka4cOHX5fvVr7K+z9Y7How488bK3utP+BB7aSaN2m7YEHH6LG/gce1Gq/NvTnrVvv13b/AYcd9tlnnzXzAcC/ArEGAAAAAEgDRJQHDRnaZv8D2nfMIYI75PDDOY4Tm56xZmJ9+hlnUqXOySVaXGwqXbduXYNfYd/zTv6440+g0rzffuSVh7Rrf8ih7dq03b9VPa3bHHDgwYe2Y0Elu1WrQ9u1++8bbzbzGUDzQKwBAAAAANIAEeUBAw8j5ku8lkjtYYMG745YTzv1NPJiIsqt27QtKCpau6tYCxLkm8lTTiEvYzPTBxx0MNFo8s8uXbtNOu64o44++thJk0aOHl1UYpLN+6CDyWvIK8m/zJVVW7ZsaeZjgGaAWAMAAAAApIFUiDXLk378iSfIaw4+5FCqy8SqW7eedtppq1Z9x3EO8ibBYJB89Xq927dvX7hwYfeevVrt14a8cv8DDzrokEPJL94wZ44orVjSItWgKyDWAAAAAABpIOlizb5yDsfAww6jYn1oO2muutV1s2eLjWVOx+P09R63Z/SYsWx6m32So485VpSeYsSk9Z4CsQYAAAAASANJF2u2oMfSpcvIex50yKHkNfu13b9P336hUEhUskQawH7lyy+/7NAxh7yYzVj36dd/586dIp5i3HMg1gAAAAAAaSBFM9a33nY7eUGbtm3btKErfjz9zLNis4rM/petulOrVq0lsW5d3alm3R9/iFh6b8+BWAMAAAAApIFU5FgTS/5m5cr5Dz88+/rrT5k2bcLEo9av3yA2IdZs0pr9r2OOnUTeVhbrmpo/INZ7BcQaAAAAACANpEKsGxCNxpgcxyViEo0ues3W5oNY7yMQawAAAACANJAisSbeHJUgr2ffNOrH5Ic+n++vvzb99403LrjwwryCwjYHHAix3kcg1gAAAAAAaSClM9ZqjocoqbbL5Vq9es03K1d+8MGHCx59dNY115x40kmdausOOOjg/eiuMXTnxf0PPIgtZQ2x3msg1gAAAAAAaSB1Yq1a9datWx+a//CZZ519+PDhpeUVBx50UOLOi0Sm1b3NWUCs9xGINQAAAABAGkiRWLPvXS73nJtuMpWVt23blnl0G2k1vQ45uSTad+h4wEEHt27dhhn2AQcdQv4XxHrfgVgDAAAAAKSBVIg1U+HVq1cPGjKUbVdOXPnQdu3bSSbNNjZnkD9qqaoaPHToRRdf8v7770+YOLF+uT2I9d4CsQYAAAAASANJF2uW/mG32/sP6E+X+Di0HbFqOjPdhk5a5+blDxw0+OQpU2Zdfc28Bx98551316xZo+ZhTzrueKwKsu9ArAEAAAAA0kADsR40ZAjncIj7vEHMzbfeyl4gp3a03q93n77PPvfsr7/9tnPnzgauTMQ6EomQb0aPGQOx3ncg1gAAAAAAaYCI8sDDBili3bpL125btmwRm97MhWkuW3BaK9bMqh0OR1GJqc3+BygJ063OO/8Cn88v7pouQmQ6Go2SP6T+0FJlRSrIvgOxBgAAAABIA0Ss+/brT8Sa6CxR4YLCot9++11sQqzZD3mnk7q4lCHdQKzZC9586+1W+7U54KCDqVXv18bWqWbTpk2ipMhx5tGa9UPI1x3bd5SYysjrIdb7CMQaAAAAACDJCLvS1GsmTzmFJWC0PeDADjm5P//yi9iEWEclx/3yyy875uYRCyfe3KhYPzBvHhNrll5yxplniQnz2Y28bTRKvj7/wov7H3hQW2wQs89ArAEAAAAA0sNFF19M9JdYMvPg115/XWxCZ1km9Ozrr2fT1eyRRK1Y3//A3Fat91PF+qxzzhGbFmu2yTl555GjRjO/V5bbq/1j/Xr6SRpTfNAMEGsAAAAAgCTj9Xo9Cm63OxQKNXgBM9077ryTGS1bC2/osGFsCjmegKrFb775Jnskkby4KbF+6qmnyc/Ja6S551YDDxvEVhohb5s4g66+M/lfs2ffwOReSsumGzHmFxatXLlSxIz1ngOxBgAAAABIGsxWJx51VI9evfoPJGY7qKau7r7754q7LvfBnHXZsmVMrJkuE7eeNevqYDAoJiz0wb556umnc/PypacSD2x7wIFasWYvW71mTeu2bcn/VR9enPvAPLGxrRnJV7/fP/PKK4lJk9ern4FJ+SeffCIqiSJg94FYAwAAAAAkDeas5eXldH+W1q3ZxofTZ8wQG98f0TVkyBCW3aGqcN/+A1546aWfJVatWvXIgkeHDBtGfk53HT/ggA4dc9iLGxXrSDSqLpzH0qZJTJ9xxR/r1ztdLq+Ew+HY8OeGJ558kqg/nas+5NC2bfeX3v9gJtbkVz788EMRYr3nQKwBAAAAAJIGE9zqTjWt9mtDDLhdh47EWWddfY2omTZm2rpo8eL92tDHEdlmLgccdFCr/fZr1YDWdCG8/dru375Dh3vuvddSWdWq9X5NbRDz8cefEP9ue8AB7A2JKJM3aNeu/fARI8aNH09i0JAheQUF5If7tWnLMkaqrNZTpk4jb0hef2j7DuQnCxY8KkKs9xyINQAAAABA0mCOa62uJjpM1PaQdu2Jp145a5bY2M4vTIXvuvtuZs9tDziQvJ7oOPnKgmiusht5q/YdOy5esuTvbduKTaVEsukKfUXFDbY0Z28478EHiXmTdzzgoEPY+xxIBLq1vJ956zZtWFZ3a8nghw4bvmbNmo0bNxLRVh+jPGnyZPa4ZFPLiYBGgVgDAAAAACQNORWkwkwVdr82bfc/gHwz44qZYhOSqj6Y2LNX7/0PPLjhXLUEEe6hw4Z9/fXX5JVr1q7Nyy9gP++Yk0v+KVKfrn9n5tYLFy3q0q1b2/33Vye9iTfTaC1Phx/crn3nrl3nP/wwm5Z2u91Dhh5Oft6GpoWQS4KDf/v996Y+M2gKiDUAAKQYclrKwAAApJKnnn76/rlzH3zooYfmz7/r7rs/W7FCbFqs2c/dbs/LLy88/YwzBw8dSpS3W48e5OvwESPOPe/8RYsX+30+9nqedz72+ONzH3iAxIJHHyX/FDXZ28ytvV4vecFpp59x+LDhnbvRNySq3btv3zHjxl162eVvvPmmT3pP9fXkQ959zz3kA5OPfe999/3vp59SXk26A2INAAD7AJNUck4iESMRE6NRIRolX+lPMllhlU8uqB+YfPhYPNM/NgB6hKmtKsdOl+vPjRs3b9my8a+/fIpPN7PJS6MkvqHH7dm46S/yhn9t2rTtn38i4XDi301eOQDEGgAAdh/m0NSeqUCLkYj4r4u8khNXKEQjEBAcDoHjyNf49u2xjX/R+HNjbPOW6E8/h998O/zeB+F3328QwSeeCtx1T+Ce+xqJe+8P3HFXaNGS8Acfhd95b5dffO+D6M+/xDZtZn8ivmWLwNnpn7bbBa+XfR6x+bMpKSkpXb1wx6DaAOwR0V3ZHX8lRwvySu3S0eyHqiWzl6k0Y9vqK7X/KxwOJ74ng/xkTz8zaADEumnSfqMW0fIBAGP3ewg5L8Vicc4RJ4r8++roV9+EP1kWevX10JJXA/fN9d95t+/6OZ6zzvWcfZ5n2umuI0a7hgx3DRvp7NWfKy7nisrqg/yzyahoNpr+RfbOBSZHZSf6dw8f4Ro8zH3CZM8553tOP8s352b/HXcF5s4LLX4l9PobkeUrol+vjK37I755i+D3C41eMGDg7CZpP5QhsjwEaUdEFoJ6E2kf3k1Q3i1Z75nuMZa5QKwBSIAdL8gRJ3GiLo6b4wYgsd2bbmjB6Yr++mv4w4+CLy0M3DvXO3OW55wL3FOmuY48yjl4GN9ngMNWx5nM9kM6kuA6FHAdC7ncYq6wlEZRmaPU4iirpFFhdVTV7BKVnZIciW9uqZb/blklV1Ihf56cIvrxOhTQT3toDkc+UnVn54DBzmEj3ZNOcJ96hvfyK3w33xZ8/MnwO+9Gvv8htm1bc7UXlWbx2UgBAACjArHWIJ0VBJcr+MSTgbkPBh6cH5j3ECKb4oEHA/MfCb/1Tnjpp+GPPgl/vDT8ybLwBx9Fvvk2vm1bfTh4weWm4fbIOrUbq3XSbFR2fxw3x/UBy+sgbdqgKcNhweON//135Lvvg88+77/lds9Z57pGjXP2G8R36+3oVOcw2xxF5fb2BVxOIZdfQieGTWaOmCv5OZHa6s40bHVyWGvkSBRfIrstFg2Em30Y9eOxT0teZrZxpRZq3gUmLq/Y3i6PFI3quK3W0bUn32cgcW7PqWf4Z98YfPrZyKrv4lv/JrUkKsmaMlSyo/IVqdGQelH8r02BufPSfyREIFIUxIvuuS/6y69qnweJQKw1SCeD2Ma/+G696KQOOVmS0wxCH0Fak0VJBd/vMHpffthI1+hx3vMv8p57gfeiS/33zvXffV/wkUfDb70dfue96Ncro6u+j/3xBxEsIRBo/AjC5rO1t9VAZqI20K5zq0I4HN+0KbLii9Br//XfeY/ntDNdY8Zz5VU010LtP8W0C8nzzURDq5ib1jqstbtMPLekMSfdv1kprFKh6CVBLf0huVoor3IQ525QG2VVrtFHek4903/H3aHX34iu/Da+ebOQ6NNqPRtkUEhlDC//jJ470n64QyBSFGWV9kNzg8+/qPZ5kAjEWoN0Voj/tcnZ9zD5dm3Sb9EiMiGIKLCb40QX2J3xAhOdfcyRbo4f3JFrn8dba/mars4Bg10jxrhPnOI97Szf9Jn+ObfQm+NvvxP9ZqWwfYcYaWKemxxu1DQSkHbYzLR6DmDfhCOxn34OvbzId/0c99TTXUNHkF5BThi0D7C0jWb6T9oluIWFu6mgtl1OaszePo9YuItOaZ/pu+mW0OJXYmvWifFdT7rqoNArUr+KrPicnjvSfohDIFIUtjpyugy+vFDt8yARiLUGVaz7DKDuVWmwM6hxIvEwoU43Jt4cJ18t9Oa4rA7KzXF7x0KHycLbavkuPfj+g4hJuCdP9V07O/jEU+HPPo9t2yblluz64BdLNtCxT2QszOTU5/AEgc5Mb9wYWrjYO32mc/hovntvmv/QsYA0Lp2NruwkN322zz235DhSB46lmt4OyinicovI93zPfs4jxnovnUEkmyaNBIP152C9jghVrMm5I+1Ng0CkKKy1XH5J8CWIdeNArDVArBFqJGp3YzfHOebcJEqkDJNSi6PC6jxsqPeiSwPzHgq/90Hsl18Fnq/vXYl3xkHqEIQG9wri//wTXvap/977Xcce77DWqPc06S0L0tCsWSHT+z5e1JFC/slGB6vnqhrX0ZN8t/1feNmyeOJDkGoalT6AWCOMEBDrZoFYa4BYI3YnmrlNVlZJE0s6FpDgu/VyH3Wsd8aVwSefjv70c8M1j/V9W7zlYfPT7ECvPIUceu2/pP5do8Y6ikq5Dvn04kfbfGnvTvoLTQ3Tq9COhY5Ck3PkGO/0maGnnolv3tJ422UvEGuEEQJi3SwQaw0Qa8Q+hjpvZ6tzVFi5ojKaflpSwXfv4xozwXfjTeFly+laCurxiC2hAPYFthKF+i+3O/LJUu/FlzoHHe6wdKIXOdKkqTwtnfYeYsxQJrPpHDZpEZOZ7zfIM/UMcuVD2muX4ZC9V5sQa4QRAmLdLBBrDRBrRBKDSXa1lLNbVkkXZSu1EMl29h/sv+GmyEcfxzlO7niadSrAbpFQb0IgEPlmpf+2O5wDhtQne1iq5QXv0t4ZECxYTnZlJ2l9Hporwvfs659zC/FRuvaOmM1jAWKNMEJArJsFYq0BYo1IUTDJZrfFK6z0abn8EteRRxERjP7wI+177AiFhUR2B+ZeorJy8Na/A4886j55Gq3b3GJZa1iFp73dEU0FbSApUYQMh5xCcsHpPmkqacf4jh1yy2adYUOsEUYIiHWzQKw1QKwRLRPstri0VBlf181z6lnhT5YJoRDthCyxAQespkhIpI6tWeu78mrnwKF02Zb8Ejpg2ZNziOwKKUuHbrVTWMoPHOK/8eb4lq1yK2fRowgQa4QRAmLdLBBrDRBrREsGuy1eVkUNu6zSecTo0JJXBJdb7orZ4hMthlonsVjk8y89519MMwqKyx0ms5TUXosBm83Rie22oy4k4pt5dUx95DcrnkOAWCOMEBDrZoFYa4BYI1o+1CyRskour9g9/ujQy4t2yTcFakpAPB5evsJ73oU0f6DARGsPy+TpLNSFRHKLyGWnd9a1sfUbaNNnfmYIxBphhIBYNwvEWgPEGpHGYJtaFZWRcE86KfzBR/V3ww17/GKbJkqEv/jKc9pZNGcgrxgp1PoPcv62VNtzivje/f233RF3uWgnSNzxJ9OAWCOMEBDrZoFYa4BYI9IeLN+0pIIrtXgvujT250a5ZxrwEEZzP2ipY+v+8F46ne6SWFxOd+dh+2IidB/SpSbda6ao3Nl/UOi1/4qhMO0YmenWEGuEEQJi3SwQaw0Qa0SGhJThQI5ffI8+wSeekk3COGkh6iJ6Tmdg3kN8t1723KLElVUQBgrW7pJee8+/KPbHeqmHCOyiK4OAWCOMEBDrZoFYa4BYIzIqrLX00caCUs9pZ8a2SDvVGSEtRHlIMfr5l66xE+iKH+VWLPdh9JCWfOFyi/me/ULPPEf7CduvMXOAWCOMEBDrZoFYa4BYIzItpC3ruMJSZ5+B4TfepL2ULfGrV6QxKDgcvtvvoAt+l1RIuTEYiQgpbHVcWSVXXO6bPlPgebXDZAQQa4QRAmLdLBBrDRBrRAaGdCuc7tpYbvXfcZcQVJa71hnKBGTsp59dYyfSdakt1XhCEdEwSJcgwyGn0DV2QvTb72jPyZAnECDWCCMExLpZINYaINaIjA1pGTIur8Rz7gWC00m7azSa5vGSRJT0j+BzLzg6daEPKdqQ+4FoOmx1tJPUdadPNIqZkSIFsUYYISDWzQKx1gCxRmRysKnrApNr4jFyynXm3AffF1j6h9vtm30jZzI7yiqRUY349yCdREoWCix4nPaitKdIQawRRgiIdbNArDVArBGZH9YarrDUNWZ87Lff1E6bxTCr5nnPtDPkBaox7hC7GTT53uYoKvfffqcYllbiS+OZHmKNMEJArJsFYq0BYo3Iiqiq4YrL+V79ot//QPttJGtzQtiI27KVXCfQnRSRUY3Y02C3cToW+K6+VkivW0OsEUYIiHWzQKw1QKwR2RLSHo2uw0fGN2VtTohs1Vtc4+iaetj2BbGXwVbiyyv2XTMbM9YIRGoDYt0sEGsNEGtEFgU5wBWXuyYcE9/6N+292XWMY2Nt2z+u0UfCqhH7GmzeOrc4cN8Dau9qaSDWCCMExLpZINYaDC7W0jpWWRBIw1VDOsa5p54m+P20A2fLYU6dqx49nisoxQIgiOREFX38IPjs87SPRSIt3ash1ggjBMS6WSDWGows1mYbZzJzJRUZHo5SC/mo9APb6hzVnelX1bbTXodpCXKYKzD577ibduCsOMyxvcp9PvcJk7l8E7Vq1qAIxD4GOQ7QvtQp8sky2tNaeN4aYo0wQkCsmwVircHIYm2tdR0+wjVyrGvEmMyNkWOdg4bxdd2JT9s7FtgPzeFyCskgp2u0kRMqm8k22nw2LWwnUvzwe++rfThzYQfiaNR70aWSVSMDBJHUIG5danEOGBJbv76+v7Vg34ZYI3QeEOtmgVhrMKZYk2KWV/G9+0dXfRffsSO+eXN8y5YMja1b4+s3RL/7Ifr1ysj7H4QWLvbfc5/vqqtdEyc5artyReX1s9qWankyO+3V2zItaDI7Bw+P79hJu3EmH+ykIRaYv4Du7mHk+wwWOS1YDmutHKTTNgj1f9Gt3Y19c2Y3Q1rr3X38SXI2SIsNB4g1wggBsW4WiLUGA4u1s99h8jNwGT7lqSUeF3w+cklAhDvw6OOe08/ie/V3WGxcTiHdaoSoiRHa0Vprzy/xzpzFKiTdTdIE0geLLP+Mq7DKdxjSXm8tGcykVXuu7MSVVdL8q+JyLq+Y3ngpKLHnFNrb5dvbyyHfkGFRWEpfTC4aSe2Rt2J5UMy2jVaT/xpSflRg3kO018ViLdS9IdYIIwTEulkg1hqMLNZ9D4tvlhZui0bl/aUzNsiZkgT5nNp9jKV/xu1caNES70WXOfsP4jpKeq17+WClq6yOLFsuN2KmwZpm507nkCO4ErNRbiZYqndJTyJmnF9ib59nb59LLi2cvQc4h45wjp3gnnqae8o090lTvBdc7LvqGt8VV/lmzvJdebXn/IvdJ59C/xd5wbHHO4eNdA4eztd2I3pN86CIeeeb6C0aptoGzINqps7NNt5aG125iva9lnFriDXCCAGxbhaItQaDi/XWrWolZBlsN2M1lB/G1m8IPPyI87ChdEE30qD61mtbHZdb5D7lVCEUkuskcyAfRupXvmtn02VAjLBjubS4MvlGfia4qIw+xjBmvHfGzMDDj4Ze+2/ks89jv/wW3/hXfPsOIRYTwmG6v0mD0ScIQiRCg7zA7Y5v2kRTob5dFV76aWjxq4GHHvFecrn7mOP5br3s+SVyHhR73oCljqS9EtIY0qS1+4TJQjAo98AW6OQQa4TuA2LdLBBrDRBrMTvFugFktLP5bPYvzhGYO8/RvRfN6yW2oeNmtdVyhaWRj5fSYmdUO0ptEf50OVdqpo9a6rgJ5Iaoo8vs5BWT751DhnuvuCr8znvxTVsEt0dodvZUNmwm05HIv061CtGo4PEIHBf56uvA/Ec9p53F9xtEk0xyix3FFXKuSNprI11BDKCoLPDYE7SmWmA4QKwRRgiIdbNArDVArMUME7J9hHgJKY40+GNr1nlOPZMmqpptus1DIE1ZUuGedGK6631X2Pp6Xq9r4jHk4+lc9aREanvHQoe1znvhpeE33xZ8PrUSZNREJjW7qcHNlga1p4aaCkV+naVsaevZ5wu/8Zb3yqtdI8dKedsmObfbIEezXduCK7Xw/QcLDkfDJkgFEGuEEQJi3SwQaw0Qa1FfYs1Q8hCEcDhw1z20yCwtJO01n4ow27gKa+SblXLBMwHpY4T++4a8EkjaqyhFwfzVZHaUVfoumR758mu5/hvkKSW3URp9c5bOvn1H6NXXPWeeQz4bTURh+SFpr6UWDrplTJn/1ttptaT6wQOINcIIAbFuFoi1Boi1qEexZrDZPmJ4Ly10dOqiW7cmJlFU7p0+kxY52lLrITQPOfjGYq5xE+ly43odU9JTg8RfnYePCC9dKg8i9pRtC597pNquzyGJxSLf/+A570JHVSeimDpPhdIGGQ6lFr5H39jqNXKLpLTmIdYI3QfEulkg1hog1qJ+xVoU5dvoohj+6BNHdR2nyyYmJlFSQfQu/s8/cpHTi1ThwZcX6dk2mFUXlnovvCRut8vV3vJK3QDyGdgcLRO+z79wHz3Jnl8iLyGS9kprsajubG+f77/nfrlOUgfEGmGEgFg3C8RaA8RazAAVSylsPk8UQwsXUcOwVOuwlYlbF1eEFr9Cy5vedfeU5ATPKafRJ/n0mopArbrMf/Pt8o4kGTWCElJEBLcrMPdBIpr01oEub9c00Tr0+HbYkPj27XKFpK6qIdYI3QfEulkg1hog1mKGaUEqYGuGiKL//+6iN8f1Zxi2Oq59nv/Gm2hh09ua0jVM9OuVNPdGrzvCWOlKLN4ZV8pdK2PPNMrtmsgXXz0OpTgAACAASURBVLqGHkE+s26vc7RB92IsDb74Mq0HiDUCsS8BsW4WiLUGiLWYbhVrGZgARSPu406iz3VV6auhpWwQ14Rj5LSENB772Abm988jok+Xfkt7zSQ9pAXdXKPGCXaOlrfFNvnbO5RLytj6Da6jJ9EFQwzi1pWdOJPZNeHYlFcvxBqh+4BYNwvEWgPEWjSGWIvyESH64498XXdpMjXdrZDcBqVfa2K/r6YlTVeDKqu/eU46hSuu0OGdAYt0DWMyh155jZaX5YFkPvLupHb3iZONMm9NRkSFlbfVRVZ8QWsgRSMCYo0wQkCsmwVirQFiLRpGrEX5oOC/5TYut0hv86nk2JdTFP4krTvFMIH7a5Nun5ajC7CUuUaMEVxOtbzZgTSzHt+yxTV0hFHyrSUb8F59HS1+ih48UMW6wQ7zxom0t3LLR9rrvOXDVscVmIIvQ6wbB2KtAWItGkmsWQbwz7/w3XvrrblpUqkpMG8+LWa6jn3y8tVvSsk2elQ3aw1xNc85F9DCpvch0b1A+sDRb1c5OvfQ7ZVPYkjLULrGjo/v3EmLn4qjHBPrz1bQtczJ8cRowZ4FN1qQUqe95ls4LNVcTmHKn1jIWiDWGiDWopHEWpTd2jdjpt7WrGCrWV92RTrrlt0QuPX/uJIKfQ6lyk5cidl/+51qR8oy2EqITz1Nr3x02UC7NhYrY+STZbTsqVjinWWXffW1s3sfZ6/+xoreA/iuPdPfyi0efLfe6a/8Fo4+A/lOXUKvvq72eZAIxFoDxFo0oliHX31NbmvdtDh1vgrPyVPTeeCT/rT37PN1LdYV/ptuVTtSluI58xyabK3LuwqJYauzd8gPPPAQLXPK2ksIBGIb/oz9udFAsX5DfNs/oedfpAl1Zlv6G7oFI/TfN2NbtxqxxT2eFI2gbAdirQFiLRpMrFke8LZtfM9+utoXkDhfqcU9dkLahc81bBRXoqOKTQyaCmIiVkrLmXWpIAxpsEd/+pmv7qzb9RDr24sujOg57UzivrTsmGxLFlIvCn+81NGpsyHSilhIlxCR776nNYC+BBQg1hog1qLBxFqUy+s+/mSuuFxXLV5eRWxJCIXSW7vO/oN1K9bSwOG79ox8u4oWNUvdWrr08t92B5dTqLdHeLXtZaF6Hdu0iRY8dTJEDimGCmk9nPD7HzrI5VmF3i/Pdo3I19/IgyjtrdDCgWuJJoBYa4hDrA0q1v7rb9RbxgJxvrruQjicnlpla+3xTr5Xf0epRVcVmxjWWq7A5DnrPPkCJt33B/aGmDRp/ftqnhz0SEvpKSEkcSkDUi4S0oIGYZZmDTNIFiyh7sOPjCjW36ykNYC+BBQg1hog1qLxxFo6JgYee0JXqSAWSaxru6VXrGMbNvDdejvKKnVVsQ1C2tXP958bBFHadSgbh4801+69+PJMzLRusNQX82M1rLW7hK2uPsg/K6xqcGWVXHE5uXi2dyyQnzeFDCULiDX6ElCAWGuAWIsGFevwx59wOptYzQSx/uMPvmsvnYu1RcpoLyz1zrwqvmMHLXvW3SqVhnzki69oMzX18Nm/rm7bQHkTo8Erm69M8gESgoxKcsUrR0kFqef6KDBxuUX1kVNob58nR7tce24R370Pua6j0bWXs/9g14RjXEdNco0Z77/9jnTXuL6AWGfRYAcpBmKtAWItGlWsly3XoVinMRWEEYk4+w1y6OxWQKNB3LrA5BoxJrzic7lTsf3Ds2g0xePOEWMcZqujus5hk2Z/iSep0cCMd12+V7ZeNQrLuIJSOYgBJ/6vkgp6oZUY5K0SZTpRxzt1cY0e755wjHv80e5xE92TTvRNn+m74ioaM670XXd94LEnAo8/SeOxJ4LPvRBZ9mnk8y8iKz6PfLYi8uVXsTVrY6vX0Ph9dXzDn/Gd9rido1+drnTXtb6AWEOsgQLEWgPEWjSqWC9dpj+xJm6U/ocX+x2m24cXG4S11kHE0VLtu+Y/sbXr6scR0Q4SGX7qZYuO33yb/cB2XH4Jl1tE530PzVGDXh0lqDBf143v0lOOrr2cA4c6Bw+XY8gRriOPck08ls4Qjz/aRWx4xlW+Wdf4rpIj+MRTwWeeCz79bPCpZ0IvvkxVeOW3RFAiX38T+f57wesVPB4lvEIwJITCcoSzZNN4owGxzvDRDVoQiLUGiLVoVLFe/pmuxJoUpKzSOXhY2peqcI0ap7enQpsJKUGZyyvmO3X2XjYj9MZbAr/rbueCkofNvskcWOrOz7+4Tz3Tc8HFnvMv9s+e47/tDv+t/0fjlttDz78YWrg49PKi0EsLQ0teJTYcXflt9JuVNFZ+G/v77zjHxe32+M6dcaez5Y4hrBrVYNcwamjXMVADJBGINXoUUIBYa4BYiwYV69CiJbp6eFHaFNB94pT0bxBz5jkGEmsWTK87FnKlZtfoI72XXE6UNP7332qd1EMue0gwBdTTuZkUp3nHbcp3tQEyH4g1OipQgFhrgFiLBhXrwD3360qsqzpxxeXecy9Me8X6b76NKzaYWFukMWWrkzaWL+PyS+hParu5jzrOf9sd4Xfei23YIDh4ocHafKS6IpF6B01fk8nfEOMnn0cNdg2ghtabYcOGBWKNPg8UINYaINai8cRaKq/nzHN15X9E6QpL/f+X1tUPWI7Nq68Tucy4RdxaLKy1ctnLq+ije8XlXL6JM9vcRx7lvXRG8NHHw++8G/3u+/jOHY2fm1t+EhdyDPYUiDXGC1CAWGuAWIvGE2sp59V5xGhdZSxYa7ncovAbb9ECpnX6M7Z2Haf75fZ2M+iadJ3kRBEi2fkl9kNyuAIT37WXa9Q494lTvNNnBuY+GH77nejPvwgul1qHjddtgzQSnNpBuoBYY/QBBYi1Boi1aDCxlgobXbmKr+uuqxav6sSVWoifqWVMA2zzRafLNW6irh4M3fdgqz5ba6mISPuYMM8m10J08Y2qGtIbnT37OoeN9Jx1nv/Gm4PPvRBeuiy2aXP8n+2Cx9P4A6lqkobO0rVB5gOxxogDChBrDRBr0WBiLTlK4L4HdJWuUFXDmcyuMePjO3bSMqbxoB+X8tdvv5Nrl0dzjtNeM5kZZABalU0E2RYt5OBDLkXkxaHLuaJyuhp0cYWz3yD3sSd4L53uv+2O0MuLIh9+FPvhh9jmzY2PWTwLCFoGiDVGFlCAWGuAWItGEmtJ+wS32zX+aK7ARLUm7W2RlLDVcR0LvVdcRcuYXp2Srlsiny6nm4Dszq57CBaNbmoojVN5brtjof3gjlxxOV1DethIz8mneM6/yHfjzaHnXogsXxH78y/S8I23CFuTTpdLkYB0AbHGOAIKEGsNEGvRSGItnQ9Cr73OFZbpx6otUoJ1QWnohZdoGdO7jrXUl8ili3vCMeQj6aqS0xJMstVtEcn3chqJietYwOWVcOQCplMXvmdfZ9+B7uNO8l07O/j4k5FPP4tt2BDnHII/oDUAQa9L/oEWA2KNgQMUINYaINaiYcSaZQB7va6JxzpKKvSUB+IwmZ39B8fWb6DFTHtrSmbvv/s+XSXbZE6o6dpEtdl1C3HrssqGe4ybLPzAoe7JU33X30hV++NPot//EN+2TWyw5J8oNr6wNADNALHGGAEKEGsNEGsxA1SsZZCKGXppIVdcrivhq6rhCkyeM86mZdRqU8vDLmB27uT7DcIjjC0RDdJI1CC2XVzO5RXbD83h8kv4zj2cI8d6ppzqvfyKwEMPh996J7p2nRAKNd6I6nrVEAigBWKNcQEUINYaINaiMcRaKmPsz418n4EOnS0GZ7aRCL/1tlrM9KNuwVOkr2uY7Ar1EUl1KZLiCurZHfLptaW1lu/ZzzlomPvkU/y33h5atDj600+Cyy0EAqKway9iG8dAsoEKxBpjAShArDVArMWMsbHUwQ6CkYjnjHO4wlJdqZ40MekcNkoMh9NdywlIFR7fvp3v1U9vlzFZGuozkSyHhHxjtnFllfIWNjR1xExtu0cf94mTfbOuDb74En0mcvVawe9v2LINtiUHBgRijZ4PFCDWGiDWot7FmqkAzfq9V3pmUUdWbaGPLdpzCoNPPSOXNHOQ6jz4/Av0SgaPMGZmaLNHlAW27e1yyTf0gcgTJvuuuCrw4Pzwex/Ih4sGsFVHsGeNoYBYo6sDBYi1Boi1qGuxZvvVEcN74WU6dcrKnvb6T1ZYa7nictfYiXGHQy5s5sAyraNRz7QzdLWyob6jfiMbaVa7rJK0nb19PldUxtvqnP0GucaM9864KvjM89EffhR8PpoiktjmxLfIT7DYiO6BWKOHAwWItQaItahfsWYn+Fgs+MxznNkmr6yc9spPYiNWdiJiHX7tdVrY9K6y1ygsr331ar5bbwMNLt0Em8NOTB0xWWjeSHEF3bK+pMLZq5/nzHP99z8Qfv/D2Lp1NDk7senrp7HT1gFBqoBYQ6yBAsRaA8Ra1KNYszRQcvQLR3w33EQfoSNirafUaos0XV1Y6jntLFrejL0Lz1ZieeFlmr9rkMGl12iQNGKplp6GLOM6FnK5RXyfAe6TT/FdfV3whZeiv/zaYCZ7l3QRoAMg1ujJQAFirQFiLepLrElZolF21IuuWes+5ng6x2bRVwYIi3Kro6YrlRgxs4/y0mfz3XI7l1eMhBC9hfw0ZC1XVkX3rOmQ7yir5Hv2c40e75s5K/TKq7HNW8RownIi8TjdnkZPBxxjArHO5EMuaFkg1hog1qJexFqZpRal9SgCd95LDvryktX6a9aqGq6oPPDEk3LBMxlpNl2IRLwXXGyHW+s11PVG1PWzSyocpRZHdZ372BMCd90b+WxFbMuWeh3BBHZWA7FG1wUKEGsNEGsx482sUVjyQ6xepuWm3LwlMG++c+RYLr9ESf/QXZuSC4aOhb5Lpstlz/xDPFt9b+dO93En0gcZdZaTg0gMdV0/dixlmdm5RWQ8OoeNpNPYL7wUW71ml05LE7Ih2VkFxBrdFShArDVArMVsEGtZo6Wt4Nh2Fbt+ZiEQiHy2wjt9Jt93IDmF09kyvc6M2ursucWucUcJPE9Lnvltx2ADbfsO96QTHQVYgM9IwSazrbV0qeyOhWRs8r37uydPIxfAsbXr6vcKJQNcM65BhgKxhlgDBYi1BkOL9cD45s20EljWY0aFuqMyM2ntUUwQ4nZ77LffQ6++7rvueuegYY5SC1dc4TCZ6Vlcr3OiVTV0deHDR8Z+X6323qxBOhnTeevjT5byrXXaRoimgoxKaYERjgzVwlKutNJRYSWdIfTywvj6DWJMWtZGfcwRZDIQa4g1UIBYazCyWPcbFN/6t1oJGU0oRDQ6+tvvkU8/Cy1c7L/nfu/0me4JR5PzNNexgG5Boq5RrVeltkhWXVbJ13SN/fgTrZPMbzUtbLjt2OG95HLq1ur6EghDBRmkSq4IZzLbOxbyXXt6L74stPgVgXfSfsKshV5jk29gMJkHxBpiDRQg1hoMK9YVVnIyC85/JLRoSeiFl0Ivvpwp8dLCwNwH/dfd4L9+jv+6692Tp7mPO8k1doLz8BG0jWq6OkrMdFu4joV0ftpic9j0Oz+dGNZah8lMrDry4ce036o30LMO6ZE1IRr1zbmZZuyUW5EWYuggxyJbLWe2cjlFRLLJMPdddU3ku+9oV2Huwm5bgYwCYg2xBgoQaw3GFGs1SJEzL+id4pIKOQpMNGe6qIwrKXeUVsrPI5KjOdu0wgjtRYos7bDI9+4f/kiy6gzcC2aPUJaDCL7wEt+lB2lcuLXRg+p1naOyRl5OpMLqPmlK+I236rcUbTQfDKQLiDV6I1CAWGswuFhnZiTuQ0GffKqpv3dstOQBSTjoigqDh0d/+lnqsbrYyo6clqShF131nWv8MXQJF0u1Ie48IJoPNszNNq7EzNGHdCcE5j8S3/Bng24D0gzEGmINFCDWGiDWiIwNaUNprqDUNW5ibP0G2l2j+ronznbH9Hh9193AlVZy7MFTjEGERen8RWVcgcnZ9zDftbNj7Elr5tbQ6/QCsYZYAwWItQaINSIzo6qGztvll3jOOT9ut9O+qstM05i8LV/o7Xedg4dx+SaaN4/MEAQLeZ0+CzFsvksP3823ygsZiTodDtkCxBpiDRQg1hog1ogMDOITJRVErP133ydnVOt4ik6ZgBRcbv8tt5MxSJd5MVrOD6KZYJlgFVZynUn02n/LbfJyRmx5eyhOywOxRq8DChBrDRBrREaFNFlLzJIfMiy87FO5ixrhIE6LSf8b/f5Hz9TT5YfYpHyA9DcKIkOC6XXHAueAwYGHHxXCEdpjkHjd8kCsjXBMBrsHxFoDxBqROWGro0JpMnvPvyi+bRvtn4baLINtDCR9E37nPdeoI7niCq6wDInXiPpgj/OaLKRjuMaMD3+6fJeeA1oGiDXEGihArDVArBFpDyXtgcsrdg0bFXr1dVGIq53TcCgz9ILbHXzmedeRE7n8YrqhpgHXhEE0FWzxEJOZq6jyXnVNfNPmxJ4DUg7EGj0NKECsNUCsEekNa63DXM0Vl5NvfNfPif+zXe6WBj9wq4nXHk/o5UV09lpa19xRYZWXME97wyHSHtKFFrkcdQ4cEn7rbdpt2I7oINVArA1+fAYJQKw1QKwR6Qpih7ZamupgtrknT43+9IvcIbEXBiNBkqhev/q669gTqEjlFtGhSvcTwWg1fLCdZchFV1ml75r/CE5pR3S4daqBWOMQDRQg1hog1ogWDmXjG85kJo7onnRi+N335d6Ix7C0JC5aLAiRjz/xXTaD79GH61DAlVqQH4KgIWWGcIWl7qMmRX/5Ve42IHVArCHWQAFirQFijWixYLNrFVaq1AUm19gJocWvyHNsyP1oHnbJwaooHo/+vib4yGPOEWNoTZZUcCaLvH4Ixq9ho5LqNV3uukff0Otv0H6iLJEOkg/EGl0LKECsNUCsES0QTKnLq7i8Yoet1n3C5PB7HwheL+2ByArdfVhdseoSBFKBkeWfeS+5nO8zkCs1czmFcooIe7It7Y2OaPmw1tL7GFU1wSeellfUgQClAog1+hVQgFhrgFgjUhdKogJXVsl1yOe79fZedkVk+Ypduh8O0HuBugohWz9kx87gk097zzmf79mX61jA0tbrs0QwqA0V0oOtXGGp/9b/E9nS6BhiSQdijU4FFCDWGiDWiKQHfSqxzmGxcaUWmqtQVOY8fERg/oLYr7/J6+hhx7ikwOpQzaaNx6O//R5cuMhz5rnkfM+2mKHzlxabw1aLjWaMFTTlukxya1y+pgCINXoUUIBYa4BYI5IVzKeraqjP5RSSvsT36OudcWX4s88En08+EKuZDCCJkFEciaiGLYTDsS1bQ4tfIYbNk3FtrbHnFNFt0i10Cx6kYhsi2PPBqlsj3zq5QKzRnYACxFoDxBqxd5GYacC2dykup0tVmMzOI0Z7L7wktOQ1weGgfQxK3TIkZmArxDku9ObbvmtnuyYcQ5Ta3j6PKzBxbKQjUUTfIT3Pai8wBe6fK3UFrBOSPCDWEGugALHWALFG7GZIc2B0vpOtoGy2OcoqHWxVigIT+Yn7hMn+2+6IfPxJfMuW+sMusj5aHrXOE6pd4Pnol18Fn37Ge95Fzl4DuMIyliviKK2kTancbcARQFchjVO+qia0+BW5Y4CkALFGXwIKEGsNEGtEU6GaNDl5VNeRMzRXYuYKTVxOIWcykx/y3Xu7Rh3pn3NL+N33439uFPz++qNtNEYDB9+0Q6expUQRlXBYcHCRz78I3HG3+6hJfLfeVKnzTVxuEfVs0u6kuUmjY3NHfQQZxeQCuLZr5OtvaOtj3jopQKxxbAcKEGsNEGtEoyFNSHNFZVxeib19nr19vqO6i2v4aPcxx3svmR54cH74g4/i23fQLpR4hBUEIRrFyTsTIc1EmiYxUURquPiOneF33/PfdJt78jTn8NGk3e3t8kijy7vPsDlsOdLdJxF7F9ZacsnkGjUuvm0bbXcMz30HYg2xBgoQaw0Qa4Q2zHQdCeeAIZ4Tp3hnzPTfOze0aEnkiy/jW7bQaekGNJZ4ADKXxPZKzBWJRuObt0SWLQ/OX+C9dIZrxFi67nh+CZ3GNpnprGeFlfYNa608n41jRRaFrY7LN3lnXFm/LA/YFyDW6EJAAWKtAWKN0EZVDVdc4Zt5NU0hEBqu1SWQH7JpaRxbdQB75DESERInMmMxwcHH1q4LvfmWf84t7qOO47v3dtR05aQtfmTbpldfdcgbyZqo7MSVlIde/y9tX0xa7yMQaxz8gQLEWgPEGtFoVFY7yioD9z9AO4kkXtjITeewJbEbpIuo/5N3Rr9ZGXziKe9lV7hPmOw8fASxantukb1dLldYypWa5T3ViWFjMjszgzRKaSU/YHB8hyaDC+wpEGv0H6AAsdYAsUY0HVy+KXD3fXI/wZHUOMhbzzSR4ROLxbdsiSxfEVq0JHDXPZ4zznaNHEufbaWrZdPFRhwmC00dMdvkDSBV4a7C6n5pDbqydanv2tmsEVu+W+kHiDVOB0ABYq0BYo1oKthu5AUm/1330K6CPSaMDJvPjsW0D6cKwWDcbo/9uTHy6fLgU8/4Zl3nnnAM372Po1MX2n9MZnJ5RhNIiss5ZttqAgm2qmnhIGJNmqCue/T7H2jLwa33Gog1zgVAAWKtweBizc7uSQ/dVCPbvy23OPjs83JvwfEUsCX8iGE3kTdCXxIKRb/7PvzW2/477/FOn+k+9gTXiDF8z350y5JDc2kCCVHtojL5mJP4QKRuxk5mRnVnrmOB75r/yO0I9g6INToPUIBYazCyWJttdBe6/JIkBzGGkgr91KRSkNDCxbTDYJYLNEDOG4k3tzJMPB63c7H//RT5ZGnwyaf9d9ztveRy9wknO3v3d5RauI6FdCQSzy4xO8osdPkRs03ue8jbTsFw5q21sd9+Z+3Skj1FP0CsIdZAAWKtwZhiTYpZYeW79goseCz06utEGUOLliQnyFu99l/vRZdxhaXUCdJe0uRVF1dhDS2S3DoaTXOnBVmBkj1CO4z2NByPCx5PfNPm6Jq1keWfBZ993nfDTZ5TTnMOHuao6UrHDuly0jLqVLhLLQ4LyyGpw2J/+xpVNeT633fVtenoE3oBYg2xBgoQaw2GFevyKme/QfGtf6uVkMz63LnTNXYCfYpLN25NVMZs5cy20OIlSa4xYAQSJFtgK8w0Chs+2/4Jf7o8+NwLvquucU89zTVyrLPfYTRdu2OBvUM+V2CiRyq2JygMe++iwsp37xPfvl1uGrCnQKzRbYACxFqDkcW672HxLVtpJbDH8pIV0oRu9NtVfOcejjIdVak0b+0gbi3nhMCtwT6gJpCwaPo8LbhcsdVrwu9/GFzwmO/6OUS1nf0HO4rLuZxCeTKbpY6wfSKh2rsZ5VXB51+i9YuL5L0AYg2xBgoQaw0GF+utW9VKSHqthhYtoVvW6alKWU6IuTr83ge0mJFIkusNAAazbfZ8pIp0Lhd8PnK8in7/Q+iV13zXXEdX+uvUhT4vYTJzBaX1O9fo6RnipEdVDVdg8kw7g9YqnprYCyDWEGugALHWALEWUzNnIx13fP+5gcsv0U9CiIWuo8KVVfLde0e++oYWE2dlkGrUnWvIhVyDoSptGxnnOKI4/tvvoinaQ4YT17HnFNLk7Ioqhw3pIo0FEWuT2TlwSPzPjbQaMWm9p0CsIdZAAWKtAWItplCs406na+IxNCvUVpf+UicrpLMy37NvZMXnqao9AJoiMYFEQ3z79sjSTwP33u85/Wxn7/50vRG2qJ/Ub7H1uhxsWcNSS/jV12mt4XHkPQViDbEGChBrDRBrMWVqKL1tdPUavnd/uoiYnk7qzK2794l++RUtKU7MII2oT0YmDGQhEIxv3Bh+623vZVfQ9bPLKukaI6UWec3stI+gtEd1Z/uhuf7b7qSVhfG7p0CsIdZAAWKtAWItpnLOVXrCL/TmW/KcmZ6C2ElJhXPAkNgf66WSIicEZACNZWYLHm/k7fc8Z5xDLnG53CJHcbmu7iDt7fjl8kq8F14ij1x40h4BsUaHAQoQaw0QazHFyQzSAch/+500IURnU2Xk3FxY6ho7If7XX2pJQRpoZo0aNWtCXXwjMXQM2x4yvksZY2vXBeY+6Bo1jutY6Ci3GnqjR+mmk+uI0fF/pEX34rruDEkHYq3vowfYEyDWGiDWYkuItRAOe844h86W6WyqjLh1folrzPjYX5toYTFvvac0I8Fs5lWNSKQ+GiwQCZqH1JAQlyuNDPcdO4JPPuPsM5Du4sQW6Uv7OGr5IAU32xw1XWPr1tEqwpMSewTEGocdoACx1gCxFlN/UmGV/PffzuGj6HJgOjuR2+q4vBLXxGPjdq4lKjMzaWaemG09qIQg7ZDCIlnXIUIgIPh8LOJud3zbP/G/t7GIrV8f++332O+rafz6W/jtd0NLXqW7jb7+RvClhf6bbvXfcrv/5tv8/3eX9/yLPSed4jnlNBqTp/E9+nimnk7eUC6dPmBtIc3Oxnfu9F5xJVdWRROvdTYkdzPIVXFOYfT7H2nNGHPY7jUQa90cE8A+A7HWALEWW+SkIv2JyLJP6Yy1WXcHYuLW+SbP2ecJwRAtLI65u40QDlMtDgaFUChut8fWrImtWxdbuza2YX3ky68jHy+NLP00smx5+MOPg88+H3zuBfr1xZcCDzzku36O74abfDfe7Jt9o+eMczxTTqVCPPV093EnOQ8b6uw/yDlgMAm6YWFOMV17jkWBiS72rEZReX0UV5CrPjlMZraLeGzTZulT6qtBE1YUCS1ewvfsR8qutzSt3Ry2HfKjq76T6wTsPhBrnR0TwD4AsdYAsRZb6qQizZMFn3yaKyzTYXJnVQ2XV+w58xzB56eFNc5hl2UX/L0ttpo48R+xP9bTbQI/+DD81ts03ns/9NwLgbvvC9xzPwvvzKvIFYjn3As8513oOeNs17HHu44+jsYxx7tGH0lteOAQWu69KwAAIABJREFUGoMOd9R0dZir5VyFCqv9oA72gzvK0S6XLiSnBlHkwjI5isvpQFaD/DpbB4MFW3Ku0WB9Ug1rLbFw8vnVMuoNdmOBJl6vdY4YQ9NCjObWpIlzi0KvvCbXBth9INboMEABYq0BYi224GyN9Id8s2/k8vS1awwLW509p9B76XRaUiWfVVewdPlQiLSg++jj+N79+b4D+T4D6Nduvfi67nznHjTqutcrLPmmwlo/E0wir6ReiHOKiM/VR3E5V2pRg97ZSOyx5BSuhq1ul0hUZ7bjYGLs7Rghn9Z37Wy14PpEMiTB6XRPOdVwbk0XBikOPvcCrQcdN3EqgFijwwAFiLUGiLXYgmKt7MnsPmEynbfW31m8qoYrKvPdMEc+7Orv4CudUF2TTrQfmkuXlTBZ5Cir3GWeuMJKtZiFpXrXmeAauh0giwZC3PwUcsuPEZPFOfQIIab3RY6ZW/NO15jxdDcZ/Y3KpoKJ9Ysv00rQ31BNKRBrdBigALHWALEWWza/UEoIia1Zyw8Y7NDlU1OVnbjCUt/1c+SK1dnxVzqh+q6+jmZcaOeG0yXBKQpyVWCtDX+8lBZc3zm4UrPSUdmrv4GeZWRi/fyLtAZ0Nk5TDcQaHQYoQKw1QKzFFpcG6c+FP/zYUVnDkYNylb7qXDJLrsQcfPJpWlidLcAntV3w2efpnHTaqzrVUVXDFZT6Zl1LiizofnM+qYDB+Y/Q7WMMchiUcqzJgYgWX98XTkkHYg2xBgoQaw0QazEdJxXpuBxY8Ki8kq7Oql2a8OMqrKGnnk1P9aYO6XQS+fobeXWXtFd1ituRKyp3jRwb37mTll1P7aiFpWlFoq4jRtPcHp0NyUbDVse1z49+9z0tvr4bN+lArCHWQAFirQFiLabjpKLs6+GbOUufj0yRGq6wcmWV5NyTnhpOJYLbQ59Q1N829dqQ1gYJvbiQFlv3k9bSkAzMX0AzrY2QDUIunEoqoj//QsuurxGaciDWEGugALHWALEW03RSYTNkbrf7uJO4onIdujVRk/IqvmvPyIrPaXn1lBMiCKTVHCaz/seLlT6N6ho3UeB5VvB0V30qkUoX/eUXmkCve7Fmx8Be/WMb/6Jlh1jvERBrfR8KwJ4AsdYAsRbTd1KRl9Fdx/cdqMMdGS1Uy6h9du4R/eF/tLz6mPJk85pz53GFJh02mTZstVxeUWjRElp2fesXW5J8+w5yZND/wbCqhlw/uI6eFDfCJVPSgVijwwAFiLUGiLWYVl2QDtCRjz+RNgHR4wHaWkuuGVxDR8TWb0hzVScLqQjR777n8o0h1qRPllXSdfc8Xlp8HZ9QmVjvtDsHD+fKKnU4GBPDVsflFnsvuFgekjpu1lQAsUaHAQoQaw0QazHdtsceZHx4Ad1HWpeiRty6sNQ1bFR82zZa3mw/Isvzmtudw0YZZWk2aQlF/+130OLrKaWnAbJY73QOHMLp/mBY3dl+aG7ggYdowSO6uJXUkkCss/0wDpIHxFoDxFpMt1iL8kHKO3MWl19C0yfSXj9JD+LWRWXuEycLHJcRFb6PsB00b5jDdciny4OkvXpTHeywYK2NfP4FLb4+Unq0SMMwtn49vV7S95GQlI4uUl4T+Uhaay+q34ulFAGxhlgDBYi1Boi1mAGexx5k9Hhdx57AFZj06WrErfNLPKefLQSDGVHn+4JkluF33pXPqUYYNey2w8gxcYeD1kBWN19TSMMw9ObbdKEefd+IkNYDcQ4ZHv9buomky9ZMKRBriDVQgFhrgFiLmXFeYQ8yrvuDfCrdJhhIS0z4rrqGlldZcDArYRdCLpdr3ESjLM1mkZfe8551rtx22dt8TSGNQc+0M+iTxPo+Ekpb/3jOOJuWWse5PakDYq2/4Q/2Foi1Boi1mBliLSoH6/c/pEvv6XXzEXJGLyz13XI7LW+GVPveIU1a+268yRBLsyU2X1G575r/0I0YyZk1q1uwAWw/1BVf0PtFRthWs7wq+Izu9m9qMSDWEGugALHWALEWM+nUwnbMfuJp3d6MljoYV2oJPv6UWt6shOXjrl1Lr4KM4GFy87EHGct8114vRCK0HrK3BRNhpQgE3CdMpovK63LoJUa5le/ZN759By01DGkvgFij2wAFiLUGiLWYYXLAdmS87nout0iHu8ZYpI1jzDZy5RB+6x1a3iy/E+0970I6aW2QgWOpZjnlXFGpb9a1gldagC/LW1CMy1Pv9P5DgUmfTw8nhpQH4rv6unTXezYDsYZYAwWItQaItZiJYk2UxXPyVK5Qp/m7dNFuK2+rC7//AS1yRtX/7sM26vt2lcM4adYsyPChOSFl7uNPkvfto56RnSdaJaEl8OgTdL1LS7X+j4FsJ/MfpT2bsnTopR2INcQaKECsNUCsxcw7u7AHGUmjHHa4bhe3Jmd3k5nv0jP2y6+0yNm4ghu7BAoE3JOn0s1idHl7oakgI0haJ4TvMzD8zrtyhZB+m12nWzbw4/HAw48axaptdfacQu/5F8ktlV3tlTlArNFzgALEWgPEWsw8sRbljxRZ+S21ar22C3Hrskq+78CEWc9sg51fP14qLwysy2ZqJohbEx8127xXzIrv3EkrhPRbco2UgQOqAexz0jUuPd4ZV9FbQ0ZYNpH10qqayLJPaSVg+eq9BmINsQYKEGsNEGsxI8ValCdxQ4tfoSm8Fp3OpUkL8LmOOS6+7R9a5MxsiGZQEgk8Z59vuElrFtLtFNKIzj4Dg888RzxVrpZYBjclu4QThMjX37jGTqALJhrBqi3ymjyes86jxc+6sZZRQKwh1kABYq0BYi1m6jlGkA/f/tvu0O0iIRbpZJ9f4pk8TQhLq0xk3fFa6jzRH//n6NTFQMuDJIaUck0GFJdT6D7+5NCrrwuBAK0Z1pSkfjJhfLFLIGX5bTLwfdfPoTPuJRX0wxvkuGe2ERGM/vSzXCFgr4FYo/8ABYi1Boi1mKliLSq7qMTinjPPofNqep0QlTY8906fKW/KmHWHbLaQy5yb6fWPXttoN9sxv9RRVukcNS7wyKMC26NR1eu0pIiQvx6NCiyDnym13R647wG+/2ByGUA/s16vVxttncIy3+wb6hsF7DUQa3QhoACx1gCxFjNYrEWlgXjedeTRunVr6Uk4e4cC/x13q0XOJpixcQ7nkCNo3o4u22g3w1YrLcZX5jCZ+e69vVfMiqz4QnDw9adhYiQkUv2YI5smJ39I+SuC1xv99Tf/TbfyPfpyJRV0c1NbnVEOdxb52tV1+EiBS7jaAXsNxBpdCChArDVArMWMNznpIB79+RdiKrpdJISt4FZYGnzkMVrkDG8RLexE+9Y7XFmlURJ2mwmWXFFeRWSOyy9xHXmUb/aNoSWvxtb+IQqNtSy7M8PWk1ZD3Ti9qdC+uMF7Smu2RFZ+G3hwPt35pcJKl6lmRzldDqKmgu3KVF4Vfuttta+CfQJiDbEGChBrDRBrMRs0Tj2O090rdHocZ6f/Cmvo9TdokbNuAT6pF3mv/Y9Bn2JsNIi/kiipsHfI50oqnP0HuY8/2T/nltDiV8mFohAOp6IdBJ8/+u2q4PMvei+/gjg937kH16FAXvfDUD6thq2OXFH4r5+j9lKwr0CsIdZAAWKtAWItZsnJRjqUBx56WOcPMpJOWNc98tXXapGzBjZF6nbLC03otY32qlkd1XX0a6mFyytmq9zwnbrw3fu4Jp3ou/LqwMMLQkteJY0eXb0m9tdfZFSSEDxewetrPNye+LZt5DWxP/+M/vY7OdOHFr8SmPug97IZ7uNO5rv0lHSHzk/TKeoKK8360P1+ik2FtNy4a8LRYpY+wJCZQKzRkYACxFoDxFrMErFWDmTeK66iz10RV0h7NaYiiFuXmvneA2Jr1iaWOjtgezGu+o7v2tNAo2k3g2XIWGvlaiG+W1bpMJmJZxPz4/JLqHPnFfPdejv7DSLhPmmK++RTGonJU90nnOwaOMTZdxBf152MBfqL5NfJm5C3MpkdZVXUdaS+VP/njBl0GyYL37OfPJqy4kCXFUCss+vIDFIJxFoDxFrMnvONvNu5z3PiFCITenbr4nLXmAnxzVtoqbOldRjSGZeuPk6fNDXMOm57HSw9gwWRYBJEuMmBiOVnNxNEysnLzDb5t9g7ILs9Mdg9k8qayAcfqT0TJAeINcQaKECsNUCsxaxSN7bb+Z8bnYOG6fZBRgu9f23PL/Gcfd4uKyJnBXR5RGn18f+7k8svQbL1HgeTYza33UxAo3cjyAVq6MmnabfEJovJBWKdRcdkkGIg1hog1mJWibWo7Hb++Rc825FEr01mq+Pyir2XzZBbJ4uO48qaFeTDczlFdAW6tFcmwmhR2YkrtQTue4B2yHj2jJ1sAWKdRQdkkGIg1hog1mK2ibUonylDi5ZwbKs/vbZaVQ1XYvbfejstcsKaxFkAW9na73dPOVXPSTuIDAxyNLDV2XOLfNddL13jSXu4guQCsc6iozFIMRBrDRBrMQvFWlR2O7/9Trq4m14TQirpJsxcqSX0wktqkbMGZWcf98lT4daIFgq2Hjyx6ulXipFII8t7g6QAsUa/AgoQaw0QazE7xZptkCEIngsu1rNbk3KZbQ5zdTgbH8Big4vj3JOncbnFyLdGpDbYSvAlFd6Zs8SEXdxB8oFYo2sBBYi1Boi1mJ1iLdbvpE13Oy+u0O1KvWzJsO59or/8SkudXY3FFnLhHJi3RqQ2pEtrrrjcf/8DcseD+qQOiDV6F1CAWGuAWIvZ5mqJsEVC1q3ju/biSi26nbe21nJFZc5ho+Ib/1JLnTVI52CBd3pOPoXrUAC3RiQ5pDUH6fqDZltwweO0y7E93kHqgFijgwEFiLUGiLWYbaLWgEiEfvl4Kd3q3KzfQ7y0gZz7uJMEp4uWOruajI0yu91z3kVcXolur38QaQkyNApK+W69Q2+8STtbdj3mm6VArNHHgALEWgPEWsw2S9PCdjt/9EmuqFzPLWitI1bqveRyOdM6u47s7NPG475r/0M3pbdUQ68R+xrStjhcfolr5Njozz+zDpZl4yJLgVijmwEFiLUGiLWY/WItyoc531XXUGnTsbHRBfgq/LdIC/BlXauRDyx95uBjTzgsnTiTBUtcI/Y+bHV0f8rics85F8R32mkHy65He7MaiDXEGihArDVArMUsVDQtUhEEn99zyqlcYZluF6BQ1j0IPv8iLTVb+iCLUPZlDL/7Ht9/EFdgkncQTHvFIrIrbDQziu/UJfj4k/LhSwcHsSwCYg2xBgoQaw0Qa1Ev5yR1t/PBw4l66nbempSrrNJRVRtZtpyWOhtn6VhLrV/vnjyV3mGQHj5Lf8UiMj/YTu9mG7kkc088Nvrj/2h3QlJ1ywOxRpcDChBrDRBrUS9iLcoFia763lHbTc+taa3lTGa+d//o76vVUmcZbKkQn99/2x0OaQ4eq4Ug/iVYRnVROZG5wH0PCF6v3JGgOC0PxBq9DihArDVArMXsNLOmkHY7Dy5aQqd1STH12qCSW7tGHRnfvoOWOhuP8spzZpFlnzqHDKerXCMtBNFosIlqk4UujDPl1Oivv8n9R08HruwCYp2Nh1yQGiDWGiDWor7EWpSLQ3c71/eOJNYarqDUc+oZQiBAS52lB3rpDB3/e5t3xpVcqYVcLbBdqdNfvYhMCGmW2lFh5XKLXYePCL36uhAK0W6D/V/SC8Qa3Q8oQKw1QKxF3Yk12+08Hveee4E9T9c7aVtrufwS37Wzs3v2jpyk43FBECLLP3ONHEuzrslI1PEVEWJ3ghyjqusc5FqroNTZe0Bg3vy4g6e9Jau7um6AWEOsgQLEWgPEWtSdWIvKIiG80zlqHF0kRK8zoFKuC1dUHnjkMVrq7D3WK7Yk+Hz+u+7lu/Tkcoqk0um04RDNBxmwZpu9QwHfo6/vmv/E2IajIjKqMwaINfohUIBYa4BYi3oUa1FZeuLX38i5mW53rGO3NtMtJ+u3nctS2H0GidjPv/iunU1XKWZrhiD32gjBUoDI1worl1fM13X333RrbM0auW8kdA+QfiDWEGugALHWALEWdSrWonz0j7zzPjlVy6VOe82nIqpoazo6d4/+8CMtddYtbt0A9vljMVIczznnS1PyZfRRVFudbq+OEKRxpYaWlrsZ4J9zS+zPjaIQlxc+1+sBKnuBWEOsgQLEWgPEWtSvWIuypQXmPUTlTMdaRhcJqXANHxXbtImWOtsblJy2lan36Pc/ei+7gt52yC1ymMw0Y17H7WjAkFrTnlNIrp1c4yYGHnhI3kZx124AMguINcQaKECsNUCsxez3sGZQVg/wXjKdyytxWPXrZNKDjO6TptQvm5DtJHTL6K+/Be693zn0CFJGrriC3oJQMwfSXvOIPQ221ofZRteBkZbu8U6fGX77XcHhoI2NxI/MB2KtgwMsSBIQaw0Qa1HXYi3KR8A453CNP4YrLte7W5t8V8yipY5GdXLoT3Cs+I4d4Xfec087g24AZDLTDOyyKoe1jk5jG2TkZnUQmZYWe6EpH9LVkWvM+MC8+dF1fwjhsNTAcUxRZwcQa30cXUEygFhrgFiLehdrUT4NxP5Y7+w/mCvV74OMFuouXIEpcN8Daql1gpoVIJ3PYn/8EZj3kPv4k/kefbjcIlJkeV90Hbds9gY52tho05DLWnv7PNJMztFHeq+8mgqKeuQh3+jmUtAIQKzRV4ECxFoDxFo0gFiLypng46XsHrRuG1paJISvrA6/+RYttc5adtc1jIVIJPq/n4KPPuGZdjrfuTuXW0z3uyajmLSvRck30GtDZ2yw7U7Vmq+wciYzXTzRZHZNPNZ/062RDz/eZUsjZH1kIxBriDVQgFhrgFiLutOvppCKGXjkUZpCoOOpzcpOXKnF0blH5Otv1FLrDbZYhDIlL/gDsXV/hF573XvpdGffgTQDu6ySKyjlSiocZiudySanf8xnp7jX0eol9Uy+lleSIUYvckhD2Orcx50UmPdQ9NtVcZZCrTafLnumQYBYQ6yBAsRaA8Ra1Kl7NUUs5r34ci7fpPMdGYvLXSPGxrfoun0lPxN2XV5Q8PvJFUVg7jz31NOcg4fztd3oTHaHfJrXK3mebNgGGempDlKTpD5JrZZXkRq2t8slPs336ucafaT3sitCi1+Jb9++i4KwyyFISbYDsUYfBgoQaw2qWPc9jM6vsDOu7oMUs8Lq7DcovvVvtRIMAdvej+Pc44+mC/DZatPfFikKWx1XWOqZMk3wemnB9X0aUDax3+UnpLV37ows/yzw+FPey69wTzqR79ab61hAc7KLSh0mC9tYh54s1UGhDv90n7wzKBIPGokXJGYbV1ZJL1dIfXYs5Lv3cR93ku+664MvLYz+9HPDpWlYA+m7ExoKVaw7dXGYq41y3pQCYg0aALHWoIp1z350lVzi1uVV+g9STJPZ2au/zmc0G0XdkbH3AEdJhZ5b3FJNPNJ35TXprvGWRV2sbddnNwWnK7Z6TfiTpYEFjxHPdo2dwC4vSUVxJRVUEAvLaOpIWaX8HGR1Z3rdpU5vG8S2VYem89C1cmoHqRDi0KSWSBUVlztKLewpBdfgYb5LpwcXPBb5ZFl07bq4yyXXv4hkD73DxPr9D2n3IP1Bx0dRTcgpdhBroACx1hCXFhnYvNk59Ai+thvftRffpaf+gxSztptz2Mj439ukSjDY+Y+dFd5821HbPf1tkdLo1puvrgu+8BIttdFaWZSXbxMiETbM6xEEIRwWeD767argwsX+G2/xnHqma9Q456BhfPc+dP2KwlL7oTl0eju/hN7ZYCpJRVPKJGG2ne3CnTgPzQrVqTP9ObvSKDBxOYWkEhzEpG21fI++ziHDXROP9V4+M/DAQ5HPv4hv/VsIhhrohUBGFqltPS1HAxpFOpiEly7je/bjO/cwynlTisiq72gNQKyBAsS6ccgZIvr9D9Gvv4l+s9IoQQr7/Q/yHVtjEo3qv9FXfhv96uvod9/T8hr5TMCmsWmCb9MJCQJdJzv64//Cb78beOwJ/y23e6fPdE893TXhGOfAIXxNVy6vmOYQdyxkC/zR5/NMZurc5VX1WSWJztogqhSLVSOJd6j/9Z3Vz8Y+aoWVfvJSCy0FKUtuMZdTZD+4g6Oy2tmzr2vEWPfJp3guvsx/+53Bp54Jv/9h9H8/xZ3OxqtOnZxWNmMC+oelWpFLU3KESftRrmVDcHvSXfsgs4BYA6AACTAyzALV5OwmnqgjV55x+87Yhg2x//0UWfF55MOPAk88FXjgId+sa72XXO4++njX2Il8z37UU4mtKjeL6YaCLExmOvvLoricplIkRomZviApUbTrm5O/pf5d6ZPIFwDlUhoYierOrpHjyIf3XnQpKUtg7oNEoCNLl0VXfRdbvSa+9e+4z9dIpbFHD+HQAACgALFuGnbOMFoYHGZURgjwr6ieHY3SiESac0fpxUIwKAQCgtst8LzAccRKI59/Qfw7+PwLwQWPBp96OnDbHb7LZ/qmX+mbcZVn6umu0Ue6xoyXY+wE56DDnQMGOwcO2fdwjRhT/85jxnvPucA382ryp/1XXhN8eEHwsceDL74UWfFF5LMVsbXrBI/0gf1+up50MwlCpIykEkhVsC4EkwYNUFe9NFRgIIBdgVgDAMDukTilrV6DJW91i7jdHt+2Lf7PP/sa27bt67WT+rinWlgs4gEAALsBxBoAAJKEmk/SIBL1NDFiu0YSxZXOHSa8s/ZPN/VRAQAA7AMQawAAyAyakt29CAAAAOkAYg0AAAAAAEASgFgDAAAAAACQBCDWAAAAAAAAJAGINQAAAAAAAEkAYg0AAAAAAEASgFgDAAAAAACQBCDWAAAAAAAAJAGINQAAAAAAAEkAYg0AAAAAAEASgFgDAAAAAACQBCDWAAAAAAAAJAGINQAAAAAAAEkAYg0AAAAAAEASgFgDAAAAAACQBCDWAAAAAAAAJAGINQAAAAAAAEkAYg0AAAAAAEASgFgDAAAAAACQBCDWAAAAAAAAJAGINQAAAAAAAEkAYg0AAAAAAEASgFgDAAAAAPx/e+8BH0W1/v9/f7//63evXxs1hJAEUiCkECBACL13lN7hIiJFUMB+USkXBBHhClcQBa40QVGpgnRRQUAEpYmKAgoqLbub3WST7GY32f9z5pmdbHZnS5JJw8/79bxCSGbOnDKZec/ZM+cAoAEQawAAAAAAADQAYg0AAAAAAIAGQKwBAAAAAADQAIg1AAAAAAAAGgCxBgAAAAAAQAMg1gAAAAAAAGgAxBoAAAAAAAANgFgDAAAAAACgARBrAAAAAAAANABiDQAAAAAAgAZArAEAAAAAANAAiDUAAAAAAAAaALEGAAAAAABAAyDWAAAAAAAAaADEGgAAAAAAAA2AWAMAAAAAAKABEGsAAAAAAAA0AGINAAAAAACABkCsAQAAAAAA0ACINQAAAAAAABoAsQYAAAAAAEADINYAAAAAAABoAMQaAAAAAAAADYBYAwAAAAAAoAEQawAAAAAAADQAYg0AAAAAAIAGQKwBAAAAAADQAIg1AAAAAAAAGgCxBgAAAAAAQAMg1gAAAAAAAGgAxBoAAAAAAAANgFgDAAAAAACgARBrAAAAAAAANABiDQAAAAAAgAZArAEAAAAAANAAiDUAAAAAAAAaALEGAAAAAABAAyDWAAAAAAAAaADEGgAAAAAAAA2AWAMAAAAAAKABEGsAAAAAAAA0AGINAAAAAACABkCsAQAAAAAA0ACINQAAAAAAABoAsQYAAAAAAEADINYAAAAAAABoAMQaAAAAAAAADYBYF5dcCbvdngcAABJ2Cf6+rC9RXqCM2e0i6BsEAoHIc14TcnPF96CoQKyLCN87SanLOiMAgPILP3WXdS4KQvmx2co6EwCAcgy5TU4O9LpoQKyLAt0slY6oO3funD9//sCBA+vWrVsLAABr1x48ePDMmTM3b97kq0R56bp26YjKM6TZzp7L2X8w+79rs/7zVtaytxEIxF863lxh3b7TdvR47rXfHdxpSJcL9F4XHoh14XDtoj5y5Mi8efOGDh3avHnzunXrxgIAgES9evWaNGkyaNCgGTNm7N+/PycnxyHpdZl9xqV81Otw2E6eypw519S7nz46PvWeKrr7g3QP1EAgEH/1eDBYRxeEKiFpbTplTJ6WvX4TPX6z9zjw4XxhgFgXAh5OTd+cPHly/Pjx5NN0B23UqFFycnLLli1bAACABF0Q6PpAF4eYmJhmzZoNHz78s88+c5SVW9MR7WI4iu3Hn9JHjzNExekeCNJVC9WHResjY/V16iMQCISICLogxOhq1BbP20Hhxjads/+7Lo8vWfZyNqStHAOxDhS+HZpMpldffZXulImJifSV7qApKSl0B00GAICC0MWBLhF0fWjYsGFSUtLs2bPT0tIcBT/4KnGkXuq87OysN1fQjVNXLUwfEilun7Vj9OH19GF1EQgEokDQxUG6RJBbU5iGjLJfviouJnDrwIBYBwS/fnT9+vWxY8cmJCTwLRM+DQAIBL5cxMXFDR8+/OpVcYsqJbeWjpJnMmU88ZSuck19aDR8GoFABBp0uSC9frBGWpOWOXsPiEsKxlsHAMTaP/zW0Y0bNwYOHBgfH9+iRYuyvk0DACoeLVu2pAtIv379rly54igFt+a+6qys9CEjdZVDoNQIBKIoUae+LiicLiDW7Z84HA6Mt/YLxNoPbNVms3nMmDENGjSAVQMAigy5NV1GBgwYQA/qjlLpt86YPE1YdZ36ZX97RiAQFTQiYnXBEYbYxvaz58RlBWNCfAKx9gPf+ebNmxcfH5+SklLW92UAQMWGHs4TEhKeffZZW4lOJi0lnv3uOl3VWuirRiAQxQ1y6yohxq4P5RqN4gqDMSHegVj7godWf/nll40bN6Y7IgZVAwCKDz2iN2zYcOfOnQ7nZ2JaX7lEd4D9x0uGBs10NSOFWJf5XRmBQFT0qFNfV6lKNoE7AAAgAElEQVRm5utvOBwQa19ArL3CN7zs7OzJkycnJCRgEAgAQBPoEZ2e1fv165eVlVVyV7DMl/+le6CGeLu/zO/HCATi7ojQaEPdhNzLV1iSSu7yVaGBWHuFxfrEiROJiYkYBAIA0JYmTZp8/PHHDucnYxpeuUSaV68a6jYo+9swAoG4m6J2jK5aWOaLsxwOjLT2CsTaD3PmzCGxxiAQAICGtGjRIjY2dtq0aQ7pRQ4tB4RISWUtXa6rGqqvjaHVCARCu5DE2tixh3NRRnRaqwCx9oXVau3Zs2eTJk3K+i4MALirSElJSUpK6tWr1+XLlx3aTg8iibWxR19dUG28s4hAILQMuqSERusj43IOfyGuNjZ0WqsAsVaH73OnTp1q0aJFs2bNyvouDAC42yC3TkxM/OILcX/SbDQIz12t1xsaNtfVqAOxRiAQGkdkXOo9VbLeXCEuOCU6tVGFBWKtDov1p59+Svc/iDUAQHNatWoVFRX1/vvvOzQUa+nClXPkmL5ugr5WFMQagUBoHBGxuvurm6fPEBccvL+oBsRaHb7PLVu2rFGjRhhgDQDQnBYtWtSvX58uMg4NJ92TLlzWfQfFZCAQawQCoXnUqa+rXDNjzIQ8q9XhgFurALFWh8V66dKlDRs2vAvEurlEWecCAJAPi/Wbb77p0FqsLZs2i3GQZX4DRiAQd1/UidFVCzX1G5JnNDkcEGsVINbqsFj/5z//KVc91s2aNWvqQiBjVCjzKSkpVAp6QkhKSmrSpEmhdgcAlBAlIta84OJ/3tIFhaO7GoFAaB916gux7j80zwSxVgdirU55E2vKA+Vk8eLFFovl9u3bd+7cycrKmjVrlu/s8a8SExMffvjhBQsWHD9+/ObNmzoJSmHixIlY+AaAsqIExXr5O7oamBIEgUCUQECs/QGxVqd8ivWKFSs4b/xuJbmyj5Eq/POkpKR58+bp9XqH8+atfJ06dWpcXBzEGoAyoSTF+u27RKypCBpGmRcHgbgLAmLtD4i1OuVTrN966y2HuHXaOHuvvvqqN7FWrHrNmjUO6bZNLk578b70PX3z5JNPxsfHQ6wBKBMg1n4iNFpXPVybqBamC8bkgwiEFgGx9gfEWp3yLNZKj7UPsU5JSUlISHj99dcdkojTbZv2Qo81AOUHiLWvCI2m+3daq44aRMsOaW06Gxql6EMiK3adIBDlISDW/oBYq1OhxZo37tOnT1qaWHQ0T4K++f333z/99NMVK1a8KUEbNG7cuDyUDoC/IBBrr0E5r1EnLamFhnVi3bYz9W+V9JFxZV86BKJCB8TaHxBrdSq6WNPPV69e7ZBWuuGNDx8+/PDDD8fGxsbExNSXSEpKKg9FA+CvCcTaa7iKNdUMB12TqXSFCrr00Y45OZSMdeuO1L9DrBGIYgfE2h8Qa3UqtFg3bdq0Z8+e6enpDucSktevX+/Ro0d8fHyrVq1aOCkP5QLgLwvE2mugxxqBKLcBsfYHxFqdiivWdLeOiYnZuHGjQ7JqvmEvXLiQfti6deuyyj8oZZp7p6yzpjEVt5h3g1iX0JwbamJt//my7cRJ26lvbd+cDihOnspLMyp1ArFGILQJiLU/INbqVFCxpu+bNGnStWvXq1evKqWg71u1aqWabLOCFDZX3nZvVgwCOVYxs1fMHKrmoQjZKwlSJCgPdBo0bty4kQuNJejnyZLS+T6rA68EXoGI8Jag5lXtWlg6aNOmTV1LysWkH3LGiledJUuFF+vQaDqKLihcLEYTXEfLlN2GgkhkPD5VH1TbUL+hITrBf9RtYKgdk/P5lyIBHgoCsUYgNAmItT8g1upUULFu2bIl3arnzJnDm/HdmjZLSEhQlYyUggReUtYdt929JVsovOWhUPmkDTxz6LZBcTKZ4lGZhcpeScAlSkxM5EV/Onbs2Lt374kTJ06bNm3KlClPPfXU8OHDu3Xr1qFDB5LOuLi4ZEnsfKcWSCWQxdIRKUGqcM8Ei1/P3ia9oZ83aNAgKSmpXbt2PXr0GD9+PJWUijl69Oju3bvTD+lPg2qjPA95qthiHRqtj04wDRmV/o/H0kePM/Xur+Ui6qpi/djjugeC6KYuDuQ3wupSDeQc+twBsUYgtA2ItT8g1upURLHm7uq2bdueO3dOKYJeryfP4H5KtwTph2Qkhw4dOnDgwL59+44ePbpgwYJAOlxpX9KpWbNmffXVV3v37t2/f//nn38+ePBgXjK9S5cun3322YHCQ+l88cUXixcvVrRYyWf79u03b95MydLhKJ/05EA/9NYu5CukemPGjKGiUZpUNEp2w4YNpFkkZPRbssA33niDMk+/KkI+aa9jx44NHTqUE6RST5gwgQ7Bqe3Zs2fgwIHULp7yXXJwNig/1ArUiIcPH/7jjz88z2qbzXb58uUPP/yQhJt2ITFVfUKgnz/77LNU21R7Purh4MGDO3fuXLVqFR1x7NixrVq1oopVEuSGo5ai9ipaPdPRqQUpq275pBakvwWqYar2TZs2/fjjj3yqK5CkXrhw4e2336Y2oixRNkqzLQKnAos1pVwzIi2lXe6dVPmwx06Iyew0TN9TrMdN0lUK1kfGBrQWTO0YXc2InM8+d/gWa9VxLM4U8qNoY10805GTKnwi2i6CE15XJWN+i6nJojxlu16PaotwwTVpC22bMpBkVYpTyBOsCAGx9gfEWp2KKNbcYfnSSy/xNlyE1atXq86px97Trl27X375RSnvrVu3evbs6XeZdNqxQ4cO5C7KjqmpqeTo5HZ0rIceeshRJFHgQpGupUiDGZTDUZpdu3a9ffs2/TZHukd+9NFH3qY0YSmnr+TNrnX1888/s/a1bNkyOjqajE3JfGGxSe4yadIkSpBSoyZQPiLgUpDwlebKO3Qganeqoq1btxoMBtdzONcFpSq4dY4cOUIPAFS3btJJJYqJiSErVVokEKhdzpw5M23aNJJgZZQztRG1lFJjhYVPofnz55N9Uq6UwlLdUs7JvLOyshwuix95FpOeKsm86VzlruvSaY7AqfBi3bxtvlgfPVbiYv3YJN2DNfQRsQGmoAuu41+sKc/BdaSIEP3c7DE1I8T4lqq1dFWkoG+qh9EPZYkJJPPcrR5ch3bUVQ2V06GoHqqndpGTCqB1QqKc2Qs4fH9uwPmnDFABq4Xml1EUM1QUk7JXK0rF52oVPif5FeuSjvJzykMJnZyqpaagItSoLVqkWmiBUtN/g8Ll/Pj4k6kZ6b+wdDpx7XmeJ4HsrhqqFcUPA3Q4bkelOFwWPg3qBHCuFi0g1v6AWKtTEcWahJIkiUWZNzAajUOHDlXtmEx2LiKzcOFC2tJqtbKzPv/88z6WSU92zuVH7uiQhIn32rhxI5suZbJ3794OF6sLxBjYjVi/9u7d69ZjTSl37tz5+vXr9FuLxUJfP/jgA28zcNMPqVDz5s3j7CnJXrp0KUCx5sz4yLynWM+ePdshySVtn52dPXbsWB6PoUXL+4GfpkaPHv3bb79x5qkpvT0w8DpBykMXPUcNHjzYrSZdbU9pRG+pUVVQeemIvA19XblyJcs6N9yHH37o8CLWfuuZf/jKK68oYs2fNkyfPp1ObD6ccmg36IfcHA7pmWrIkCHl0K0h1r7SLxWxNsQ2NjRsbkhMNjRoqo+oT1ZEXmKIb5IxfnL2qjXWHbusW7ZnrViVMWmqoUEzWVl8uzV3llcLpaTSmrXJmPBE1tJlIp2tOywffJg57zXTkJGG+o10QbWFcZJ/+0gqNFqMFKe8FSZ81Y+UMV1IJBU2ffjozBn/yl6/kaqF8iaKufwd89PPG7v0NkTFi/y7unWtKJGTRimFzYyIhKb5jxDh9eQfUp3HNymlTmvpswtRosh4Y5de5qnPZv3nLYtUZOv2nZZ1GzPnvJo+bLSoOnoQovblhyL3Zq1riE/yX9iYhnSC6STZLXCeUFPGNpLPtEIFV5RbfiiH0rOfoV4i2W3mzDmWzR+Ldty2M2vZiowpz6SltKWHGV21sEJ0xhcqINb+gFirU+HEmswjPj5euUlz/vfs2ePZJanATjZ8+HDWFN7lyy+/pF385mTz5s0Ol1lHJk+ezJZJv1J6rPlXZrP5zp07Ou/o9XoWLy7Uvn373Hqsyc+6dOnCYxvY4+no3sSa3928efOmwykrnj3WdevW3b59OznZ7du3XXOSmppqMBhcrZSs0TPDtBdleNy4cVThLNb/+te/lAqkZB977LHSEWuunJ49e964ccPh8jEFfb169eqRI0fIa9evX7927dpPPvnkwoULrgsG8ZbHjx936/tn21u2bJlSgfSVdnSrBGpTpcOYK1k5LV988UUuPqX87rvvetYzNzpngHdXrWdqDjruSy+9xOuD8nMgWTU/XPFTExf28uXLu3fvppJu2LDhs88+41PF9Wntzz//pEcIHrpT0o0SOBBrX+mXqFhzzYTXyznwGR8iT69Pa9FeV7lm5ux5uXqD63Ed0r+5BkPWG2+S6Agn9ubWUrK6qrWM3R+2fLQ1T5rw1FM77H/8kfn6EhImXZVaXt06IlZ3f1DWgsX5KeR5D4XcXFO/IepNTxVSPdzYs2/2hk25Op3X84eelk9/mzF5mtCyUKlEkXGpf6+U9foS8UtrjtdDK3WlRK50ZbhxM61pK53Um0uSrRTH/vMvQhm5f7eEztIwyaqriycl80uzbecvOFT7CPgKdut29sp3DQ2TdVVD3RuFMhkVbz//vftZ4VEV9ks/5xw5lrl4SVqH7iId52mmqx5m3bNfaqA8XxXo9iu7yK3twkXdg8H5WRIlCtPXTcicM9/+0yX3E4yv2HSJ3LPP2HewOMFqRWtfwxBrf0Cs1alAYp0s9VXHxMSMHj3aJJ3onHlyRJIJH4N9+cUysp8DBw44nN2KZEt9+vTxMYKZjtW+fXvyKuVA586d41fiKDVXseYEyep69eo1atSo4R6MGDFiyJAhpKGXLl1SMlAcseYezY8//tjhMozBTax5KMvDDz9MWRo2bJhrZqi6nnzySZIwpWiUGcqhW7ZpL9q3Xbt2XOQyFGt2zV27djmcC9c7pPU1KT8dO3aMjo4mb4uNjaWC07MElZqyvXPnTn4c4o0zMzMnTpzoepK4ijVXHVnv888/T5VDVeTacLTjjBkzVq5c+euvvzqcIkvfUEvR+cAtSE0/cuRI13omuNG5nrnRDx06RD9U0nelc+fOPEiaTq2hQ4dShh1Oj6dvzp49+9xzz7Vt27ZevXpUTCosZb579+6vvfYan6LKlhcvXqTzlmcLKel2CRCIta/0S1OsaZtUXVqzNqRWfMlwr1XKAz/F/fCjsUM3uS/QM8+h0bqQiMxXFjikZz95eRo3nD+0XfjeNGiErnKIult7inUg+BDr6mFZry7y5vrO3aWFeCTds7z3gehTpx1ZrBctUWoyUFhYb94qM7EmB61Sy9Slt83NiT3zKRfcYf/turFzL9G+ruMoVMXaS3lltU3PyJj6rNxvLamwde9+P7t7kush1uIzhzBjt4fsFy7KG3gm6DxX88yZWUvelPOvbSVDrP0BsVanoog1/bB169YkefPnz+dRyEpP3tKlS71NBqJAt3ZyEfZCh/PuTjtyH6Hn9pRafHz8rFmzeHs+0OrVq0nrW7ZsyZlUxJolmDIZFhZGbtTQA9qYckj5/+677xxOaS6yWFOGGzRoMH78eHYvxVTcxDrZOW47MTHRNTP0E9pAmamQhW/jxo1UXn5VzhXalxQt2TkwpkzEmq2aXNlsNivF5Kcp0jWqcGoRZTEg+p4/oKAqokcd15Oc/hsVFaVMyOgp1lSf/fv3p8pxrQduO9qS6ock/uTJk8r2VPN0hvApRG2n2uh0OK5nZdC8aj0TysR51EDHjx93Pf+PHj1KrkwncLL0iY1SUjoo/ZBMXTF+bs3//ve/pTn23S8Qa1/pl65Y517/3XrgkGIqeWlp1u2fZK38r3Xrjtw//pSzYbWK0+/X34RbU/W6jWGV6iTrzbf4opPnHP6UazTZzpyzfXXcfukXR45N/q2UFHmJadg/1PutNRRrsrGg8MyFb/AGDqskx7l2Ei/b6e9sx7+myP39d86SvMKl9Pdl/td8XaWahroNiiXWN26mNSkLsZZOAGPHHrm/S81HpZM6gKkIub/+Rs1BpSZXzsvIkKuXiiyVzvbtWUP9RuJkdhkJE5BYc6HtcuNSNZqf+acYPkQaqvRYF0esKYLCTb37U5WKlOgEy5NLZL9y1XbshP3Ut2Lidj6BqSx8KdiwScs/zDCIdUBArNUp52LNt+Fz587t3r2brFRRSf45ud26devY/PwmS5t1795dGUtAX0+fPs091qpdwmRFR44cUTZOT08fOXIk5Y07gz3FetGiRfXq1SN79pxJjVIjge7cufPZs2cdxRNrLgjt+PXXXzucgyJUh4Io27tlhoSMe7LZxljF6ECULI9DcENJpwzFmkSZDdhisXDNvPLKK3Rofshx255+Qlmi4tBv9Xq9UsZdu3aR3im59RTrrKys4cOHU+V41gOLLNnquHHjuPic5oYNG1jWPetZaXQeFM7Z3rZtm7d65myTKE+bNo372jlXv/zyS5s2bejc8CwsH4XqwbWH2yG9YtuvX79y8hedXIHE2nOagtoxdLcuMCsIibXy0lvRpqooQ7G22eUDUWRnZ6/ZYGjYXLw0RkGFqh2TOfsV8mOH9OctNv/2jD6mofit0m9N8lq5Zuac+Q7pQsCtYL/6W+aLs8Qg41D543hju66WDRvlbmMpV7l/3khr11U0llsXOIv1a4u57HkGA+XBPO0587PTSdfy47kXMx6fknvturSRmliTA1UOSR88Mk8auMUlJVfLeOJpfd0GrlVh7NDdsn6jIoUOaWCDIUEM8CU7NHZ7KPOl2eanni9w9Keep22UE8+yak3Gk09TluTfPv0C5Tbj8amk5mJAQs2IUhVrMS45OueLI0pV56VnZK18N61lR5fNog1xSean/2n/5bKcManhMqY8LYRYVaxpq8zM7KXLM6Y8I5eUWmTac5mz52Wvejfn6DHZNflF9tu305q1Fh3/taJMQ0aZn38pv+qce9EJICdrNmcuWGSmZJUmpgp84eWMRyeKkf10PlQPE39xv/+hnId51hzLBx8Zu/RW/srokYB2lIeIOB+Q6JlKZXwLxLokgVirU87F2jPDilJ/+eWXTz75JA8RCQSyELKWTz75xOH0D3LlRx991POVRx72MGTIEO4a52x8++23yiBdVbF+/fXXo6OjlVkd3ApFutaxY8czZ844iifWbJk8Owdv88UXX/AIE86nm1ir1gOl2bt3b1ex/uCDD7xNP6Jkr6zEmkyUzNX1IefWrVvdunXzNvpcyTDVOb+7yWU8ceIEyy7vpSrWZKi+k6X25Y5zrnyqt8jISNVliZRGdxXrrVu3+qhnPgdIvpU8U8aokn2PmWa3pj9hh8vo84ULF5aTv+jkiiLWvAqMWwTXSa1ai8Q39/YdPmzOl0fFi3GeW1I2irB2TGmLtU0+ijXH/PzL4igFhU93f3XTiEfy2K2l1Mwz5+a/oEZWXaM2+Y28AV8HPj9C0iaSUt48CxVymXpvtfThj8i94JyxPfvE4dxeUCOReiAoa/5CLnvujRuGuMap91eXp/JQokbt1P9zr+30d9JGee5izV9Doy1bxN8OPTOIsp7+Tl+/kZi40PWInLf/rZox7Tmlzqne0h8ZJ7akOg+uo6sSUuDQFA8G5xz+gnOYZ7GkDxmVek9leUIVJaiW+LmiNMVaGtZM9SzMkt/lyMnJmDQ19X+riIlWCmwcTW1EGZNllBfp/ORT0cXuTawNadTWlFSBklLlPFgj9b7q6SPH5N68pSSVOWuucHTxoUHtAtVSPSz1gSBDbGP79z/Iyer0ZOGp91aVZpIpsGV+O360VTltcg1p6Y9NoiPmTwUjPUvQaWOol2jdsUs5FemJwtRnEOVQM7eGWPsDYq1OxRJr16kbDh8+3LNnT2XWs0BSJmcaO3Ys787isnz5ctc5zhjuOFyyZImj4Ooz5DdlLtb8ziKZpdJ8o0aNYunkEpWaWFMOx48fTz9s3bp1Cw8CbJQAoaQGDBhAT0HTp09/5513Zs2a5cNNufOYGoLqlsqlVObx48eV5ksuvFjzD0no+V1Grrf169dHRUX5bvQAxZrPz169evG0MFzJp06dSnauUuQNfg6k+nF9HyCQHUuNCiDW0sQUpt79TX0H0705P+i/vftnjH08T3odVlTv2fNiM9dtnFsau/QqdE7KQKzFv5lL3tRVrin8w7X/mF/gu6965ouz+OIivlz5lUxXnjhP9C5Xt2ze4nDI0mP/4SeSG6FEbrmljaPiU+8LImHNkzSX+xTFYGu39oqMJc3NXrtBbtWvvyEJk+ZQq19g0uKoOKoT25lzckW5ibU0utfYvqs8xEUK0k1RxiiPhXKkGSTE5N9fHVcqLXPGvygbohSq0z+HRuccOco5zLNY0x8ZL4ocGeu+WZg0c3ZpijWZ34M1rPsPKu1l3blbmCUXxG3j6HjdvdUynn7BNW8FJrlzE+s0o/DUoNruJaWmocb924OZbyyTjitaVjg6d3671QmdMyGRaU1b2X/8SU7WYKCW0tUQndOe02yLodXd+8jF4VkBnnhKPCd4lohSpkSi4nOOiw9v+SMIMnJ5cIsmtQ2x9gfEWp1yLtZ8GybVOHv2rE6ny3PBIZnQvHnzAu+0btq0KVkgqadS8HPnzpH6uL7CyGMtaDNlnCt9zcjIIJ0t8x5rHl29Y8cOJWN79uwJDw/nZEtZrK1W6/Dhw+noCQkJsQWhTPLppOFygHT0+Ph4Tpkq07XelGEY7PTUfPQIVK9ePcoJiazDRayVoefJXsR62LBh3oaC0Fdq36VLlzqcdkhfX375ZW/D9Asr1inSgjWjR4/m/HC7LFiwIJApPvhzDOXlTof0IiYdOpBRUqVAeRdr2l0apZpnSudrovCzAlFwOgL338qdhWLgBN3+a0UV7tClLNZ0dv12TV8vURm24Z6f8LqGsHq2U98q25v6DZVH0FJWU9rZL19RfpUxZrzXGT/ChTST2pLqybVK3rN1R4GZH8KkVwb/9qB16w4ue86XR6UBFR4aGlGfnN723VmlCdx6rMUojt797b9es1+7Tr8Vgk7pqJZRCl2t6KzlYg579v7M1xan/r2y1+UqQyIpY3L7k1j/4zFdVW+lLu0ea9G/u21n7s1bYrSS3Z4+aiz3HHs5zyOMvfrJmkhnwp07PsU6zfTQQOkFR4+SSp9dpI+d6HCOsLceOKSrHq5SRtoymM7wlvQMJierNxjbdhFPJmrvxdLG2cveVk7mHEqWhw+p1h65dZUQ09B/SIWRxmEbTWmtO7lPAljkgFj7A2KtTjkXa84e6Qs5zeDBgymfv//+u8M5/x3fpFevXs2y4jf/3Le3eLEYz6e8++g2GoQdZdSoUQ5H/nR+n3zyiWcmS1msKWVyuEmTJll5dKDDkZaW1qdPn8jIyG+//dZR6mJNO65ateqFF16YPXv2TBeosSZMmDBo0CDai3SKKooP6rtp/ML2rGg0Z5XEkbJNh6AW5FcM6SvV89ixY+fOnfvRRx/ppPm2uIx+xTozM7Nv3770Q3730RVydGrB+fPnp0vDRrkG6Hmvbdu2ytgSzwwXtsfaddkjPrfHjx/vTdxd4akVWfqV1hk5cqTvYS2lRoUR6wwxyKcot0+e/uLMuXIu1tyrl7lgka9KI1m5rzq/w8eykr16jXC1yDjd/UEZj4yT0pG6q0+dFvLq+vabmn6Z+gxS9Mt++aq+dv38jIXJY6ytu/bwBvSNPL9yocSag3JSp35a647pw0ab+g6WpwtUxsoXWHqwnq5ySOZssQgAj8kuWbGOS5Lfqyu4Fr2csWKevZRUSKShcYqxR5+McZP00Qn5CwC5FpwPF1Q7rVnrXJ2ey+JPrL30WEsfIKTeUznzX/OUk8SycXOB4dqu50DgYh0m+vtzf/5F/rOy281iFdKaYuZ1b38+0iGsfHpLc9SkPzpRtA7EulSAWKtTzsWajee1115LkqDb84ABA3gpRNcXvMiVA/EP7hQcMWJERkaGUva1a9dSyq4ZIB1Zvny5w2UKs+eee841/dIXa9qSJLJNmzanT592SL3FXC2UjZiYmFIWa9/rFFKFUPXeunXrhx9+2LVrF0k2lZ1f+vTdOoHAVcHTaPB/SYXpECT3b7/99s6dO+ncuHz5sslkchU4ZSpr32JNtUqJUBnnzZv3ihMS9EWLFr3//vsXL15UHmmYGTNmxMfHeytX0YaC8InHjUJPBUOGDAlk0XhepnH69Omuo6coe+VkQuuKIdadehZXrM+eL/diLTYw9uonupm9mUfteuRS6QOHs6Y4xOiXc2J7MuDKIebZr4h0skQvb9aKlV47R121r3aMPNKapwfpPzR/Fj+nGOUcO8EbkMTrXUf9KhGIWEshxrtXCRGHoBrgOgyJlAb+hlL+Ra9qTeG4ZKJUUSKxbFHMkhVr6c3IfMvnqBWlq1FHVyWUPw0olghKBxVDlisF83geef1FsSJmuCh11VA6zcR03RGxGU8+zc3n8CvWhjRjt4dT76uuC44Q6ShRLVT3QLCxY3e7dKviQUHpo8cVV6zD6/ETgjyCX7wTeYf+66ezP5IUv4pz9nGrdAqt1Wx6EIi1PyDW6lQIseZ5rOn23KpVK7JGsg3uiVSGhZDxTJo0ydvKi66J8zeHDx92OPWFFLB169bKh+ZkuiTH3C/OlUOi1rNnT9cFaMpErEmSlMUjHdIgWp6BpAzFmurH5oHnyPgTJ04MHTpUGaFeZLiKKB2SaartY8eOpaam8kE9T2yqQNd8OnyKdYC2pwzxN5vNdE5SZnzUcxFeXnRbwfHq1au9evXysfKRAj8x0gOG6wyMCxYs8PsXUTqUd7GWlILsR8xm8PK/zC/Nzg/67/SZmQvfyJMexTFoz0kAACAASURBVMU5cPkK/aTANhQvzjLPnJMx4Qkej1s4JSrl6fZSU8UCMT6EmGcYbNE+L91Z5Ou/K96TvUpMgM3DJ6i6Uu+t5j+fodE5R48prZYx8Ul5eLfiUglNxJomEpnzXxd2qDIrX2BizX20UfGiWh4I0t0fRP81xDU2tmhv7NDDNGC4+bkXs99dbztzThSBK5zHWJeEWPP2Wdm2787YvjllO3U6P77+xvLhFjpo+qixac3biScBMa1hUV+5Y1OnhoiME9Z7b1V9UG1DvQZpTVqSwpp69U8f+3jWv/9j3XdADBdxmYXaj1ib0jPGT05r2poSMbbuJEebzsauD5lfeFl+c5E/H/vG+2cXhRLrGrVNDw+U53WRZmvxP6hDvPxaw8yvonL/yKf7pLOueBcEDoi1PyDW6lQgsVZ8KDY29plnnlHu0PzNtWvXunXr5mPBF4bEt169erwSuDJL3dSpUzl91scnnniCzYa/vv/++zx9tVsmS02saTPanRyLJ49zSLPOPfnkkwkJCW3atKHilKseawUeSKOsz/LCCy8U5xxLkVZO6d69+6ZNm3h5IFdFcx15r/yKtJtXpvQ7FMSv7SkLLnLZyZXpJOGVO328Rlm2Yk0nOcS6EBEarasWJvo1XYN+8mCwoWFygVlBHqzpvhlH9fCiKFHpirXt3AVDg2byy4g+kg2uk5sqL1uYp9cb23YW9RydYD0opcMzkI4eJwZMe/uYXomaEdkbNil7Zc6YI3yXS8cvHXbqket8G9v85NO6+9RkPXCxDqtL4k4yLa2yvty6aw9Jbe7Nm/LHEZ6UsFj7gm9At+9kv706LaW9eOmwyP3W0ihznSSmYka8TR9Shu2//CLme7Z7X4XRh1hLL4CSUObpdHQCyEHfG43yukJ5zrVmLv1sbN9NnPyqmQ9crKVlbjKmPqf8IVj3HvAv1uS+VWuZBo3IM8vtSyeJ+mrtRQiItT8g1upUOLFOdq4YsnHjRiX/vNmWLVv8rhTD7yZ27tyZ/ZV3P3jwIM9wTJCn7tmzR/mVorCu40xKWax5BuWdO3cqufr000+5pPycUCZjrOkrWeCiRYtImP7jZOnSpatXr6bsnT9/XllFRenlHTNmTNFOM85znz59fvjhB4fz3T7V2RizsrIuXrxIz0LTp0/v168fL07p9+XFwG1PWdyeMrB+/XrXQUTeGj1wsabtOcPcKFeuXAlcrBMTE0mseSpAZR4biHXhwnM6CLpD14pKa9G+wDzW/LG+Z5T/eawp/ydPiWk3fAyM5giNVkbi5qXqjC3a8wwM8rp60iub4j051d5ltyCx5kk/WKxfmpUv1tLk06aBw3jYSV5WtmnwSPU1GgMRa6oKMZ1fXfPMOfbLV9wXeXE78egPmXtGrWUn1qI97HnSlNv2q7+Zho3We87zHdh5y5Np5Bz+XBlH4a3goqveeeX0I9ZeyLPZ8rItec6pG6nqRLaVk80zb4GLddVaGZOnKQuCWnfvDUisyX0HDFM+YLGd+hZiXWpArNWpiGLNctyhQ4fvv/9eKYJDkuAnnnjC78zKPKH17t27lX3//PNPsuSmEqQyruNALl265GlCpSnWtAGVaMqUKRbnkEeDwUCZ5FyVoVhbrdbRo0fzEuKNXOB+XGqCAQMG8DyAyjug1F6uRQ4QznD37t15OheqGaVzOiMjgxpo//79q1atmjlzJuWnbdu2rVu3pixRpVE9uE2353uMNW22du1aasd/F2Tx4sX8tED5V6aXVgb3e1vjsGg91iTrSqPcvHmT6jDAMdZU3qeffjrHRSaoQjDGurgRfretvCjEOs6/WFOtFuyx7iL3WB8QE8PzRCjpI8eIF8sCEev/rnU4nGI9cy4psly6iNjU+6qbn/0nHyj32nVju67qw1T8irUkcFQ066f75GzTGeL67G2zU4nsv13LOXkq6823jD36ZL0u1mgswVlBeHtTOrWIZfPHlg+3yPHBR9adu6ks9uu/y1PQ8MIuJpOxa299Yc9n4aOh5mf+Kc9p47IWppyB9IzcP/60/XTJsmV7xuNTTA8PyNMH8PJiIH+nlHOeD3vnbtGgqnOwFFaspzyT32P9ye4AxDpGuG/fwXLx+R1iiHVpAbFWpyKKdbJ0qyZteuqpp3iwgaJuFy5cILXyPSCE3xJ79NFHuQb4Ts9rU5MkzZ8vFhVTOiZXrlzp2e1XamL90UcfUcHbtGnjuha66xRsZSvWjz32GFUOrwjoCu/CTcZvWypTVYwZM6YIU1VQ3jZt2qTUAB99zZo1ZNJUFVReygav1k71zMPled49qkBHwGKdmZnZr18/eujitdzdoJ9TNuhU5NSUpWr69++v6r5FeHmR0uHTjxOnU4tqOJDFyfk0oGcApSxU1XSGY1aQ4sbdJ9ZnzxsaNPUzFEQacS4+9JfIvXFT7uSOiJXnzuO59sZP1j0Q5D+ftaLkvXha4qeezx9AIr02mv3Oaj5QzlfH86vFLRF/0+2JrzUjLB98LGdP+isgk875/EvL+k3ml2anT3zS2LmXIaah7oEaYiDyg8FZcxc4nC9iluDLiz/9LOTvwRpiIHXlmvlxfxA1hPnpF+Q3O6UqpRrQBfsbpeMaJJ1Va5kGj5LXkJfXiLFRK9NpQE8OGVOfNQ0cnta0lRgoIh3X2Lwdqa3csr7HWGdmZS97O+PpF8zTZ5hfeFmO51/KnDEn++3/2o5/LS/kKU1Gmb1mff4KLwVzWAixrhaaPm6y8jgkhl35nd9D+tAj49EJDueb5TmfH+FZCDX484RY+wNirU4FFetk58ffrispclkWL17s9xNwXszvxx9/dDiNZ9euXWw8e/fudTh1kxIk0/K0k9IU65iYGH5nkX9CnkqeTflX5uArW7H28fkA1TDJ6PTp0/lMY6MikfU7XMftuDwIhPOpaBk9CFHNsNEqS4K75Z/q9tixY0oZizOPtXII2mXRokUOl6mmSYVVS1RYseZx0pMnT3Y43wqlb1544YUAp9uj2uBnD97RYrHwKwcB1nOJArH2lX4pv7x463Zai3Z+Xl6sUdv00AB5YRcq8o8/8euGYo7ht1Y6lCnqZr+iu6+6n3xKfpO/6p7ZnD5stLzuNL+5GJ2Qc1yeEsSycXPqPVXE5G6e6fidx7p6WProxxwOWS4d9tzsde8ZO3SX1qmprru3mq5STTFzHLkjHVoqS9ZiaU76kp7H+pfLYlC7ZGnuo4xCo1P/9qBpwFCHs79AdFr37CtPFBjIyRMabYiKt507rxScqjr9kXGk7GLJw79XEUJfNVTHi9JTS9WMMHbqIQZe88ngU6xzDQZjh26p/9/9ouruD1KC6lM0U0R98+x5sls7xATSxq4PqQxlKdzLi3WM3fuQ0MsZuHbd/8sAEbGp91Yj11euCZaNHxRuZh4fAbH2B8RanYor1myi3bt351f6lOEBJpNp0KBBvovDR+G1FVlEbt++3bVr1x49ehgMBqVavvrqq2S15etKTaxJlShXac5V3+iHU6ZMce3CLM9izSN2qEpv3Lih7EWPCoGYoltV//Of/3S4DCnZv38/59Z3OlS3PKoncLH2vaQ57U7HJWF1fSeSSqS6DksRxJoeFPv378/jpLmkW7Zs8SvHfKAOHTqcPXtW2fHatWv0c6y8WNy4u8Sa5yMz+Z5uj2SiUk3zs9OVLIlF9aqHi9VeHqjBP2cZtbz/Yf58zN6yVyvKkJicP8HIrdvG1p3EMtq8zF5QuLFtZ6Xg5udezJ8wxN2f/A0FqRlh2b5TukpKdvXe+7S92IBySDXJoYyDlwYtWLZsd5TOdHveFoiRpsajupWHr/C7KDPnUD37fyWUW6pyzfRHxlOW5Oo1GNKatRYnD52iVFiecFCZy4+7hMdMyN/e7zzWfYeIHvTo+Pw65KCUQ6LoLMrhoUHSNSfr32+qPGgVah5rapd6iXnK4H5DmrFjd53q9IuuJ8aDwdlrNkhNIzXl3AWaXRMg1v6AWKtTccU62ekiCxaIT/R4S/566NAh35rIrz8OHz7cdfaPCRMmTJs2zVFwYRpvnZGlI9br1q0jtVLK5fl2ZvkX6169erGG8l4ffvhhYcWajrtq1SrXql60aBGVWrWqlTLSXo8++qjyyYNDC7FWBvd/8803ShsdPnxYdeB4EYaCUCJt2rQ5evSokmd6SqTTzPfQJl6Pk09d5VVROlA5WXYx+e4Qa+esILYjX1V0sc6c95qvHmuxml0t63axiicLk/Bd2p5+XinYNGSUWBSdL7Z//JHWqLkv72FHfy7f0e0//JjfBymJdebcV7nUuTq9oVFzr4O//Yp1rajcK1c5qbwMs+nhgfKq46qpkUHWjuFFtuU6KauVF6XF1bOWLFNqO2vBovwx6L4jMi71f6tmzXtNKUX2f9fqedq+cLU1vcWUz1Uz5y2UqltqwSKvvMiNW6O2+annlaMXOPGUKPQCMZE5J08rOcycNTf/VVfP4MQbp9h/uqSc/+nD/lGs+VXcygix9gnEWp0KLdbsIiRYX331lVIWh3Tzfumll0jgvLlXc+fK5DyhNUvPxx9/fODAASWdW7du9evXz9vw2ZIWay74tWvXMpwT6Kampnbt2tXNscqhWPOQDPph69atY2JinnvuOWV6EPr6xhtvFHYoCB135cqVrlW9ePFiH2LN66jTExcvSq+s8nPs2DGl3ZMLKdZcKDoi1VKPHj3u3LmjVN3mzZs16bFOdramsjIo1xidlrGxsd4Wh+eh5PQNj8JX3qp8/PHHy8mUIMl3gVi3aJeb6uyxPvF1xRVreUnzW7flMdOewhQZp6tcU4wDkVYY5dWeDMltxPIiZCohkYa4JLZbPpZ5xlwhMapZZb2rFWU7ecrhkK2RzC9feqRJPGxO37Lu3e/Lh3yLtbSWYZ7BOXT45i2qUq8uKz05pI8YI59IPN3egkWpf/eQQiVKQqx5ym0xW1yodb/zlVCq0pdmS60fQI+1WA2+UtZSsaQUjxQ3vzjL658Dv88XEWs7/V3+mUBiTc9FyjYBirVz2mxdjXD5EwypDi2bP1Z5OCnskuZB4eaZc5Q0bWfO6+sl6ngAj2dVUw1UCjY//UJ+iX7/Iy25jf91iwIMiLU/INbqVGixTnbOh0CGlyUN+1N67C5fvkyS6mOqMh6W6trbfePGDV57hYVp586d3rpjS0GsXadk5uyR1HoqadmK9YQJE6ge2rRp09IF7taljal6e/bsyctkKrsMHjzY94FUj/vyyy87XIaCHDlyRHlD0XVLnn+Qqjo+Pn7FihWOgoPvqfLbtWunDE9XFesRI0ZQi7Rq1aplQfgRjmSdCsUjiJQx1q+88orq+otFEGseakKVRg9UrpmfP38+HZcz5rquO/2X6p/qh+TetX5OnTpFjeJ3TvdSo2KLda0o0lDzzLmZC9/IfH2J+YmnNBvBGVYWYi0dxbJ+o3iDkIdJKGtfk1WTkUTF5xySUpM+WM9es56XKhQhJvGo5tq9Stpt7No79YEgHrjsmpSYFzx/afQ8nqHP2LGHcHQ6KNlS5ZD08ZOVudUyJjyho/xExYt9PaNeA7Jh25lzckWRWA8aIbZXNK5WVO716/I1M9uSPmC4GFUSHV+gqimHVIRKwWnNWtt/uSInxWK9aEnq/3oZ3h1W7DHWjVLExkrR6BtpZUTxDuX9QWJGC+dwdjFSuUefQMdY86KDC8QrH9xnbNn0oZhGg6S8dr38/Eijq3UhEVTh2cvekduO57FOTS2QoOdQEHp6oQewugkF2oIdvWotXfVweekfvn6++rpK73LhxVpanEh6rsvhv/F3dJWCddK7s/mrV4qmpGetIGO7rnlSNwe3Y/aqNeLxrMhL7bgFxNofEGt1KrpYJzvf+uI3t/i2zYVas2aNj+nG2Ht69Ojx55/ipWxl0RNOgfu8uafQWyZLQawVVTp58iSlTBu7VULZivWgQYOCg4MpA1FOIiMjKZ327dsPHz6cHlp++uknh8uzgSLEgcNVTQdSPo5Q5rkjV1MWNmeb5wXeqQ63bdvmcJnaRVnVhZpMedZSnRWke/fu4eHh1I5RLlChaK+2bdsOGzZs+fLlyox7Dmm+v5EjR6r2DRdBrJOd6x/x857y2oDFYlm6dCntRaWjMiZJsOV36tSJC6tUMm08ceLEQOYSKTUqsFhzkCMGhYslo8kGeMperaIseqyFBuXlZr/1jp5kiw5EpkvfUAHvrW5IapHDM1Xzu8LkQJ16CldTFkqUJgyx86AL/kP480b6iDG8YLi+Zh0xtKBGbd291QyR8VlL3pSXEeHGene9XhpdTZ6U+n/vJVuVRZn+OvYeIAtP/X8PpN5TOfXvlVTivmp3/ud/bN/wIAEh1sYO3e/8zz3C5HiNvZoR1k8+VXIlJhiJiBPTbIc5e1hDIoXIVg4xPTSAB4HIfslvvG3aLC+lrnouFUesf/yJKiS/aPT1/z1AOTHEJxm79MqcPS+PPwyRrm85x78W84UHeD5LI20yxj6e/+6j1Zo+6jHxZiGPt+HJMYJr6x4IoodDefYVbhG+v6Snp7XulD84x+3lRb2Bfnvnf/6Wem/V/Ib424Ni/Z26CVT/2avXKs9FeUajsUvvYr28qGxfLYxnQlRmd8lesUpM53JfkHjkoNzWjBAznFSqmT5weIFT8cZNY5vOmnVXh0Gs/QOxVucuEGtl5CsbjHLnJgEaO3asjx1ZYkhwHS4So0gYK7K34bClJtb0NTs7m1RJtfu8TMRaGc5Ouv/pp58eOHBgvxMq1IkTJ77//nt+B5RrlQ+Rnp4+dOjQop1mVEu8Po6yejklu2fPnsmTJ7dp04bSJMvs3Lkz1dK6deuuX7+uLMRolKYMU8bV9OnTR1WsleexY8eO7d27d39BqFDHjx8/f/48v0XKCsuNuHHjRg3nsVZ2pPOZKlb5E+DsXbhw4Z133nnsscf69+8/YMCAqVOn0sOk0ret/LGQgvudyr2UqfBirciZN/EqTrKlL9YOuYvR9s0p84uzTD36Glt1NA0anvXGf/I1hafG++dM9/4/adZk07BH8syZSoJ5GWbr7j0ZU542du5JSRkfGpA5f6E8bMM5SbPtuzP62MbiEaVySOa816x79tm+/kbJif3C99atO6yf7Lbu3KUe9KuPt+UZ5Ne4KXs5R76y7tpNJwBXlDQryDg5Syypp7+jmjQ0aCakPzjC0DglfdRYy4db5MnmbLZcTo3FetvO/BbxrOTizGOdnkGFte74JL8s23fmHDpsO3tOnincORt0XmYmSb8+KODzmTeLjLNfuCjS4cmwzZlkpcaOPajIYhRHVLyx20NU4faLP8oynWZUls6hjcVUHsooebcea6uVSm3dVrBddnySs/8gPeHI6wdRznkq69171EfbF1aspUcg8bHJ4S/l9MUZkmf7/mLma4tN/YaIZdU7dEufNNWydYf8UqzzcTHj8SnqqwsVOSDW/oBYq3MXiHWys9OaBwy4juj95ptvPHt5XY9FmjVp0iS3xbEd0lQPqp/vu2ayFMSay+JjJo0yFGu/WCWUl/CeeOKJoq1XwouZDxw48Pbt246CC8TQ9zqd7tatWzdv3tTr9TySR/nttm3beDoRzgNt/MgjjygeXLSVFykRqjGugXPnzlF7+XgZschizW8O8AqgLPFKnVssFqpMekrhBPkzDeV5Y/ny5eVk7mpX7gaxLqHIF+s82Qjt9oyxjwc6yjbMKdbSSuM8osC6ZXv+cGE1sbad+lZImLPnMs9sFrIlTY4h/svzAefas5at0KlKnjRzsJiMgpf5tFhks7HnkuiIpDIzuYlEUvynd+q0EFwxv0RC6t8ry0OKucNYKnKgyiItTCMvqsIPw5evGOo2kAfnhEZb3v9QbEal4yzZbHk6fe6ff+beuJGr0zkschnpi2XHLiHiFqvs/Ty9t7cXMUmsP/+SM5CXleUUay9eyGLNmeSv3qDazs7O40E1ZnP6oxO96qa3oI2rhaYPGy3XOWuoNDJeFJni9m36XqmuXL2BNs757Au5/u1285Rn8pfPZLE+ez4/KR/Y7aJ9+Qnt/PeGxGbqU+MpYs1TLtJed1KNbTv7KqnYJUJfv5H8MEO7OBdHy8vKFieYKd1hlx5FqH35Mmi1ZkyaKua60dCqwyDW/oFYq1M+xZr8wOGUGEcAYp3s9BiehZpFhIu2cOFCXq5cda+mTZvSr7jbz3VY86hRo3zPDkGZJDflCuQ1EelAfsWa3zBj/6Osuk6IxmLduXNnZd1Hzj/PA+jNxlisT506pSR76dKlAMX6ypUryl7vv/9+IGI9e/Zsh+Ti/JIcfZPjgdti47TZxYsXJ0yY4DtXvuFZXEaOHKm82anUjyqpqamLFi0ih+7bty8VkLbnNnrllVeUbLjaHj/CeSsRoyza4pBGgHz88cfdunXzfZJwo1+9KnoBOQNbtmwJZIg55ZD2pa9r167NlmyJO/7diuz6kxs3blDr8LKX5eEP2RWItddw67Hms2vikwEtvKKkEFzHdkS8ve1/VhBpnjVj7wGZry6S53t2bQ5pGLRDegNMjHgOCs9PwVM4qoSYBgy3fXvGbV8ZZbCB0ZS9ZoNk1XV4sG/qPVWse6TRJs4VPYpzAtjPnBNDlqVZPvQhUVRqy0db8zdwO9nkLBkzX3+Dx+zmHP9aqTd5gm1V2wuJtElbio2tOemPTvDqcIVa0pzzY84kgzQNHFHEuSyksRMZ4ybJs1Pzg4fasXK+OJLWoYfunirm519UKlAsGy6mFY+Rx/lEJ9h/vKTkzS+5t25lr99oiG/idQAGi3XTVvZLP8sZMaUb23fz8whBv6ITpl5i9rvr5GcGLycYfbV9c9o0/BExI6RWI0Bcz3OItU8g1uqUT7HmN8+UHusFCxb4FWueYW3IkCE6nfh8TZke4datW/RDb+tCc6c1v47GizjSN+fPn2/ucw7govVYd+rUiVJ2ODuJDx486NZjTTkhh6YMO1yGzJILNmjQwPc8EkXosX744Yf5cUKZjJmEz0f1sljPmTPHEUCPNW2g1+vPnDmzefPmZ555pl27dsVfW5vdesCAAZTVdOnVFjdF4/+SX7777rv9+vWjSuD6OXRIdI9xG5HiU2b4rT5+e/Xtt98OpEQO6QmEauzkyZN0co4ePZoy4/dRhDagRnedP3Hbtm0BvlOovC45duzYHTt2ZEp3F1UrpVxRlnr16hUbG1se/oQ9gVh7DdnDmuQc/jLn4OGcQ59TmPoM9toh6iWFrH+/mfPlVzn7Dtq+PpX5ymuSlztHRYe5irV4ujP26JP6v1XSR421Hvosz6UTVzjKhe8z576a1rxtaqWa+bM+e/O5qrUMdRuYn/1nzmdfyOahQE++P13KXrHK1KOPeIlQLFDC4xZi83usSY1u36F9udSBBm2/7yCpPx/Hfv57WaylYupCxEooGVOepS3ldUaU842eQi/+SEpt7NRDZEka05IxfrLtyLGc/Ydsx06Yp8/wOt9Lrajspctzvjgqjr73gKlXf18DeUMiDfUbyln1WZbst1eJoTgDhonx336XGPR5DpCnGrv0pmeY3N+uFSg1fZuqE4uZPzqBXw0Ua8okNLFu3SGy98VReg4h69XzCjLiZdBYy7vrREmdZ6N6E+w5kPXGm+apz4q+5weD5WmzvZ2fVCEJTS1r3xOn6KHPrdt3iZUg/Q4lF+93imox9RlkWfee/eqvbl5L9xjrp/syJk81RMZyg2r/5wmx9gfEWp3yJtbJ0oBa0pGBAwf2l6BvOnToEMhSFzw4tXv37sq+JFi8uzIXhOcuru/kcW0E0kFO+SFdIM/jowwaNKhjx46+nYnUkOyHdqHt6Svl0zNN2oaUl5Nl/DYKzxVNxeRkSff9viDImecD8V4k9H5rmDZo3769a968QWn27NmTNiaDJ6Oi/Ggy7xvlmc5SSrNv374zZ8587733Pvvss6+++urEiRM7d+5ctmzZ448/3qVLl4YS/BkFHZrPJcoSZ4x+rpSUfxtIiWgbOigl3rZt2wQJb/PfuaE0KJ+K3bp1K9SiLfw4Qfmk+nzxxRc3bNhw4MCBY8eOHT9+fPfu3VTkxx57jIpAj15UM+VqXLUrEGu/YqSPTsiPIihCZJy8b90GoqtbWc9ZTaxNvfvrqtQS789FxaWltEsf+o+MJ55Kf3RCWruuhvgkMQNDUO0AFygRRvhgsCE6Ia1JK/L1jMnTMh6fkj5mQlqbzmJkRVBtecyr0kCuYk0Pq/sO6us3EmbsWnzfEdOQWtyy4X35/uUq1mHyYoSi6zcynopGzkr5EVkaMSatRYe0hKZiXfGqofmlqyU6uUWlRcUb6jXQhwdQwwE2UCBlqSFeK9TRMwzP3VGcU4ieE6qHiYe0hs2NXXunj50oCj5+srHrQ2lJLalcYtEZaTPxlU8PqdT0lcS0wALgriX1FrSNNKWJ6Cd2bd9ATlE6aOCDyKVFcES5GjVPa9mBzlJRrklTjb36pzVpKWY7oXKpTsanSUCs/QGxVqccijWRlJTU0IXAV2bmft/ExERlX/reh++S5ZC1fP3110pV6PV60qBAelhp3wCPomzPk6Mx/Km9J67b8KwXgRRZ2Z5297uLZ2Z8d1crUBkbBgZliSskQAENEJ5sjnPOks00kuCC8FR0vD1/VuB6Prh5beAl4kLxQ0KhnhOKUM+usC77LjJXS2FTLjUg1v6D5ECJIuxOYqTs7ipJqmItVl4MEaJTK0qe7YS+im/CRc+lslBfwOojpVM7Px1OKlgacesm6G5i/ek+nh67QPF9R3g98jnLmvXy/ctNrJUsKRO5OPPD3imvJa5a876nJ/dWw4E0qPeyyCsjanIC8ycMwXUKNkSYjuexiSi4Vo5SHCq1W3FcS+ojeI30wE+VIp/h3F7BER7lqqOvFV1gbkHNA2LtD4i1OuVTrJOdc6gxRd7R9+78Yf2QIUNcp6/evn17Qy/jRoqfyUAyFmDmi7mLVnv5JsA0OuTbBAAAC3ZJREFUC0thD+rjt4UqTtEKpUmFlEk9awXE2n8Uf9YR1RS8iXXlkPwpgd2imIf2nZSbWO/Znz8WPMAQC0DWtKx7T75/eYq171z52CzwYhanTkpoepkitEUgv9Iw8xqe3iVaga4BsfYHxFqdcivWpUCrVq3i4uJWrxaze/L9ntz6mWeeKVdzAANQ0YFYl1n4FuvSz4+nWEfEBtQBrAS5zoPBlrUBiDUCUcyAWPsDYq3OX0qsm0uDBLiTr2XLlomJiZ06dbp586ZSDxcuXPCxWCMAoAhArMssyqFY31PZuu8At6H1071FFesN8v3r3AWINaKkAmLtD4i1On8dsW4ujc2Nj4/nEbf0TZcuXXh0tbIGx9y5c1VX0QMAFBmIdZlFORRr1x7r/Qd5qLevtwbdQoh1DcvGD+T7148/GaITINaIEgmItT8g1ur8RcSa51ZbsmTJ0aNHX3/99UWLFm3btu3OnTsOl4ntfvjhh1atWhV2zW0AgG8g1mUWilhLncQ8A52pZ9mJdZ0YXZUQ83PTLe9tyl67wfzMP+VZ3gJPQUx/EZ4xfnL2mvXZ767LnPuqeH2tUCkgEAEGxNofEGt1/mpi7Sg4abGy9rXFYhk3blzgry0CAAIEYu0/yC9LIniKj4hYec1zaYEY00MDpCnnYkvqoH6DPDgkSgR9U7QUqMaKmQLi7g6IdakAsVbnLyLWdGuPj49//vnneR0+XrqPVxDkO/2KFSswCASAkgBi7SdCo3WVa5ZIVAnhr1mv/dt24hvrvoO2k6fSmrZK/XslXdVaJXVQ/xHijOInUlZFQJTjqFpLmw8xINb+gFir8xcRazJmKuCIESOMRrHuq+vdnVR76dKlzSTu4hoAoKwoSbF+p8KLdUikIa6x5b0PLBveL7mwfrzNumOXdfsn9NWyabNl/aYSPZyfeM8lyioFxF0ZdGJ/8HHWkmX6mEQxy3UxrwwQa39ArNX5i4h1srQkSqtWrVauXHnu3LlffvnlypUr9M3WrVsHDx7M64bc3cUHoKwoQbFeulys0lxxxZpyXqNOWlILbeoEgL840jhP+2/X0hqniLVvNBHrAcPyTOkicYi1BxBrdVislyxZ0tDfIt53B3FxcfHx8R06dOjUqRM9S8TExPBafWWdLwDuWlis6endoaFYSxcuywcf6UPLWo6LGTUjDXFJ1q07RKdyycWW7flRogdCIMowPtpq3bEre8UqQ/2G8tqWxRLrGCHWfQfnSR90Q6w9gVirw2K9Zs2av4hftpBoKpGSkqLtgtsAAE/41eFly5Y5NBRrqWvKevgLeRrjittpzRESiUAgNAtN/irr1NdVCs544im+2kCsPYFYq8NTZOzfv5/8slmzZmV9Cy4lKspa0ADcBZBYR0dH79692yEtbqrVlUukdvo7Q/1G4j5a0cU68DW9EQiE39DkrzIyVndvVfOMOcoFB7gBsVaHO5CuXr1KNz9M4QwA0BZ+gqWH9hMnTjicH5FpcuUSX8yZaQ2bV/j3FyHWCIS2oclfZUSs7v7q2bzMZ06ONheuuwuItS9yc3MHDx6clJRU1ndhAMBdRUpKSsOGDQcNGnT79m1HwVnki4vk1umjx+uCKr5YIxCIchV0SQmJNCQ0sZ3+VlxttOoRuLuAWHuFO62XL18eFxeHiZwBABrSokULurDMnj3boWF3tfPKRV8sW7eL5U60WhICgUAgwqQ3F6vWMj08iK81GGCtCsTaKyzWly5datWqVVnfhQEAdw88CITc+uuvv3Zo213tkMU6V6dLa9lBXzMCndYIBEKzCK+nC66TtWKVuNSgu9oLEGtfsFsvXLgwJiamZcuWZX07BgDcDaSkpCQmJk6cOLGkrlySqWe/u173QA2xRneZ34wRCMRdEPSUHlwnLblNntlcUteuuwKItS+4J+ny5ctdunRp0qQJBoQAAIoJz7rTrFmzixcvOjScaK/glUukbEgzdn1IVy1UX6d+2d+SEQhERQ8S66Bwy9YdDgdm2fMFxNoPPPxxy5YtCQkJmIoOAFBM6Pk8Pj5+9erVDs0HgRS8ctGXnM8+FyvFhBZ7EWMEAvEXj4hYMX310y8IpYZV+wRi7R/uUnrttdf4LUa4NQCgCNClo0WLFvSIPmPGjBxpmqoS6a5WkKzdsuF9XeWa4r6IFxkRCETRIiI2tXJNY4++eQaDcm0B3oBYB4rdbp83b15MTAzdHTEmBABQKPiZPD4+fvr06VarNU+ixC9bUt9S5sJ/64LCxUKMGBOCQCAKFeH16JlcVyXE2LGn/ddr4qoCq/YHxDog+BNbuh0uW7asUaNGjRs35tskeq8BAL7hR3G6aDRs2HDu3Lml0VftijQmxLLpQ/E6f/Uw4dYaLhWBQCDu1pCUmh7IdZVqZoydmHvrDstQKV24KjIQ60LA98LDhw/3798/Pj4+KSmJ58wiFM8GAIAUCZ5KiJS6QYMG3bt337FjR2lbNeNc59zUu39qpWCxImOtKDFbCEk23TjLfDU4BAJRTqK2JNM8lVBwhHj1OSo+a9mKvMxM5UoC/AKxLgR0O+Su64yMjI0bN/bp04fEun79+gkJCXTvbAYAABJ0QUhMTIyJiWnSpMlDDz20ZMkSgzQ20W63l7ZVM3xHzM62bHjf2L6bPjJW90ANXaWauhp1hGSHRiMQCIS+Jsl0mO6+6mJ5xQbNzE+/kHv1qnwBgVUHDMS6cChuTWRmZu7evXvmzJnjx4+ne2fr1q1bAQD+8tCloHfv3qNGjaKLw/bt21NTU5VLR9lYNaOs5pCXl3PwM/OLs0yDRhhbdzTUb2SIjDNExSMQiL94pDVsbur+cMb4ydlr1tv/+IMvF5gGpLBArIuC24tH2dnZv/7665kzZ74DAIDvvrty5YrRaPR2xSgzCt4g87Kzc3/9zfbtGduJk7avv0EgEH/xsF/4PjdV5+2KAQIEYl106E5plyjrjAAAyiM2iXKh1G7QVctmwy0TAKACrg/FA2JdXLgvyg4AAE5yJcr64uQPunFSJu254j6KQCAQdoyl1gCINQAAAAAAABoAsQYAAAAAAEADINYAAAAAAABoAMQaAAAAAAAADYBYAwAAAAAAoAEQawAAAAAAADQAYg0AAAAAAIAGQKwBAAAAAADQAIg1AAAAAAAAGgCxBgAAAAAAQAMg1gAAAAAAAGgAxBoAAAAAAAANgFgDAAAAAACgARBrAAAAAAAANABiDQAAAAAAgAZArAEAAAAAANAAiDUAAAAAAAAaALEGAAAAAABAAyDWAAAAAAAAaADEGgAAAAAAAA2AWAMAAAAAAKABEGsAAAAAAAA0AGINAAAAAACABkCsAQAAAAAA0ACINQAAAAAAABoAsQYAAAAAAEADINYAAAAAAABoAMQaAAAAAAAADYBYAwAAAAAAoAEQawAAAAAAADQAYg0AAAAAAIAGQKwBAAAAAADQAIg1AAAAAAAAGgCxBgAAAAAAQAMg1gAAAAAAAGgAxBoAAAAAAAANgFgDAAAAAACgARBrAAAAAAAANABiDQAAAAAAgAZArAEAAAAAANAAiDUAAAAAAAAaALEGAAAAAABAAyDWAAAAAAAAaADEGgAAAAAAAA2AWAMAAAAAAKABEGsAAAAAAAA0AGINAAAAAACABkCsAQAAAAAA0ACINQAAAAAAABoAsQYAAAAAAEADINYAAAAAAABoAMQaAAAAAAAADYBYAwAAAAAAoAEQawAAAAAAADQAYg0AAAAAAIAGQKwBAAAAAADQAIg1AAAAAAAAGgCxBgAAAAAAQAMg1gAAAAAAAGgAxBoAAAAAAAANgFgDAAAAAACgARBrAAAAAAAANABiDQAAAAAAgAZArAEAAAAAANAAiDUAAAAAAAAaALEGAAAAAABAAyDWAAAAAAAAaADEGgAAAAAAAA2AWAMAAAAAAKAB/z8PRfLkhfFnjwAAAABJRU5ErkJggg==;" parent="1" vertex="1">
          <mxGeometry x="248.5" y="46" width="120" height="46.5" as="geometry" />
        </mxCell>
        <mxCell id="E5yIIu5KzH-er2fL6q-M-13" value="&lt;div&gt;OLX&lt;/div&gt;" style="rounded=0;whiteSpace=wrap;html=1;fillColor=#b1ddf0;strokeColor=#10739e;fontStyle=1;image=data:image/png,iVBORw0KGgoAAAANSUhEUgAAAlgAAAJYCAMAAACJuGjuAAAAkFBMVEUALzQk5dsKYWIJXV4fzsYi3NIBNDkBODwSjIoGTVAVm5gPfHsj4NYAMjYh1s0Lamoj4tgDP0MHV1gh2dAQgH4ex8AFR0oatK4WoJwCOz8TkI0g08sfy8MdxL0NcnEbu7UZsKoEQ0YcwLkOdHQi3tQXpqEOeXcg0MgKZmYYq6YHUlQUlpIQhIIJXl8RiYcMb26T3vWWAAANxUlEQVR42uzBgQAAAACAoP2pF6kCAAAAAAAAAAAAAAAAAAAAAAAAAAAAAAAAAAAAAAAAAAAAAAAAAAAAAAAAAAAAAAAAAAAAAAAAAAAAAGB26S0nYSAAAOBSRKBUXspLbFSkiAG9//HM/hBUQOFvzcwZBgAAAAAAAAAAAAAAAAAAAAAAAAAAAAAAAAAAAAAAAAAAAAAAAAAAAAAAAADOMxwVjcssi/cAR9SvahfLAojFCWKRBrGIxCINYhGJRRrEIhKLNIhFJBZpEItILNIgFpFYpEEsIrFIg1hEYpEGsf6n5mDnOvyJWBw3aNd7q20rz6unnWm++di+9IbjWThFLA6ZtdedTTUpr277tQOK7sNiUt2v6u1mOEwsvhuv76aP5XxZ+1XjtZxsOtk4/CQW+5pZ6y2eOkNjvqi2w5vwlVjsPPemo26/doFiXubZLOwRi0/27n09TRiM43h+VkEsxygoeACtZ529/7vb3NY92x5tqX2BvCGfC+gf9WuIIYFfkpfJbojHhcPZKYjEGxOW8YO1n8xcfFW4jgdPnvjJhGVYySV2QWS9GiXXtkxYbZfuJ0OQmmZPtgmr5aLXsQtyw80+NWG12HKboxpusY9MWC21fMlRocM+MmG1ULooULHN3jZhtU1n46JyvYE0YbWKc/JRi10/MWG1hv08R23yF8uE1Q6ycFGj3sQxYbWAde6iZvGLCUt7x4OL2g0niQlLb9suGjEPTFgaiwY9NGTYt0xYujrmaE5YOCYsLXmLHRoVdzwTln7syxoNGz5bJizdLAdQQJaasPTiFFDCJDFh6UTmUMTYMWHpozODMnJpwtLFN4W6AmJpwtKDWl1dyzJh6eBJsa6uZZmw+FOvK2AuTVjcqdjVtSwTFm8yhpLyxITFmbOCosaJCYuvaAxlbVITFlf2Bgo7WSYsnrwMKnNHngmLI++5B6UNX01YHO13UNxMNhuWZ5XiiU+xyv5Vppw5lDdeNhmWFWT9Ms6J+IROv5RMCp7Unri/yawGw7I3FSyNBD7KOQuWvDM4CBdNhjVA6bLIu8KzYOmbDxa6DoewUCQlu5pC77CWyuwY/UhhcwgLhVOyK83DUnsF6x8jFmEhl6W60jyszhBs+EcWYZXYkBHsoHlYqbK3nm8pPBZhYS4/7Er3sC7gxN3yCAux/KAr3cOSjC6EV92ER1iI5btd6R6WdQAzAyZhIT6+M2/XPqxXF8z4eyZhIZZ3u9I+LFvRzcjvKSwmYSGWd7rSP6wzuwEL6G25hHXzahj40D+spAuGVimXsBDLG121IKwsBEPuhU1Y17L+76oFYSVKHiP82DxhExbm8r+u2hBWn+WABbhnPmH9U1bgow1hJQx/Ev6SL/mEhVj+1VUrwuI5w7pabxmF9WfMCqZoRVgJg33u94wjRmFhLn931Y6wRgzXsN64C05h/bwaBju0IyyVT9R/bJNyCgvz476LloQVMNnoftvwiVVYmE3RkrA8JR7l/rjMYhUW0JawJNPF0Tcrx4SlJB5HCe8LX01YKlqynrpfTWwTloI4Hc25bXo0YalH8adhlbI1YaknYXP4+b4iNWEpp9IrYejP5vkP85mPCq0dE5ZqvAuqshsPnvfSWf5wlMF5MK4urq1nwlJMVKASu832KRL/iDqjoqK2NrYJSzHHISqwyp7Smxl/O81QgVliwlLMAvR2Z8cTd1gym4JcGJiw1GKfQG5yFO+x5AHkLp4JSynLGYjNXm3xgWg7BbFxasJSikQJ5O9u9mQOWuvEhKUSbwtag0iUstyAVqfGsCZo0EhwQPw/Cvu2KCkiLutSX1hiFKIxYSA4SFcgFF48UVo6CUGoqDEsq++iIdevLgfODnTCgf2pqDcg5FsVhKVcWW7G5I0ngQs6RSQ+JVmBzlrWGJbwMhdltLUrbwQ6c0d8ktyBTLioL6yrJsYst8+kK+GdQKa3EHfVMQvOKghLrbL4dCXsA8hMPPFp1hhkDjWH5WUhauX2LcFFtAKVrtPwg5pzq96whNWvtayQUVfCGdKtNIiHTEAlXtYb1rUs3NfqroQElVkkHnJcg4gv6cNSqCwm61e/7UEkzMSDNiCy3tcelrDvl9XqrsSWcLh40DcQcV/ow1KmLGZdiQxEDp54UJpThfVMH5YqZXHrSgxAIxw1/67gMGsiLGFnqByreftPB9Dwj+JhHZcorFMFYSkxZvHrSuSgEXsKPKby4FUVVqPrWSGf9Xb6sCYqrP4frGbCEtaNO9JtvI/zl6kC22WtE/ewhFfdfcM1y67EGjQ6KuyOXqXkYTVe1vAsWOqBxlJ8QScEiTgiD6vpsvwXwRNRWO6XwpJr/mH92kVjuiIOaxaJLzj2dAhL9Nemqz8IP9LHLX0twvIurumKOKx5Kr7A0SMscaYO61WwRRTWNDJzLDHyQWzH4wihsr8K9Qhr1AM5n21ZPdBwxBcE0CCs7+zd6XaiQBCG4a9AUSIgCIKIooL7lvu/u0lmO5mZLOq00gX1/Eku4D0lNE3Ta9MLKesnh9To6/AK2kz5AukN80rK+m5Kahx1OD6iukc6iJZ0JyHPsmakxg63SxNSY648rOq74lqWqrBaqQbHR4xQTVhu5NAbUtaLkboXGW72zHsHKazIp7ekLIVbk2mMW1nKtkd3lYd1472HlIUzKVKkuNEiIzWcdRVhue/NKymrJEWcfuVvoDm58rC0mFcsVx1ORBXfF1pTUqR9qiCsj7pqell7hxRpm9UuuxO17MeH1XPofU0vK26RKnPcolOQKkXw8LAihx4mY1VWMCNV2n3coOeTKomrPCyNumK2i8ZakTLFAleLJ6TMCA8OK1rSQ3lrsOF2SZ0xrrYidY4PDitq04OFPL4d8N2a1AlzXEz9b4mzVR+WXl0RtfmUdQpJnYmJq/QzUqcdqw9Ls66IlhGX11cXQ1Ko2F8V9YQUGrrqw9Ln+uoXh0tZaUIqJTYuti9IpREeF5YbOVQRn0lZ1piUml1cljEhpdYPDGvt0y2q3617JR02nP8yMdyLgu5vSK2BfFZOK/aS1Ap7Kb4UdJeqg17IhzC1EiSk2mqPz7mDHak2siQsrVhnUq4VxfiEffZIuUg+Nq4Zwyf1ZpGND+yPBam3PEHC0ks8pHuYnU8W/hFsx1O6hyKQsDRzt1ucza67tVMXP7mp/TxOPLqPJ0vC0s2a7iabJqNub/2iNx4l05DuZgsJSzeDDd2Tv2y/WNJdTRYSlnbSHbF3sCQs/fSIvS0kLP0MWsRcEUtYGuqMiLmxJWHpqO8Qa6EBCUtHi4RYSxYSlp7OPnHWg4Slp/2EGBvavMLywsaEZbG+fB+7rMLy8jJrSljYesRWNgCnsLwSyL2mhNWZE1sji1NYrT7wWlZDwsJzm5jytmAU1uSE7/KwIWF12K44rDqMwmqZwK+ymhEW+kxHVtgHn7A2Jn4r280Iy2I6snYdPmG1TsDbshoRFnKWIyvsg01YGxNvuXm7EWHxHFkri01Yr139XVYTwoLBcGRtBuASVmbib24ZNiEs8Ft+9w/gElbLxDtyrwlh2RkxM7S5hLUxgffLakBYOBIvTgQmYWUnfKD0GhBWMCNWEotJWC0TH8q9+ocFg9VW0nAAHmF91hWQZ/UPCwdipAseYbVO+FTu1T+sYEhsFCmPsCYn4Kuyah8WtmwWs9oGWIQ1MYGvy6p9WC6bH8MuWITVMnGBPKx7WFgwuTNMUhZhtU64SBnWPSyYG2LgnWc5Oh5u2zJxoTys2eG2/1ozWHPwc4DBxJqYuFju1XxiwXoi7R2sKsNCYF8mxhVi+zIpuNL/xehdgMeEJZQaaL6aVewhYbG01foCvmVCwmJqHZK2vBwSFltnbW8NnQgSFmO6rsD7Y0hYnGl6zJ//ZElYvOl5As2TBQmLuY6Gx3TvUkhY7MXaHUGzCyBh1UCg2cOd0QISVi2kWl1nHVJIWDWRajSzDikkrNpIu6SJcwcSVo1Yejzd8UoLElatuFsNzuqeGC4krLoZVL4NPrEBCat+gpFDFXKeAkhY9RRlVJksAiSsujILnyrhz06QsGpsMQqpAuEhgIRVb/mEHm5YAhJW3e1XIT1UOLIhYTWAWxb0QEVuQcJqBnvs0YNk3RiQsBrD2Pn0AP7qBEhYTRLkCd1d8pxCwmqaxXpKd1WUC0DCaqC4N6S7mb5mJWE1k7uICrqLWS8AJKzmcu9yrTXPAxcSVsN1TivPJ3XCldkBIGEJxOdZqKQtP5ydY7ySsMSrjjGeev7/VjUdGxZ+kLDETx3z6T/a8r3iYKT4TcISf8yt+ST0rx9Vw/l4a+EtCUv8wdo/d5NpdnFcTjadn/P9P1VJWOIfnXh7HM2nmfNVU8V8FBlxB++QsMT7LNsoj4dVUgwzr+28oBevf9teNiyS1eFYGrGFj0hY4jOdhb0/bftlWebHbjfKX/7pG8bADjr4nIQlLuXiChKW4EDCEt/YpWMTgEEACIBp0lkFsoGt+68nv4Jg8XA3w4VYdBCLEIsOYhFi0UEsQiw6iEWIRQexCLHoIBYhFh3EIsSig1iEWHQQiyu+f7xn5lgPAAAAAAAAAAAAAAAAAAAAAAAAAAAAAAAAAAAAAAAAAAAAAAAAAAAAAAAAAAAAAAAA7PbgkAAAAABA0P/X3jAAAAAAAAAAAAAAAAAAAAAAAAAAAAAAAAAAAAAAAAAAAAAAAAAAAAAAAAAAAAAAAAAAAAAAAACwEi8BkIS6JGdkAAAAAElFTkSuQmCC;strokeWidth=2;" parent="1" vertex="1">
          <mxGeometry x="448.5" y="46" width="120" height="46.5" as="geometry" />
        </mxCell>
        <mxCell id="E5yIIu5KzH-er2fL6q-M-15" value="&lt;div style=&quot;font-size: 20px;&quot;&gt;ДОНОРИ&lt;/div&gt;" style="text;html=1;resizable=0;autosize=1;align=center;verticalAlign=middle;points=[];fillColor=none;strokeColor=none;rounded=0;labelBackgroundColor=none;fontColor=#333333;fontStyle=1;fontSize=20;" parent="1" vertex="1">
          <mxGeometry x="258.5" y="10" width="100" height="30" as="geometry" />
        </mxCell>
        <mxCell id="E5yIIu5KzH-er2fL6q-M-33" style="edgeStyle=elbowEdgeStyle;rounded=0;orthogonalLoop=1;jettySize=auto;html=1;fontSize=15;fontColor=#E1D5E7;fillColor=#b0e3e6;strokeColor=#0e8088;strokeWidth=2;shape=link;width=7.5;" parent="1" source="E5yIIu5KzH-er2fL6q-M-17" target="E5yIIu5KzH-er2fL6q-M-7" edge="1">
          <mxGeometry relative="1" as="geometry" />
        </mxCell>
        <mxCell id="E5yIIu5KzH-er2fL6q-M-41" style="edgeStyle=orthogonalEdgeStyle;rounded=0;orthogonalLoop=1;jettySize=auto;html=1;fontSize=15;fontColor=#E1D5E7;strokeWidth=2;fillColor=#647687;strokeColor=#808080;startArrow=oval;startFill=1;" parent="1" source="E5yIIu5KzH-er2fL6q-M-17" target="UEzPUAAOIrF-is8g5C7q-114" edge="1">
          <mxGeometry relative="1" as="geometry">
            <Array as="points">
              <mxPoint x="90" y="290" />
            </Array>
          </mxGeometry>
        </mxCell>
        <mxCell id="E5yIIu5KzH-er2fL6q-M-17" value="&lt;div&gt;Z &lt;br&gt;&lt;/div&gt;&lt;div style=&quot;font-size: 15px&quot;&gt;autoria-parser&lt;/div&gt;" style="rounded=0;whiteSpace=wrap;html=1;labelBackgroundColor=none;fontSize=20;fillColor=#b1ddf0;strokeColor=#10739e;shadow=0;sketch=0;glass=1;" parent="1" vertex="1">
          <mxGeometry x="48.5" y="144" width="104.25" height="57.5" as="geometry" />
        </mxCell>
        <mxCell id="E5yIIu5KzH-er2fL6q-M-39" value="" style="edgeStyle=elbowEdgeStyle;shape=link;rounded=0;orthogonalLoop=1;jettySize=auto;html=1;fontSize=15;fontColor=#E1D5E7;strokeWidth=2;fillColor=#b1ddf0;width=-8;strokeColor=#10739e;" parent="1" source="E5yIIu5KzH-er2fL6q-M-18" edge="1">
          <mxGeometry relative="1" as="geometry">
            <mxPoint x="300" y="90" as="targetPoint" />
          </mxGeometry>
        </mxCell>
        <mxCell id="E5yIIu5KzH-er2fL6q-M-42" style="edgeStyle=orthogonalEdgeStyle;rounded=0;orthogonalLoop=1;jettySize=auto;html=1;fontSize=15;fontColor=#E1D5E7;startArrow=oval;startFill=1;strokeColor=#808080;strokeWidth=2;fillColor=#000000;" parent="1" source="E5yIIu5KzH-er2fL6q-M-18" target="UEzPUAAOIrF-is8g5C7q-114" edge="1">
          <mxGeometry relative="1" as="geometry" />
        </mxCell>
        <mxCell id="E5yIIu5KzH-er2fL6q-M-18" value="&lt;div&gt;Z &lt;br&gt;&lt;/div&gt;&lt;div style=&quot;font-size: 15px&quot;&gt;RST-parser&lt;/div&gt;" style="rounded=0;whiteSpace=wrap;html=1;labelBackgroundColor=none;fontSize=20;fillColor=#b1ddf0;strokeColor=#10739e;shadow=0;sketch=0;glass=1;" parent="1" vertex="1">
          <mxGeometry x="232.75" y="144" width="104.25" height="57.5" as="geometry" />
        </mxCell>
        <mxCell id="E5yIIu5KzH-er2fL6q-M-40" value="" style="edgeStyle=elbowEdgeStyle;shape=link;rounded=0;orthogonalLoop=1;jettySize=auto;html=1;fontSize=15;fontColor=#E1D5E7;strokeWidth=3;fillColor=#b1ddf0;strokeColor=#10739e;width=6.25;" parent="1" source="E5yIIu5KzH-er2fL6q-M-20" target="E5yIIu5KzH-er2fL6q-M-13" edge="1">
          <mxGeometry relative="1" as="geometry">
            <Array as="points">
              <mxPoint x="480" y="110" />
            </Array>
          </mxGeometry>
        </mxCell>
        <mxCell id="E5yIIu5KzH-er2fL6q-M-43" style="edgeStyle=orthogonalEdgeStyle;rounded=0;orthogonalLoop=1;jettySize=auto;html=1;fontSize=15;fontColor=#E1D5E7;startArrow=oval;startFill=1;strokeColor=#808080;strokeWidth=2;fillColor=#000000;" parent="1" source="E5yIIu5KzH-er2fL6q-M-20" target="UEzPUAAOIrF-is8g5C7q-114" edge="1">
          <mxGeometry relative="1" as="geometry">
            <mxPoint x="380" y="320" as="targetPoint" />
            <Array as="points">
              <mxPoint x="440" y="290" />
            </Array>
          </mxGeometry>
        </mxCell>
        <mxCell id="E5yIIu5KzH-er2fL6q-M-20" value="&lt;div&gt;Z &lt;br&gt;&lt;/div&gt;&lt;div style=&quot;font-size: 15px&quot;&gt;OLX-parser&lt;/div&gt;" style="rounded=0;whiteSpace=wrap;html=1;labelBackgroundColor=none;fontSize=20;fillColor=#b1ddf0;strokeColor=#10739e;shadow=0;sketch=0;glass=1;" parent="1" vertex="1">
          <mxGeometry x="417" y="144" width="104.25" height="57.5" as="geometry" />
        </mxCell>
        <mxCell id="E5yIIu5KzH-er2fL6q-M-98" style="edgeStyle=elbowEdgeStyle;rounded=0;orthogonalLoop=1;jettySize=auto;html=1;fontSize=14;fontColor=default;startArrow=classic;startFill=1;endArrow=block;endFill=1;strokeColor=#A50040;strokeWidth=2;fillColor=#d80073;" parent="1" source="E5yIIu5KzH-er2fL6q-M-60" target="E5yIIu5KzH-er2fL6q-M-80" edge="1">
          <mxGeometry relative="1" as="geometry">
            <Array as="points">
              <mxPoint x="240" y="570" />
              <mxPoint x="230" y="570" />
              <mxPoint x="200" y="570" />
            </Array>
          </mxGeometry>
        </mxCell>
        <mxCell id="UoxV15uRkX_Niu28RtxY-34" value="&lt;font color=&quot;#FFFFFF&quot;&gt;&lt;span style=&quot;background-color: rgb(128 , 128 , 128)&quot;&gt;user ID&lt;/span&gt;&lt;/font&gt;" style="edgeLabel;html=1;align=center;verticalAlign=middle;resizable=0;points=[];fontSize=11;fontColor=#FFFFFF;rotation=0;" vertex="1" connectable="0" parent="E5yIIu5KzH-er2fL6q-M-98">
          <mxGeometry x="-0.1956" y="2" relative="1" as="geometry">
            <mxPoint x="-25" y="2" as="offset" />
          </mxGeometry>
        </mxCell>
        <mxCell id="UoxV15uRkX_Niu28RtxY-31" style="edgeStyle=orthogonalEdgeStyle;rounded=0;orthogonalLoop=1;jettySize=auto;html=1;fontSize=11;fontColor=#FFFFFF;strokeColor=#999999;strokeWidth=2;" edge="1" parent="1" source="E5yIIu5KzH-er2fL6q-M-60" target="E5yIIu5KzH-er2fL6q-M-128">
          <mxGeometry relative="1" as="geometry" />
        </mxCell>
        <mxCell id="UoxV15uRkX_Niu28RtxY-42" style="edgeStyle=orthogonalEdgeStyle;rounded=0;orthogonalLoop=1;jettySize=auto;html=1;fontSize=13;fontColor=#FFFFFF;strokeColor=#A50040;strokeWidth=2;fillColor=#d80073;startArrow=classic;startFill=1;" edge="1" parent="1" source="E5yIIu5KzH-er2fL6q-M-60" target="UEzPUAAOIrF-is8g5C7q-119">
          <mxGeometry relative="1" as="geometry" />
        </mxCell>
        <mxCell id="E5yIIu5KzH-er2fL6q-M-60" value="БД Продавці" style="outlineConnect=0;fontColor=#232F3E;gradientColor=#4D72F3;gradientDirection=north;fillColor=#3334B9;strokeColor=#ffffff;dashed=0;verticalLabelPosition=bottom;verticalAlign=top;align=center;html=1;fontSize=12;fontStyle=0;aspect=fixed;shape=mxgraph.aws4.resourceIcon;resIcon=mxgraph.aws4.dynamodb;labelBackgroundColor=#ffffff;spacingTop=5;" parent="1" vertex="1">
          <mxGeometry x="69.50000000000023" y="580" width="78" height="78" as="geometry" />
        </mxCell>
        <mxCell id="E5yIIu5KzH-er2fL6q-M-75" value="дані продавця" style="whiteSpace=wrap;html=1;rounded=1;arcSize=50;align=center;verticalAlign=middle;strokeWidth=1;autosize=1;spacing=4;treeFolding=1;treeMoving=1;newEdgeStyle={&quot;edgeStyle&quot;:&quot;entityRelationEdgeStyle&quot;,&quot;startArrow&quot;:&quot;none&quot;,&quot;endArrow&quot;:&quot;none&quot;,&quot;segment&quot;:10,&quot;curved&quot;:1};shadow=0;glass=0;labelBackgroundColor=none;labelBorderColor=none;sketch=0;fontSize=7;fontColor=default;fillColor=none;" parent="1" vertex="1">
          <mxGeometry x="142.75" y="460" width="90" height="20" as="geometry" />
        </mxCell>
        <mxCell id="E5yIIu5KzH-er2fL6q-M-76" value="" style="edgeStyle=entityRelationEdgeStyle;startArrow=none;endArrow=none;segment=10;curved=1;rounded=0;fontSize=7;fontColor=default;strokeColor=#808080;strokeWidth=2;fillColor=#000000;" parent="1" target="E5yIIu5KzH-er2fL6q-M-75" edge="1">
          <mxGeometry relative="1" as="geometry">
            <mxPoint x="110" y="440" as="sourcePoint" />
          </mxGeometry>
        </mxCell>
        <mxCell id="E5yIIu5KzH-er2fL6q-M-78" value="дані машини" style="whiteSpace=wrap;html=1;rounded=1;arcSize=50;align=center;verticalAlign=middle;strokeWidth=1;autosize=1;spacing=4;treeFolding=1;treeMoving=1;newEdgeStyle={&quot;edgeStyle&quot;:&quot;entityRelationEdgeStyle&quot;,&quot;startArrow&quot;:&quot;none&quot;,&quot;endArrow&quot;:&quot;none&quot;,&quot;segment&quot;:10,&quot;curved&quot;:1};shadow=0;glass=0;labelBackgroundColor=none;labelBorderColor=none;sketch=0;fontSize=7;fontColor=default;fillColor=none;" parent="1" vertex="1">
          <mxGeometry x="-80" y="330" width="80" height="20" as="geometry" />
        </mxCell>
        <mxCell id="E5yIIu5KzH-er2fL6q-M-79" value="" style="edgeStyle=entityRelationEdgeStyle;startArrow=none;endArrow=none;segment=10;curved=1;rounded=0;fontSize=7;fontColor=default;strokeColor=#808080;strokeWidth=2;fillColor=#000000;" parent="1" target="E5yIIu5KzH-er2fL6q-M-78" edge="1">
          <mxGeometry relative="1" as="geometry">
            <mxPoint x="-100" y="400" as="sourcePoint" />
          </mxGeometry>
        </mxCell>
        <mxCell id="UoxV15uRkX_Niu28RtxY-29" value="" style="edgeStyle=orthogonalEdgeStyle;rounded=0;orthogonalLoop=1;jettySize=auto;html=1;fontSize=11;fontColor=#FFFFFF;strokeColor=#6C8EBF;strokeWidth=4;" edge="1" parent="1" source="E5yIIu5KzH-er2fL6q-M-80" target="UoxV15uRkX_Niu28RtxY-28">
          <mxGeometry relative="1" as="geometry" />
        </mxCell>
        <mxCell id="E5yIIu5KzH-er2fL6q-M-80" value="&lt;div&gt;БД Оголошення( 24 год)&lt;/div&gt;" style="outlineConnect=0;fontColor=#232F3E;gradientColor=#4D72F3;gradientDirection=north;fillColor=#3334B9;strokeColor=#ffffff;dashed=0;verticalLabelPosition=bottom;verticalAlign=top;align=center;html=1;fontSize=12;fontStyle=0;aspect=fixed;shape=mxgraph.aws4.resourceIcon;resIcon=mxgraph.aws4.dynamodb;labelBackgroundColor=#ffffff;spacingTop=5;" parent="1" vertex="1">
          <mxGeometry x="260.0000000000002" y="553.5" width="78" height="78" as="geometry" />
        </mxCell>
        <mxCell id="UoxV15uRkX_Niu28RtxY-41" style="edgeStyle=orthogonalEdgeStyle;rounded=0;orthogonalLoop=1;jettySize=auto;html=1;fontSize=13;fontColor=#FFFFFF;strokeColor=#999999;strokeWidth=2;" edge="1" parent="1" source="E5yIIu5KzH-er2fL6q-M-82">
          <mxGeometry relative="1" as="geometry">
            <mxPoint x="310" y="550" as="targetPoint" />
          </mxGeometry>
        </mxCell>
        <mxCell id="E5yIIu5KzH-er2fL6q-M-82" value="&lt;div&gt;Контролер оголошень&lt;/div&gt;&lt;div&gt;&lt;br&gt;&lt;/div&gt;" style="outlineConnect=0;fontColor=#232F3E;gradientColor=#945DF2;gradientDirection=north;fillColor=#5A30B5;strokeColor=#ffffff;dashed=0;verticalLabelPosition=bottom;verticalAlign=top;align=center;html=1;fontSize=12;fontStyle=0;aspect=fixed;shape=mxgraph.aws4.resourceIcon;resIcon=mxgraph.aws4.api_gateway;labelBackgroundColor=#F0F0F0;horizontal=1;spacingTop=0;spacingBottom=0;spacing=0;labelPosition=center;" parent="1" vertex="1">
          <mxGeometry x="343.79" y="360" width="70.5" height="70.5" as="geometry" />
        </mxCell>
        <mxCell id="E5yIIu5KzH-er2fL6q-M-86" value="&lt;div&gt;Перевіряє вхідні дані, якщо подібна машина вже то оновлює оголошення.&lt;/div&gt;&lt;div&gt;+ &lt;br&gt;&lt;font size=&quot;1&quot;&gt;&lt;b style=&quot;font-size: 7px&quot;&gt;перевіряє по базі МРЕО&lt;/b&gt;&lt;/font&gt;&lt;br&gt;&lt;/div&gt;" style="whiteSpace=wrap;html=1;align=center;verticalAlign=middle;treeFolding=1;treeMoving=1;newEdgeStyle={&quot;edgeStyle&quot;:&quot;elbowEdgeStyle&quot;,&quot;startArrow&quot;:&quot;none&quot;,&quot;endArrow&quot;:&quot;none&quot;};rounded=1;shadow=0;glass=0;labelBackgroundColor=none;labelBorderColor=none;sketch=0;fontSize=7;fontColor=default;strokeWidth=2;fillColor=none;dashed=1;" parent="1" vertex="1">
          <mxGeometry x="444.13" y="320" width="128.75" height="60" as="geometry" />
        </mxCell>
        <mxCell id="E5yIIu5KzH-er2fL6q-M-87" value="" style="edgeStyle=elbowEdgeStyle;elbow=vertical;startArrow=none;endArrow=none;rounded=0;fontSize=7;fontColor=default;strokeColor=#B20000;strokeWidth=2;fillColor=#e51400;" parent="1" source="E5yIIu5KzH-er2fL6q-M-82" target="E5yIIu5KzH-er2fL6q-M-86" edge="1">
          <mxGeometry relative="1" as="geometry">
            <mxPoint x="390" y="330" as="sourcePoint" />
            <Array as="points">
              <mxPoint x="430" y="400" />
              <mxPoint x="440" y="380" />
              <mxPoint x="380" y="360" />
            </Array>
          </mxGeometry>
        </mxCell>
        <mxCell id="E5yIIu5KzH-er2fL6q-M-109" value="&lt;div style=&quot;font-size: 10px&quot;&gt;&lt;span style=&quot;&quot;&gt;ФІльтрує обробляє і напрвляє всі вхідні дані&lt;/span&gt;&lt;/div&gt;&lt;div&gt;&lt;br&gt;&lt;/div&gt;" style="whiteSpace=wrap;html=1;align=center;verticalAlign=middle;treeFolding=1;treeMoving=1;newEdgeStyle={&quot;edgeStyle&quot;:&quot;elbowEdgeStyle&quot;,&quot;startArrow&quot;:&quot;none&quot;,&quot;endArrow&quot;:&quot;none&quot;};rounded=1;shadow=0;glass=0;labelBackgroundColor=#FFFFFF;labelBorderColor=none;sketch=0;fontSize=14;fontColor=default;strokeWidth=2;fillColor=none;arcSize=0;dashed=1;" parent="1" vertex="1">
          <mxGeometry x="29.999999999999996" y="330" width="94.29" height="60" as="geometry" />
        </mxCell>
        <mxCell id="E5yIIu5KzH-er2fL6q-M-110" value="" style="edgeStyle=elbowEdgeStyle;elbow=vertical;startArrow=none;endArrow=none;rounded=0;fontSize=14;fontColor=default;strokeColor=#B20000;strokeWidth=2;fillColor=#e51400;" parent="1" source="UEzPUAAOIrF-is8g5C7q-114" target="E5yIIu5KzH-er2fL6q-M-109" edge="1">
          <mxGeometry relative="1" as="geometry">
            <mxPoint x="-80" y="190" as="sourcePoint" />
          </mxGeometry>
        </mxCell>
        <mxCell id="E5yIIu5KzH-er2fL6q-M-111" style="edgeStyle=none;rounded=0;orthogonalLoop=1;jettySize=auto;html=1;exitX=0.25;exitY=0;exitDx=0;exitDy=0;fontSize=10;fontColor=default;startArrow=classic;startFill=1;endArrow=block;endFill=1;strokeColor=#808080;strokeWidth=2;fillColor=#000000;" parent="1" source="E5yIIu5KzH-er2fL6q-M-109" target="E5yIIu5KzH-er2fL6q-M-109" edge="1">
          <mxGeometry relative="1" as="geometry" />
        </mxCell>
        <mxCell id="E5yIIu5KzH-er2fL6q-M-122" style="edgeStyle=elbowEdgeStyle;rounded=0;orthogonalLoop=1;jettySize=auto;html=1;fontSize=10;fontColor=default;startArrow=classic;startFill=1;endArrow=block;endFill=1;strokeColor=#808080;strokeWidth=2;fillColor=#000000;" parent="1" source="E5yIIu5KzH-er2fL6q-M-119" edge="1">
          <mxGeometry relative="1" as="geometry">
            <mxPoint x="708" y="499.0000000000002" as="targetPoint" />
            <Array as="points">
              <mxPoint x="810" y="460" />
              <mxPoint x="790" y="420" />
            </Array>
          </mxGeometry>
        </mxCell>
        <mxCell id="UoxV15uRkX_Niu28RtxY-7" value="HTTP" style="edgeLabel;html=1;align=center;verticalAlign=middle;resizable=0;points=[];fontSize=11;rotation=270;labelBackgroundColor=#B3B3B3;" vertex="1" connectable="0" parent="E5yIIu5KzH-er2fL6q-M-122">
          <mxGeometry x="0.1913" relative="1" as="geometry">
            <mxPoint as="offset" />
          </mxGeometry>
        </mxCell>
        <mxCell id="E5yIIu5KzH-er2fL6q-M-119" value="&lt;div&gt;САЙТ&lt;/div&gt;&lt;div&gt;&lt;br&gt;&lt;/div&gt;" style="sketch=0;pointerEvents=1;shadow=0;dashed=0;html=1;strokeColor=none;fillColor=#505050;labelPosition=center;verticalLabelPosition=bottom;verticalAlign=top;outlineConnect=0;align=center;shape=mxgraph.office.concepts.website;rounded=1;glass=0;labelBackgroundColor=#FFFFFF;labelBorderColor=none;fontSize=10;fontColor=default;" parent="1" vertex="1">
          <mxGeometry x="930" y="117.77999999999997" width="99" height="82.22" as="geometry" />
        </mxCell>
        <mxCell id="E5yIIu5KzH-er2fL6q-M-121" style="edgeStyle=elbowEdgeStyle;rounded=0;orthogonalLoop=1;jettySize=auto;html=1;fontSize=10;fontColor=default;startArrow=classic;startFill=1;endArrow=block;endFill=1;strokeColor=#808080;strokeWidth=2;fillColor=#000000;" parent="1" source="E5yIIu5KzH-er2fL6q-M-120" edge="1">
          <mxGeometry relative="1" as="geometry">
            <mxPoint x="670" y="460.45533219761523" as="targetPoint" />
            <Array as="points">
              <mxPoint x="670" y="270" />
            </Array>
          </mxGeometry>
        </mxCell>
        <mxCell id="E5yIIu5KzH-er2fL6q-M-120" value="&lt;div&gt;Програма&lt;/div&gt;" style="sketch=0;aspect=fixed;html=1;points=[];align=center;image;fontSize=12;image=img/lib/mscae/Mobile_Engagement.svg;rounded=1;shadow=0;glass=0;labelBackgroundColor=#FFFFFF;labelBorderColor=none;fontColor=default;strokeWidth=2;fillColor=none;" parent="1" vertex="1">
          <mxGeometry x="720" y="110" width="61.2" height="90" as="geometry" />
        </mxCell>
        <mxCell id="E5yIIu5KzH-er2fL6q-M-132" style="edgeStyle=orthogonalEdgeStyle;rounded=0;orthogonalLoop=1;jettySize=auto;html=1;fontSize=10;fontColor=default;startArrow=classic;startFill=1;endArrow=oval;endFill=1;strokeColor=#808080;strokeWidth=2;fillColor=#000000;elbow=vertical;verticalAlign=top;" parent="1" source="E5yIIu5KzH-er2fL6q-M-128" target="UEzPUAAOIrF-is8g5C7q-119" edge="1">
          <mxGeometry relative="1" as="geometry">
            <Array as="points">
              <mxPoint x="10" y="840" />
            </Array>
          </mxGeometry>
        </mxCell>
        <mxCell id="E5yIIu5KzH-er2fL6q-M-128" value="&lt;div&gt;АРХІВАЦІЯ&lt;/div&gt;&lt;div&gt;&lt;br&gt;&lt;/div&gt;" style="points=[];aspect=fixed;html=1;align=center;shadow=0;dashed=0;image;image=img/lib/allied_telesis/storage/Datacenter_Server_Storage_Unit_Large.svg;rounded=1;glass=0;labelBackgroundColor=#FFFFFF;labelBorderColor=none;sketch=0;fontSize=10;fontColor=default;strokeWidth=2;fillColor=none;" parent="1" vertex="1">
          <mxGeometry x="102.6" y="800" width="76.8" height="79.2" as="geometry" />
        </mxCell>
        <mxCell id="E5yIIu5KzH-er2fL6q-M-135" style="edgeStyle=elbowEdgeStyle;rounded=0;orthogonalLoop=1;jettySize=auto;html=1;fontSize=10;fontColor=default;startArrow=doubleBlock;startFill=1;endArrow=oval;endFill=1;strokeColor=#d6b656;strokeWidth=2;fillColor=#fff2cc;" parent="1" source="E5yIIu5KzH-er2fL6q-M-133" target="UEzPUAAOIrF-is8g5C7q-119" edge="1">
          <mxGeometry relative="1" as="geometry">
            <Array as="points">
              <mxPoint x="-130" y="800" />
              <mxPoint x="-80" y="610" />
              <mxPoint x="-40" y="920" />
              <mxPoint x="-30" y="740" />
              <mxPoint x="410" y="920" />
              <mxPoint x="50" y="760" />
              <mxPoint x="120" y="550" />
              <mxPoint x="230" y="680" />
              <mxPoint x="50" y="700" />
              <mxPoint x="460" y="650" />
            </Array>
          </mxGeometry>
        </mxCell>
        <mxCell id="E5yIIu5KzH-er2fL6q-M-141" style="edgeStyle=elbowEdgeStyle;rounded=0;orthogonalLoop=1;jettySize=auto;elbow=vertical;html=1;fontSize=10;fontColor=default;startArrow=classic;startFill=1;endArrow=classic;endFill=1;strokeColor=#d6b656;strokeWidth=2;fillColor=#fff2cc;" parent="1" source="E5yIIu5KzH-er2fL6q-M-133" target="E5yIIu5KzH-er2fL6q-M-119" edge="1">
          <mxGeometry relative="1" as="geometry">
            <Array as="points">
              <mxPoint x="1080" y="210" />
              <mxPoint x="810" y="660" />
            </Array>
          </mxGeometry>
        </mxCell>
        <mxCell id="UoxV15uRkX_Niu28RtxY-47" style="edgeStyle=orthogonalEdgeStyle;rounded=0;orthogonalLoop=1;jettySize=auto;html=1;fontSize=7;fontColor=#FFFFFF;startArrow=classic;startFill=1;strokeColor=#d6b656;strokeWidth=2;fillColor=#fff2cc;" edge="1" parent="1" source="E5yIIu5KzH-er2fL6q-M-133" target="E5yIIu5KzH-er2fL6q-M-120">
          <mxGeometry relative="1" as="geometry" />
        </mxCell>
        <mxCell id="E5yIIu5KzH-er2fL6q-M-133" value="&lt;div align=&quot;justify&quot;&gt;ТРЕНДИ ТА АНАЛІТИКА&lt;/div&gt;" style="sketch=0;html=1;dashed=0;whitespace=wrap;fillColor=#2875E2;strokeColor=#ffffff;points=[[0.005,0.63,0],[0.1,0.2,0],[0.9,0.2,0],[0.5,0,0],[0.995,0.63,0],[0.72,0.99,0],[0.5,1,0],[0.28,0.99,0]];shape=mxgraph.kubernetes.icon;prIcon=api;rounded=1;shadow=0;glass=0;labelBackgroundColor=#FFFFFF;labelBorderColor=none;fontSize=10;fontColor=default;labelPosition=center;verticalLabelPosition=bottom;align=center;verticalAlign=top;" parent="1" vertex="1">
          <mxGeometry x="708" y="620" width="83.33" height="80" as="geometry" />
        </mxCell>
        <mxCell id="E5yIIu5KzH-er2fL6q-M-138" style="edgeStyle=elbowEdgeStyle;rounded=0;orthogonalLoop=1;jettySize=auto;html=1;fontSize=10;fontColor=default;startArrow=classic;startFill=1;endArrow=classic;endFill=1;strokeColor=#808080;strokeWidth=2;fillColor=#000000;" parent="1" source="E5yIIu5KzH-er2fL6q-M-136" edge="1">
          <mxGeometry relative="1" as="geometry">
            <mxPoint x="340.00000000000045" y="600" as="targetPoint" />
            <Array as="points">
              <mxPoint x="530" y="550" />
              <mxPoint x="480" y="530" />
              <mxPoint x="410" y="590" />
              <mxPoint x="660" y="540" />
            </Array>
          </mxGeometry>
        </mxCell>
        <mxCell id="UoxV15uRkX_Niu28RtxY-1" style="edgeStyle=orthogonalEdgeStyle;rounded=0;orthogonalLoop=1;jettySize=auto;html=1;fillColor=#dae8fc;strokeColor=#6c8ebf;strokeWidth=4;exitX=0.827;exitY=0.93;exitDx=0;exitDy=0;exitPerimeter=0;" edge="1" parent="1" source="E5yIIu5KzH-er2fL6q-M-136">
          <mxGeometry relative="1" as="geometry">
            <mxPoint x="940" y="190" as="targetPoint" />
            <Array as="points">
              <mxPoint x="694" y="560" />
              <mxPoint x="940" y="560" />
            </Array>
          </mxGeometry>
        </mxCell>
        <mxCell id="UoxV15uRkX_Niu28RtxY-6" value="WEBSOKET" style="edgeLabel;html=1;align=center;verticalAlign=middle;resizable=0;points=[];fontSize=11;labelBackgroundColor=#6C8EBF;fontColor=#FFFFFF;" vertex="1" connectable="0" parent="UoxV15uRkX_Niu28RtxY-1">
          <mxGeometry x="0.6305" y="-2" relative="1" as="geometry">
            <mxPoint x="-72" y="252" as="offset" />
          </mxGeometry>
        </mxCell>
        <mxCell id="UoxV15uRkX_Niu28RtxY-13" style="edgeStyle=orthogonalEdgeStyle;rounded=0;orthogonalLoop=1;jettySize=auto;html=1;fontSize=11;strokeWidth=4;strokeColor=#6C8EBF;" edge="1" parent="1" source="E5yIIu5KzH-er2fL6q-M-136" target="E5yIIu5KzH-er2fL6q-M-120">
          <mxGeometry relative="1" as="geometry">
            <Array as="points">
              <mxPoint x="730" y="500" />
            </Array>
          </mxGeometry>
        </mxCell>
        <mxCell id="UoxV15uRkX_Niu28RtxY-14" value="&lt;div&gt;WEBSOKET&lt;/div&gt;" style="edgeLabel;html=1;align=center;verticalAlign=middle;resizable=0;points=[];fontSize=11;rotation=90;labelBackgroundColor=#6C8EBF;fontColor=#FFFFFF;" vertex="1" connectable="0" parent="UoxV15uRkX_Niu28RtxY-13">
          <mxGeometry x="-0.1558" y="-1" relative="1" as="geometry">
            <mxPoint as="offset" />
          </mxGeometry>
        </mxCell>
        <mxCell id="E5yIIu5KzH-er2fL6q-M-136" value="&lt;div&gt;Оголошення&lt;/div&gt;" style="sketch=0;html=1;dashed=0;whitespace=wrap;fillColor=#2875E2;strokeColor=#ffffff;points=[[0.005,0.63,0],[0.1,0.2,0],[0.9,0.2,0],[0.5,0,0],[0.995,0.63,0],[0.72,0.99,0],[0.5,1,0],[0.28,0.99,0]];shape=mxgraph.kubernetes.icon;prIcon=api;rounded=1;shadow=0;glass=0;labelBackgroundColor=#FFFFFF;labelBorderColor=none;fontSize=10;fontColor=default;labelPosition=left;verticalLabelPosition=middle;align=right;verticalAlign=middle;" parent="1" vertex="1">
          <mxGeometry x="624.67" y="460" width="83.33" height="80" as="geometry" />
        </mxCell>
        <mxCell id="UoxV15uRkX_Niu28RtxY-33" value="" style="edgeStyle=orthogonalEdgeStyle;rounded=0;orthogonalLoop=1;jettySize=auto;html=1;fontSize=11;fontColor=#FFFFFF;strokeColor=#999999;strokeWidth=2;entryX=0.998;entryY=0.358;entryDx=0;entryDy=0;entryPerimeter=0;" edge="1" parent="1" source="UoxV15uRkX_Niu28RtxY-28" target="E5yIIu5KzH-er2fL6q-M-128">
          <mxGeometry relative="1" as="geometry">
            <mxPoint x="299.25000000000045" y="858" as="targetPoint" />
          </mxGeometry>
        </mxCell>
        <mxCell id="UoxV15uRkX_Niu28RtxY-28" value="БД Оголошення(ВСІ)" style="outlineConnect=0;fontColor=#232F3E;gradientColor=#4D72F3;gradientDirection=north;fillColor=#3334B9;strokeColor=#ffffff;dashed=0;verticalLabelPosition=bottom;verticalAlign=top;align=center;html=1;fontSize=12;fontStyle=0;aspect=fixed;shape=mxgraph.aws4.resourceIcon;resIcon=mxgraph.aws4.dynamodb;labelBackgroundColor=#ffffff;spacingTop=5;" vertex="1" parent="1">
          <mxGeometry x="260.25000000000017" y="700" width="78" height="78" as="geometry" />
        </mxCell>
        <mxCell id="UoxV15uRkX_Niu28RtxY-43" value="&lt;span style=&quot;background-color: rgb(153, 153, 153); font-size: 13px;&quot;&gt;carID&lt;/span&gt;" style="edgeLabel;html=1;align=center;verticalAlign=middle;resizable=0;points=[];fontSize=13;fontColor=#FFFFFF;" vertex="1" connectable="0" parent="1">
          <mxGeometry x="30.00473684210499" y="600.0026315789473" as="geometry">
            <mxPoint x="-64" y="16" as="offset" />
          </mxGeometry>
        </mxCell>
      </root>
    </mxGraphModel>
  </diagram>
</mxfile>
